<svg xmlns="http://www.w3.org/2000/svg" xmlns:xlink="http://www.w3.org/1999/xlink" width="49.8779296875" height="49.8779296875" viewBox="0 0 49.8779296875 49.8779296875" fill="none">
<rect  x="0" y="0" width="49.8779907610614" height="49.8779907610614" rx="7.9804785217698235"    fill="#07A081" >
</rect>
<path d="M18.6259 33.6476L25.6996 33.6476L25.6996 26.8692L27.8324 26.8692C27.9248 26.8693 28.0171 26.8671 28.1094 26.8626C28.2017 26.8581 28.2939 26.8513 28.3857 26.8423C28.4777 26.8334 28.5694 26.8222 28.6609 26.8086C28.7522 26.7952 28.8432 26.7794 28.9339 26.7614C29.0246 26.7435 29.1147 26.7232 29.2042 26.7009C29.2939 26.6785 29.3829 26.6539 29.4714 26.6271C29.5599 26.6003 29.6475 26.5714 29.7345 26.5403C29.8216 26.5093 29.9078 26.476 29.9931 26.4407C30.0785 26.4054 30.163 26.3681 30.2465 26.3286C30.3301 26.2891 30.4126 26.2476 30.4941 26.2041C30.5756 26.1606 30.656 26.1151 30.7353 26.0676C30.8146 26.0202 30.8926 25.9708 30.9694 25.9195C31.0463 25.8682 31.1218 25.8151 31.1961 25.76C31.2703 25.705 31.3431 25.6483 31.4146 25.5896C31.4861 25.5311 31.556 25.4708 31.6245 25.4088C31.693 25.3467 31.7599 25.2831 31.8252 25.2177C31.8906 25.1525 31.9543 25.0855 32.0164 25.0171C32.0785 24.9487 32.1389 24.8787 32.1974 24.8073C32.2561 24.7359 32.3129 24.6631 32.368 24.5889C32.4231 24.5147 32.4762 24.4392 32.5276 24.3624C32.579 24.2856 32.6284 24.2076 32.6759 24.1283C32.7234 24.0491 32.769 23.9688 32.8126 23.8873C32.8562 23.8059 32.8977 23.7234 32.9372 23.6398C32.9767 23.5563 33.0141 23.4718 33.0495 23.3864C33.0849 23.3011 33.1182 23.2149 33.1493 23.1279C33.1805 23.0409 33.2094 22.9533 33.2363 22.8648C33.2631 22.7764 33.2877 22.6874 33.3102 22.5977C33.3326 22.5081 33.3529 22.4181 33.3709 22.3274C33.389 22.2368 33.4048 22.1457 33.4183 22.0544C33.4319 21.963 33.4432 21.8713 33.4522 21.7794C33.4613 21.6875 33.4682 21.5954 33.4727 21.503C33.4772 21.4107 33.4795 21.3184 33.4795 21.226C33.4795 21.1336 33.4772 21.0413 33.4727 20.949C33.4682 20.8567 33.4613 20.7646 33.4522 20.6727C33.4432 20.5807 33.4319 20.489 33.4183 20.3977C33.4048 20.3063 33.389 20.2153 33.3709 20.1246C33.3529 20.034 33.3326 19.9439 33.3102 19.8543C33.2877 19.7646 33.2631 19.6756 33.2363 19.5872C33.2094 19.4988 33.1805 19.4111 33.1493 19.3241C33.1182 19.2371 33.0849 19.1509 33.0495 19.0656C33.0141 18.9802 32.9767 18.8958 32.9372 18.8122C32.8977 18.7287 32.8562 18.6462 32.8126 18.5647C32.769 18.4833 32.7234 18.4029 32.6759 18.3237C32.6284 18.2445 32.579 18.1664 32.5276 18.0896C32.4762 18.0128 32.4231 17.9373 32.368 17.8631C32.3129 17.7889 32.2561 17.7161 32.1974 17.6447C32.1389 17.5733 32.0785 17.5033 32.0164 17.4349C31.9543 17.3665 31.8906 17.2996 31.8252 17.2343C31.7599 17.169 31.693 17.1053 31.6245 17.0433C31.556 16.9813 31.4861 16.921 31.4146 16.8624C31.3431 16.8038 31.2703 16.747 31.1961 16.692C31.1218 16.637 31.0463 16.5839 30.9694 16.5325C30.8926 16.4812 30.8146 16.4319 30.7353 16.3844C30.656 16.3369 30.5756 16.2914 30.4941 16.2479C30.4126 16.2044 30.3301 16.1629 30.2465 16.1234C30.163 16.084 30.0785 16.0466 29.9931 16.0113C29.9078 15.976 29.8216 15.9428 29.7345 15.9117C29.6475 15.8806 29.5599 15.8517 29.4714 15.8249C29.3829 15.7981 29.2939 15.7735 29.2042 15.7511C29.1147 15.7288 29.0246 15.7086 28.9339 15.6906C28.8432 15.6726 28.7522 15.6569 28.6609 15.6434C28.5694 15.6299 28.4777 15.6186 28.3857 15.6097C28.2939 15.6007 28.2017 15.5939 28.1094 15.5894C28.0171 15.585 27.9248 15.5828 27.8324 15.5828L18.6259 15.5828L18.6259 33.6476ZM29.3626 37.2608L14.9639 37.2608L14.9639 11.9707L27.8324 11.9707C27.9771 11.9686 28.1218 11.9699 28.2665 11.9747C28.4112 11.9794 28.5556 11.9876 28.6999 11.9991C28.8442 12.0106 28.9882 12.0255 29.1317 12.0438C29.2753 12.0621 29.4184 12.0837 29.561 12.1087C29.7035 12.1337 29.8455 12.1621 29.9866 12.1937C30.1279 12.2254 30.2683 12.2603 30.4079 12.2986C30.5474 12.3368 30.6861 12.3783 30.8238 12.4231C30.9614 12.4678 31.098 12.5158 31.2334 12.567C31.3687 12.6181 31.5029 12.6725 31.6357 12.7299C31.7686 12.7874 31.8999 12.848 32.0299 12.9117C32.1599 12.9752 32.2884 13.0419 32.4153 13.1116C32.5422 13.1813 32.6674 13.2539 32.7908 13.3294C32.9143 13.405 33.0359 13.4834 33.1557 13.5647C33.2755 13.6459 33.3933 13.7299 33.5091 13.8166C33.6249 13.9034 33.7386 13.9929 33.8503 14.0851C33.9619 14.1772 34.0713 14.2719 34.1786 14.3692C34.2858 14.4664 34.3906 14.5662 34.4931 14.6684C34.5955 14.7705 34.6956 14.8751 34.7933 14.982C34.8908 15.0889 34.9859 15.198 35.0784 15.3093C35.1708 15.4206 35.2607 15.5341 35.3478 15.6497C35.4349 15.7653 35.5193 15.8828 35.601 16.0023C35.6826 16.1219 35.7614 16.2433 35.8373 16.3665C35.9132 16.4897 35.9862 16.6146 36.0563 16.7413C36.1264 16.8679 36.1934 16.9961 36.2575 17.126C36.3215 17.2558 36.3825 17.387 36.4403 17.5197C36.4983 17.6524 36.5531 17.7863 36.6046 17.9215C36.6562 18.0568 36.7046 18.1931 36.7498 18.3306C36.795 18.4681 36.8369 18.6066 36.8756 18.7461C36.9143 18.8856 36.9497 19.0259 36.9818 19.1671C37.0138 19.3082 37.0427 19.45 37.0681 19.5925C37.0935 19.735 37.1156 19.878 37.1343 20.0215C37.1531 20.1651 37.1684 20.309 37.1804 20.4532C37.1924 20.5975 37.201 20.7419 37.2062 20.8866C37.2113 21.0312 37.2131 21.1759 37.2115 21.3206C37.2099 21.4653 37.2049 21.6099 37.1965 21.7544C37.1881 21.8989 37.1763 22.0432 37.1612 22.187C37.146 22.3311 37.1274 22.4745 37.1056 22.6176C37.0837 22.7607 37.0584 22.9032 37.0298 23.045C37.0012 23.187 36.9693 23.3281 36.9341 23.4685C36.8989 23.609 36.8604 23.7484 36.8186 23.887C36.7768 24.0256 36.7318 24.1631 36.6836 24.2996C36.6355 24.436 36.584 24.5713 36.5294 24.7054C36.4748 24.8394 36.4171 24.9721 36.3563 25.1035C36.2955 25.2349 36.2316 25.3648 36.1647 25.493C36.0978 25.6214 36.0279 25.7481 35.9551 25.8731C35.8822 25.9982 35.8065 26.1215 35.7279 26.243C35.6492 26.3645 35.5678 26.4841 35.4835 26.6018C35.3992 26.7195 35.3123 26.8353 35.2226 26.9488C35.1329 27.0624 35.0406 27.1738 34.9457 27.2831C34.8507 27.3924 34.7533 27.4993 34.6534 27.6041C34.5534 27.7088 34.4511 27.8111 34.3464 27.9109C34.2416 28.0109 34.1346 28.1082 34.0252 28.2031C33.9159 28.298 33.8044 28.3903 33.6908 28.4798C33.5771 28.5695 33.4614 28.6564 33.3437 28.7406C33.2259 28.8248 33.1063 28.9062 32.9848 28.9847C32.8632 29.0633 32.7399 29.139 32.6148 29.2118C32.4897 29.2847 32.3629 29.3544 32.2345 29.4212C32.1061 29.4881 31.9763 29.5519 31.8449 29.6127C31.7135 29.6734 31.5807 29.7311 31.4466 29.7855C31.3126 29.84 31.1773 29.8914 31.0408 29.9396C30.9043 29.9878 30.7667 30.0326 30.6282 30.0743C30.4896 30.116 30.35 30.1544 30.2096 30.1896C30.0692 30.2248 29.9281 30.2566 29.7861 30.2851C29.6443 30.3137 29.5018 30.3389 29.3587 30.3606L29.3626 37.2608Z"   fill="#FFFFFF" >
</path>
</svg>
