<svg t="1711458389290" class="icon" viewBox="0 0 1024 1024" version="1.1" xmlns="http://www.w3.org/2000/svg" p-id="5409" width="200" height="200"><path d="M0 0h1024v1024H0V0z" fill="#0099FF" p-id="5410"></path><path d="M189.44 155.136c0 29.184 23.552 52.736 52.736 52.736 29.184 0 52.736-23.552 52.736-52.736C294.912 125.952 271.36 102.4 242.176 102.4S189.44 126.464 189.44 155.136zM288.768 271.872c-1.536 196.096-2.56 392.192-4.096 587.776h-46.08c1.536-177.152 2.56-354.304 4.096-531.968-57.344 1.536-114.688 3.584-172.032 5.12V276.48c72.704-1.024 145.408-2.56 218.112-4.608z m62.464-157.696l340.48-4.608c6.144-13.824 12.8-27.648 19.456-41.984 19.456 14.848 38.912 30.208 58.88 45.056-14.848 28.16-32.256 58.368-53.76 90.112-22.016 32.256-46.08 63.488-72.192 93.184 32.768 15.36 66.56 29.696 100.864 41.984 15.872 5.632 62.464 22.016 124.928 37.376 35.328 8.704 66.56 14.336 91.136 18.432l-104.448 73.216c-39.936-11.776-83.456-26.624-129.536-45.568-48.128-19.968-95.232-43.008-140.288-69.12-30.72 39.424-67.584 74.752-108.544 103.424-57.344 40.448-112.64 61.952-151.04 73.216 38.912-36.352 71.168-68.096 96.256-93.184 26.112-26.112 49.152-51.2 67.072-69.632 19.968-20.992 36.352-38.4 48.128-51.2-24.064-21.504-52.224-51.712-74.752-88.064-16.896-27.136-31.232-59.904-35.328-70.144-4.096-9.728-7.168-17.408-9.728-23.04-17.408-1.536-35.328-3.072-52.736-5.12-5.12-5.12-10.24-9.728-14.848-14.336z" fill="#FFFFFF" p-id="5411"></path><path d="M563.712 553.984H359.424l30.72 27.648h173.568v111.616H328.704l-20.48 20.992c8.704 4.608 16.896 9.216 25.6 13.824 76.8 2.048 153.088 4.608 229.888 7.168v222.72c27.136-25.6 54.272-51.2 81.92-76.8v-146.432H901.12c-20.48-16.384-40.96-32.256-61.44-48.64-64.512 2.56-129.536 4.608-194.048 7.168v-111.616H803.84c-11.776-11.776-24.064-23.04-35.84-34.816h-122.88V456.704c-27.136-20.992-54.272-41.984-81.92-62.464v159.744z" fill="#FFFFFF" p-id="5412"></path><path d="M453.12 115.2l230.4 15.36c-24.576 46.592-55.296 90.112-92.16 128-19.968-11.776-38.912-25.6-56.32-40.96-40.448-35.84-66.048-73.728-81.92-102.4z" fill="#0099FF" p-id="5413"></path></svg>