<svg t="1711091127287" class="icon" viewBox="0 0 1024 1024" version="1.1" xmlns="http://www.w3.org/2000/svg" p-id="4793" width="200" height="200"><path d="M169.8 18.2c17.84-3.44 36.08-2.24 54.12-2.4 201.32-0.04 402.6 0.08 603.92-0.04 45.68 0.44 90.2 21.72 120.84 55.36 26.8 29.64 43.24 68.8 44.24 108.88v612.16c-2.08 42.6-21.36 83.52-51.4 113.56-32.56 30.16-76.52 49.64-121.36 47.48-210.76-0.04-421.48-0.04-632.2 0-49.56-3.96-97.12-30.64-125.6-71.56-21.96-30.36-32.2-68.16-31.84-105.4 0-194.88 0-389.72-0.04-584.56-0.24-40.88 12.6-82.36 39.12-113.84 24.96-30.92 61.24-52.16 100.2-59.64m123.04 236.44c-10.8 9-3.4 24.48-9.16 36-42.52 123.12-86.12 245.84-128.96 368.84-2.2 5.68-2.24 11.8-2.44 17.8 27.24-0.04 54.52-0.48 81.76 0.24 3.6-3.6 8.6-6.4 10.32-11.48 7.84-30.04 19.68-58.88 27.8-88.84 49.12-0.08 98.24 0 147.36-0.04 9.52 32.12 21.52 63.48 31.6 95.44 1.92 1.16 5.76 3.52 7.68 4.68 29.72-0.2 59.48-0.12 89.24-0.04-1.04-19.12-10.08-36.44-16.08-54.28-19.6-55.92-39.72-111.64-59.44-167.52-24.64-66.68-46.48-134.44-72.44-200.6-35.76-0.16-71.48 0.24-107.24-0.2m381.44 127.16c-0.04-10.16-3.56-19.8-10.56-27.24-25 0.24-50 0.28-74.96-0.04 2.48 105.2 0.96 210.44 1.08 315.64 4.08 3.24 7.6 8.72 13.72 7.2 24.2 0 48.44-0.24 72.64 0.04 2.48-5.4 3.6-11.24 3.28-17.16-0.24-66.8 0-133.64-0.16-200.44-2.08-11.2 9.4-17.2 17.6-21.72 21.12-10.8 50.28-13.16 68.8 3.92 11.52 13.76 16.88 32.12 17.04 49.88 0.04 61.72-0.16 123.44 0.08 185.16 27.64 0.64 55.28-0.16 82.92 0.48 1.88-1.68 5.68-5.04 7.56-6.76-0.08-62.28-0.12-124.6 0.04-186.88 0-12.2-2.16-24.2-2.76-36.32-0.6-24.72-11.92-47.88-27.44-66.68-19.76-19.44-47-31.32-74.88-30.92-33.48-1.56-69.68 7.88-94 31.84z" fill="#000000" p-id="4794"></path><path d="M343.76 342.2l4.04-1.96c8.44 40.6 23.88 79.32 35.32 119.08 4.04 11.92 6.6 24.48 12.56 35.68-33.28-0.32-66.52-0.16-99.8-0.08 6.96-12.12 9.72-26 14.4-39.08 10.76-37.96 24.92-75.04 33.48-113.64z" fill="#000000" p-id="4795"></path></svg>