<svg xmlns="http://www.w3.org/2000/svg" xmlns:xlink="http://www.w3.org/1999/xlink" width="200" height="200" viewBox="0 0 200 200" fill="none">
<path d="M40 5.96047e-06L160 5.96047e-06C186.667 5.96047e-06 200 13.3333 200 40L200 160C200 186.667 186.667 200 160 200L40 200C13.3333 200 2.98023e-06 186.667 2.98023e-06 160L2.98023e-06 40C2.98023e-06 13.3333 13.3333 2.98023e-06 40 2.98023e-06L40 5.96047e-06Z"   fill="#FF679A" >
</path>
<g opacity="0.15">
<path d="M123.4 49.5179L142 49.5179C153.4 49.5179 162.63 59.1179 162.63 70.9679L162.63 135.868C162.63 147.698 153.39 157.298 142.01 157.308L58.4002 157.308C47.0102 157.308 37.7803 147.698 37.7803 135.858L37.6201 70.958C37.6201 59.1179 46.8502 49.5179 58.2402 49.5179L76.3602 49.5179L69.2402 40.688C69.1777 40.6104 69.1172 40.5314 69.0584 40.4509C68.9996 40.3704 68.943 40.2886 68.8881 40.2054C68.8332 40.1222 68.7805 40.0378 68.7297 39.9521C68.6791 39.8663 68.6305 39.7794 68.5838 39.6913C68.5371 39.6033 68.4928 39.5142 68.4504 39.4239C68.408 39.3338 68.368 39.2427 68.3299 39.1505C68.292 39.0585 68.2562 38.9655 68.2227 38.8716C68.1893 38.7778 68.158 38.6833 68.1289 38.588C68.1 38.4927 68.0734 38.3967 68.049 38.3001C68.0246 38.2035 68.0025 38.1064 67.9828 38.0087C67.9631 37.911 67.9457 37.813 67.9307 37.7146C67.9156 37.6161 67.9029 37.5174 67.8926 37.4183C67.8822 37.3192 67.8744 37.2199 67.8689 37.1204C67.8633 37.021 67.8602 36.9214 67.8594 36.8218C67.8586 36.7222 67.8602 36.6226 67.8643 36.523C67.8682 36.4235 67.8744 36.3241 67.8832 36.2249C67.892 36.1256 67.9031 36.0265 67.9166 35.9278C67.9301 35.8292 67.9461 35.7308 67.9643 35.6329C67.9824 35.535 68.0029 35.4376 68.0258 35.3405C68.0486 35.2437 68.0738 35.1473 68.1014 35.0515C68.1289 34.9558 68.1586 34.8607 68.1906 34.7663C68.2227 34.672 68.2568 34.5786 68.2934 34.4859C68.3299 34.3931 68.3688 34.3014 68.4096 34.2107C68.4504 34.1198 68.4936 34.0299 68.5387 33.9411C68.5838 33.8523 68.6312 33.7647 68.6807 33.6782C68.7301 33.5918 68.7814 33.5065 68.835 33.4224C68.8885 33.3384 68.9439 33.2557 69.0014 33.1743C69.0588 33.0929 69.1182 33.0129 69.1795 32.9343C69.2408 32.8558 69.3039 32.7788 69.3689 32.7032C69.434 32.6277 69.5006 32.5538 69.5691 32.4816C69.6377 32.4092 69.7078 32.3385 69.7797 32.2696C69.8516 32.2006 69.925 32.1334 70.0002 32.0679C70.0732 32.0042 70.1479 31.9423 70.2238 31.8821C70.2998 31.8221 70.3773 31.764 70.4564 31.7079C70.5355 31.6518 70.6158 31.5977 70.6977 31.5456C70.7795 31.4935 70.8625 31.4435 70.9467 31.3956C71.0309 31.3477 71.1164 31.3019 71.2029 31.2583C71.2895 31.2147 71.3772 31.1733 71.4656 31.1341C71.5543 31.0949 71.6439 31.0579 71.7344 31.0232C71.8248 30.9885 71.9162 30.9561 72.0084 30.9259C72.1006 30.8958 72.1934 30.8681 72.2869 30.8427C72.3805 30.8172 72.4746 30.7941 72.5693 30.7734C72.6641 30.7527 72.7592 30.7344 72.8547 30.7185C72.9502 30.7026 73.0463 30.6891 73.1426 30.678C73.2389 30.667 73.3354 30.6583 73.432 30.6521C73.5287 30.6458 73.6256 30.642 73.7227 30.6405C73.8195 30.6392 73.9164 30.6403 74.0133 30.6439C74.1102 30.6474 74.2068 30.6533 74.3035 30.6616C74.4 30.67 74.4963 30.6808 74.5924 30.6941C74.6883 30.7073 74.784 30.723 74.8793 30.7409C74.9744 30.7589 75.0691 30.7793 75.1635 30.8023C75.2576 30.825 75.3512 30.8502 75.4441 30.8777C75.5371 30.9051 75.6293 30.9349 75.7207 30.9671C75.8121 30.9993 75.9027 31.0337 75.9924 31.0704C76.082 31.1071 76.1709 31.1461 76.2586 31.1872C76.3463 31.2284 76.433 31.2717 76.5188 31.3173C76.6043 31.3627 76.6887 31.4104 76.7719 31.4603C76.8549 31.51 76.9367 31.5618 77.0174 31.6157C77.098 31.6696 77.1771 31.7255 77.2549 31.7833C77.3326 31.8411 77.4088 31.9009 77.4836 31.9626C77.5584 32.0243 77.6314 32.0879 77.7031 32.1534C77.7746 32.2188 77.8445 32.2859 77.9127 32.3548C77.9809 32.4237 78.0473 32.4943 78.1119 32.5665C78.1766 32.6388 78.2393 32.7126 78.3002 32.788L91.8002 49.5179L107.97 49.5179L121.37 32.888C121.431 32.8126 121.494 32.7388 121.559 32.6665C121.623 32.5943 121.689 32.5237 121.758 32.4548C121.826 32.3859 121.896 32.3187 121.967 32.2532C122.039 32.1879 122.112 32.1243 122.187 32.0626C122.262 32.0009 122.338 31.9411 122.415 31.8833C122.493 31.8254 122.572 31.7695 122.653 31.7157C122.734 31.6618 122.815 31.6099 122.899 31.5601C122.982 31.5103 123.066 31.4627 123.152 31.4173C123.237 31.3717 123.324 31.3284 123.412 31.2872C123.499 31.2461 123.588 31.2071 123.678 31.1704C123.768 31.1337 123.858 31.0993 123.95 31.0671C124.041 31.0349 124.133 31.0051 124.226 30.9777C124.319 30.9502 124.413 30.925 124.507 30.9021C124.601 30.8793 124.696 30.8589 124.791 30.8409C124.886 30.8228 124.982 30.8072 125.078 30.7941C125.174 30.7808 125.27 30.77 125.367 30.7616C125.464 30.7533 125.56 30.7474 125.657 30.7439C125.754 30.7403 125.851 30.7392 125.948 30.7405C126.045 30.742 126.142 30.7458 126.238 30.7521C126.335 30.7582 126.431 30.7668 126.528 30.778C126.624 30.7891 126.72 30.8026 126.816 30.8185C126.911 30.8344 127.006 30.8527 127.101 30.8734C127.196 30.8941 127.29 30.9172 127.383 30.9427C127.477 30.9681 127.57 30.9958 127.662 31.0259C127.754 31.0561 127.846 31.0885 127.936 31.1232C128.026 31.1579 128.116 31.1949 128.205 31.2341C128.293 31.2733 128.381 31.3147 128.468 31.3583C128.554 31.4019 128.639 31.4477 128.724 31.4956C128.808 31.5435 128.891 31.5935 128.973 31.6456C129.054 31.6977 129.135 31.7518 129.214 31.8079C129.293 31.864 129.371 31.9221 129.446 31.9821C129.523 32.0423 129.597 32.1042 129.67 32.1679C132.21 34.3679 132.54 38.178 130.43 40.788L123.39 49.5179L123.4 49.5179ZM150.98 134.998L150.98 71.1679C150.98 66.2881 147.18 62.3381 142.48 62.3381L57.8502 62.3381C53.1602 62.3381 49.3502 66.2881 49.3502 71.1679L49.3502 134.998C49.3502 139.878 53.1602 143.838 57.8502 143.838L142.5 143.838C147.19 143.838 150.99 139.878 150.99 134.998L150.98 134.998ZM82.2303 83.7179C82.3137 83.689 82.3979 83.6625 82.4828 83.6381C82.5678 83.6134 82.6531 83.5912 82.7391 83.5711C82.8252 83.5508 82.9115 83.5328 82.9984 83.5172C83.0854 83.5011 83.1727 83.4877 83.2602 83.4763C83.3479 83.465 83.4355 83.4558 83.5236 83.449C83.6117 83.442 83.7 83.4373 83.7883 83.4349C83.8766 83.4326 83.9648 83.4324 84.0531 83.4345C84.1416 83.4365 84.2297 83.4408 84.3178 83.4474C84.4059 83.4539 84.4938 83.4627 84.5814 83.4736C84.6691 83.4845 84.7564 83.4978 84.8434 83.5133C84.9303 83.5287 85.0168 83.5463 85.1029 83.5662C85.1891 83.5861 85.2746 83.608 85.3596 83.6322C85.4445 83.6564 85.5287 83.6826 85.6125 83.7111C85.6961 83.7396 85.7789 83.7701 85.8609 83.8029C85.9432 83.8353 86.0244 83.8701 86.1047 83.907C86.185 83.9437 86.2643 83.9824 86.3426 84.0234C86.4209 84.064 86.4982 84.1068 86.5744 84.1517C86.6506 84.1963 86.7256 84.2429 86.7994 84.2916C86.8732 84.34 86.9457 84.3904 87.017 84.4427C87.0883 84.4949 87.158 84.5488 87.2266 84.6047C87.2951 84.6603 87.3621 84.7178 87.4277 84.7771C87.4934 84.8361 87.5574 84.897 87.6199 84.9595C87.6824 85.0219 87.7434 85.0857 87.8025 85.1513C87.8617 85.2168 87.9193 85.2838 87.9752 85.3523C88.0311 85.4207 88.0852 85.4904 88.1375 85.5617C88.1898 85.6328 88.2402 85.7052 88.2889 85.7791C88.3375 85.8527 88.3844 85.9277 88.4291 86.0039C88.4738 86.0801 88.5168 86.1572 88.5578 86.2355C88.5986 86.3136 88.6375 86.3929 88.6744 86.4734C88.7113 86.5535 88.7461 86.6347 88.7789 86.7168C88.8117 86.7988 88.8424 86.8816 88.8709 86.9652C88.8994 87.0488 88.9258 87.133 88.9502 87.2179C88.9754 87.3058 88.9984 87.3945 89.0193 87.4836C89.0402 87.5724 89.059 87.6619 89.0756 87.7519C89.0922 87.8418 89.1068 87.9322 89.1191 88.0228C89.1314 88.1134 89.1416 88.2043 89.1496 88.2953C89.1576 88.3863 89.1633 88.4777 89.1668 88.5691C89.1705 88.6605 89.1719 88.7519 89.1711 88.8433C89.1703 88.9347 89.1674 89.0261 89.1621 89.1176C89.157 89.2088 89.1498 89.3 89.1402 89.391C89.1307 89.4818 89.1189 89.5724 89.1051 89.6631C89.0912 89.7533 89.0752 89.8433 89.057 89.933C89.0389 90.0226 89.0186 90.1119 88.9961 90.2006C88.9736 90.2892 88.9492 90.3771 88.9225 90.4646C88.8957 90.5521 88.867 90.6388 88.8363 90.7252C88.8055 90.8111 88.7727 90.8965 88.7377 90.981C88.7027 91.0656 88.6658 91.1492 88.627 91.232C88.5881 91.3148 88.5471 91.3967 88.5043 91.4775C88.4615 91.5582 88.4168 91.6379 88.3701 91.7166C88.3234 91.7953 88.275 91.8728 88.2246 91.9492C88.1744 92.0254 88.1223 92.1006 88.0682 92.1744C88.0143 92.2482 87.9586 92.3209 87.9012 92.392C87.8438 92.4631 87.7846 92.533 87.7238 92.6013C87.6631 92.6697 87.6008 92.7365 87.5367 92.8019C87.4729 92.8672 87.4072 92.931 87.3402 92.9933C87.2732 93.0554 87.2049 93.1162 87.135 93.1752C87.065 93.2342 86.9938 93.2914 86.9211 93.3468C86.8484 93.4023 86.7744 93.4562 86.6992 93.5082C86.624 93.5601 86.5475 93.6103 86.4699 93.6588C86.3922 93.707 86.3135 93.7535 86.2336 93.798C86.1537 93.8426 86.0729 93.8851 85.991 93.9259C85.9092 93.9666 85.8262 94.0052 85.7424 94.0422C85.6586 94.0789 85.574 94.1134 85.4887 94.1463C85.4033 94.1789 85.3172 94.2095 85.2303 94.2381L64.4803 101.108C64.4006 101.134 64.3203 101.158 64.2395 101.18C64.1584 101.202 64.077 101.222 63.9951 101.24C63.9133 101.257 63.8309 101.273 63.748 101.286C63.6654 101.299 63.5824 101.311 63.499 101.32C63.4156 101.329 63.3322 101.336 63.2484 101.34C63.1646 101.345 63.0811 101.347 62.9973 101.348C62.9135 101.348 62.8297 101.346 62.7459 101.342C62.6621 101.337 62.5787 101.331 62.4953 101.323C62.4119 101.314 62.3287 101.304 62.2459 101.291C62.1631 101.278 62.0807 101.263 61.9986 101.246C61.9166 101.228 61.8352 101.209 61.7541 101.188C61.673 101.166 61.5926 101.143 61.5129 101.117C61.433 101.091 61.3539 101.063 61.2756 101.034C61.1973 101.004 61.1199 100.972 61.0432 100.938C60.9664 100.904 60.8906 100.869 60.8158 100.831C60.741 100.793 60.6674 100.753 60.5947 100.712C60.5219 100.67 60.4504 100.626 60.3799 100.581C60.3094 100.535 60.2402 100.488 60.1725 100.439C60.1045 100.39 60.0379 100.339 59.9725 100.286C59.9072 100.234 59.8434 100.18 59.7809 100.124C59.7186 100.068 59.6576 100.01 59.598 99.9513C59.5387 99.8922 59.4809 99.8316 59.4246 99.7695C59.3684 99.7072 59.3137 99.6435 59.2607 99.5787C59.2078 99.5136 59.1566 99.4472 59.1072 99.3797C59.0578 99.3121 59.0102 99.2431 58.9643 99.173C58.9184 99.1027 58.8744 99.0314 58.8322 98.959C58.7902 98.8865 58.75 98.8131 58.7117 98.7384C58.6734 98.6638 58.6371 98.5883 58.6029 98.5119C58.5687 98.4353 58.5363 98.358 58.5061 98.2799C58.4758 98.2017 58.4477 98.1228 58.4215 98.0431C58.3955 97.9635 58.3715 97.8832 58.3496 97.8023C58.3275 97.7215 58.3078 97.64 58.2902 97.558C58.2713 97.4689 58.2543 97.3795 58.2393 97.2896C58.2244 97.1998 58.2115 97.1095 58.2006 97.0191C58.1898 96.9285 58.1811 96.8379 58.1742 96.7472C58.1676 96.6562 58.1629 96.5652 58.1604 96.4742C58.1578 96.3832 58.1572 96.292 58.1586 96.201C58.1602 96.1099 58.1637 96.0189 58.1693 95.9281C58.175 95.8371 58.1826 95.7463 58.1924 95.6558C58.2021 95.5652 58.2141 95.4748 58.2279 95.3849C58.2418 95.2947 58.2576 95.2051 58.2756 95.1158C58.2934 95.0263 58.3133 94.9375 58.3354 94.8492C58.3572 94.7607 58.3811 94.6728 58.407 94.5855C58.433 94.4982 58.4609 94.4115 58.4908 94.3256C58.5207 94.2394 58.5523 94.1541 58.5861 94.0695C58.6199 93.9847 58.6555 93.901 58.693 93.8179C58.7305 93.7349 58.7699 93.6529 58.8111 93.5717C58.8523 93.4904 58.8955 93.4101 58.9402 93.3308C58.9852 93.2515 59.0318 93.1732 59.0803 93.0963C59.1287 93.0189 59.1789 92.9429 59.2307 92.8681C59.2824 92.7931 59.3359 92.7195 59.3912 92.647C59.4465 92.5746 59.5033 92.5035 59.5617 92.4336C59.6201 92.3636 59.6803 92.2951 59.7418 92.2279C59.8033 92.1607 59.8662 92.0949 59.9309 92.0306C59.9953 91.9662 60.0613 91.9035 60.1287 91.8422C60.1961 91.7808 60.2646 91.7211 60.3348 91.6629C60.4049 91.6047 60.4762 91.548 60.5488 91.4931C60.6215 91.4381 60.6953 91.3847 60.7705 91.3332C60.8455 91.2816 60.9217 91.2316 60.999 91.1836C61.0764 91.1353 61.1547 91.0888 61.2342 91.0443C61.3137 90.9998 61.3939 90.957 61.4752 90.916C61.5566 90.875 61.6389 90.8357 61.7221 90.7986C61.8051 90.7613 61.8891 90.726 61.9738 90.6926C62.0586 90.659 62.1441 90.6275 62.2303 90.598L82.2303 83.7179ZM118.27 83.7179L138.27 90.598C141.17 91.5881 142.85 94.5781 142.21 97.558C142.193 97.6398 142.173 97.7213 142.151 97.8023C142.129 97.8832 142.105 97.9635 142.079 98.0431C142.053 98.1228 142.025 98.2017 141.994 98.2799C141.964 98.358 141.932 98.4353 141.897 98.5119C141.863 98.5883 141.827 98.6638 141.789 98.7384C141.75 98.8131 141.71 98.8865 141.668 98.959C141.626 99.0314 141.582 99.1027 141.536 99.173C141.49 99.2431 141.443 99.3121 141.393 99.3797C141.344 99.4472 141.293 99.5136 141.24 99.5787C141.187 99.6435 141.132 99.7072 141.076 99.7695C141.02 99.8316 140.962 99.8922 140.902 99.9513C140.843 100.01 140.782 100.068 140.72 100.124C140.657 100.18 140.593 100.234 140.528 100.286C140.462 100.339 140.396 100.39 140.328 100.439C140.26 100.488 140.191 100.535 140.121 100.581C140.05 100.626 139.979 100.67 139.906 100.712C139.833 100.753 139.759 100.793 139.684 100.831C139.61 100.869 139.534 100.904 139.457 100.938C139.38 100.972 139.303 101.004 139.225 101.034C139.146 101.063 139.067 101.091 138.988 101.117C138.908 101.143 138.827 101.166 138.746 101.188C138.665 101.209 138.584 101.228 138.502 101.246C138.42 101.263 138.337 101.278 138.254 101.291C138.172 101.304 138.088 101.314 138.005 101.323C137.922 101.331 137.838 101.337 137.754 101.342C137.671 101.346 137.587 101.348 137.503 101.348C137.419 101.347 137.336 101.345 137.252 101.34C137.168 101.336 137.085 101.329 137.001 101.32C136.918 101.311 136.835 101.299 136.752 101.286C136.67 101.273 136.587 101.257 136.505 101.24C136.423 101.222 136.342 101.202 136.261 101.18C136.18 101.158 136.1 101.134 136.02 101.108L115.27 94.2381C115.183 94.2094 115.097 94.1787 115.012 94.1459C114.927 94.1131 114.842 94.0781 114.759 94.0414C114.675 94.0045 114.592 93.9656 114.511 93.925C114.429 93.884 114.348 93.8412 114.268 93.7967C114.188 93.7521 114.11 93.7056 114.032 93.6572C113.955 93.6088 113.879 93.5584 113.804 93.5064C113.728 93.4543 113.654 93.4004 113.582 93.3449C113.51 93.2892 113.438 93.232 113.369 93.173C113.299 93.114 113.23 93.0533 113.163 92.991C113.097 92.9287 113.031 92.8648 112.967 92.7996C112.904 92.734 112.841 92.6672 112.781 92.5988C112.72 92.5304 112.661 92.4605 112.604 92.3894C112.547 92.3181 112.491 92.2457 112.437 92.1719C112.383 92.098 112.331 92.0228 112.281 91.9465C112.231 91.8701 112.183 91.7926 112.136 91.714C112.089 91.6353 112.045 91.5556 112.002 91.4748C111.959 91.3939 111.919 91.3123 111.88 91.2295C111.841 91.1467 111.804 91.0629 111.77 90.9785C111.735 90.8939 111.702 90.8086 111.671 90.7226C111.641 90.6365 111.612 90.5498 111.585 90.4625C111.559 90.375 111.535 90.2869 111.512 90.1982C111.49 90.1095 111.47 90.0205 111.452 89.931C111.433 89.8414 111.418 89.7513 111.404 89.6611C111.39 89.5707 111.378 89.4801 111.369 89.3892C111.359 89.2982 111.352 89.2072 111.347 89.116C111.342 89.0246 111.339 88.9334 111.338 88.842C111.338 88.7506 111.339 88.6593 111.343 88.5679C111.346 88.4765 111.352 88.3855 111.36 88.2945C111.368 88.2035 111.379 88.1127 111.391 88.022C111.403 87.9314 111.418 87.8414 111.435 87.7515C111.451 87.6615 111.47 87.572 111.491 87.4832C111.512 87.3941 111.535 87.3058 111.56 87.2179C111.585 87.1332 111.611 87.049 111.639 86.9656C111.668 86.882 111.699 86.7994 111.731 86.7176C111.764 86.6357 111.799 86.5547 111.836 86.4746C111.873 86.3945 111.912 86.3152 111.953 86.2371C111.993 86.159 112.036 86.0818 112.081 86.006C112.126 85.9299 112.172 85.8551 112.221 85.7816C112.27 85.7078 112.32 85.6355 112.372 85.5644C112.424 85.4933 112.479 85.4238 112.534 85.3554C112.59 85.2871 112.647 85.2201 112.707 85.1549C112.766 85.0892 112.827 85.0254 112.889 84.9631C112.951 84.9008 113.015 84.84 113.081 84.781C113.146 84.7218 113.213 84.6644 113.282 84.6088C113.35 84.5529 113.42 84.499 113.491 84.447C113.562 84.3947 113.635 84.3445 113.708 84.2961C113.782 84.2474 113.857 84.2008 113.933 84.1562C114.009 84.1115 114.086 84.0687 114.164 84.0279C114.242 83.9871 114.321 83.9484 114.402 83.9117C114.482 83.8748 114.563 83.84 114.645 83.8074C114.727 83.7746 114.809 83.7441 114.893 83.7158C114.976 83.6873 115.061 83.6609 115.145 83.6367C115.23 83.6125 115.315 83.5904 115.401 83.5705C115.487 83.5506 115.574 83.533 115.661 83.5176C115.747 83.5019 115.835 83.4884 115.922 83.4775C116.01 83.4664 116.097 83.4576 116.185 83.451C116.273 83.4443 116.361 83.4398 116.449 83.4377C116.538 83.4355 116.626 83.4355 116.714 83.4379C116.802 83.4402 116.89 83.4447 116.978 83.4515C117.066 83.4582 117.154 83.4672 117.241 83.4785C117.329 83.4896 117.416 83.5031 117.503 83.5187C117.59 83.5343 117.676 83.5521 117.762 83.5722C117.848 83.5922 117.933 83.6142 118.018 83.6386C118.103 83.6629 118.187 83.6894 118.27 83.7179ZM111.27 116.278C113.55 115.908 115.47 111.768 115.47 111.768L120.72 115.308C120.72 115.308 119.39 117.838 118.31 119.398C116.75 121.658 113.61 123.268 109.91 123.178C107.24 123.118 104.63 120.968 103.63 120.048C103.61 120.029 103.588 120.013 103.565 119.998C103.541 119.983 103.517 119.971 103.491 119.961C103.465 119.951 103.439 119.943 103.412 119.937C103.385 119.932 103.358 119.928 103.33 119.928L103.16 119.928C103.131 119.928 103.101 119.931 103.072 119.937C103.043 119.942 103.015 119.951 102.988 119.962C102.96 119.973 102.934 119.986 102.909 120.003C102.884 120.019 102.862 120.037 102.84 120.058C101.87 120.958 99.2502 123.118 96.5602 123.178C92.8602 123.268 89.7201 121.658 88.1602 119.398C87.0803 117.838 85.7502 115.298 85.7502 115.298L91.0102 111.768C91.0102 111.768 92.9201 115.908 95.1902 116.268C97.2303 116.608 101.82 112.488 103.01 109.888C103.015 109.878 103.02 109.868 103.026 109.859C103.032 109.85 103.038 109.841 103.046 109.832C103.053 109.824 103.061 109.816 103.069 109.809C103.077 109.801 103.086 109.794 103.095 109.788C103.104 109.782 103.114 109.776 103.124 109.772C103.134 109.767 103.144 109.763 103.155 109.759C103.165 109.756 103.176 109.753 103.187 109.752C103.198 109.75 103.209 109.748 103.22 109.748L103.25 109.748C103.35 109.748 103.42 109.808 103.46 109.888C104.66 112.488 109.25 116.608 111.28 116.278L111.27 116.278Z"   fill="#FFFFFF" >
</path>
</g>
<path     fill="#FFFFFF"  d="M141 90.4273C141.38 90.4973 144.46 89.7973 144.59 90.0273C144.79 90.3273 146.16 100.387 145.8 100.457C144.828 100.673 143.858 100.896 142.89 101.127C142.69 99.7572 141.02 91.2973 140.99 90.4273M145.89 89.4672L147.24 100.287C147.93 100.257 150.71 100.057 150.97 100.027C150.57 95.9273 149.89 89.4672 149.89 89.4672C149.561 89.4006 149.229 89.3504 148.895 89.3168C148.561 89.2832 148.226 89.2664 147.89 89.2664C147.554 89.2664 147.219 89.2832 146.885 89.3168C146.551 89.3504 146.219 89.4006 145.89 89.4672ZM143.25 104.487C143.25 104.487 149.3 102.927 151.49 103.687C152.6 107.787 154.63 130.767 154.83 131.707C153.45 131.867 148.94 132.267 148.58 132.367C148.28 130.637 143.25 105.587 143.25 104.487ZM165.65 90.6973C166.02 90.7973 169.22 90.3672 169.25 90.5973C169.32 91.3973 169.65 101.057 169.29 101.097L166.38 101.357C166.31 100.027 165.59 91.5973 165.66 90.6973M170.6 90.4273L170.86 101.127C171.54 101.127 174.29 101.287 174.59 101.257C174.52 97.1572 174.59 90.6973 174.59 90.6973C173.931 90.5768 173.267 90.4941 172.598 90.449C171.929 90.4039 171.26 90.3967 170.59 90.4273M166.38 104.787C166.38 104.787 172.56 103.957 174.65 104.957C175.11 109.757 175.05 132.107 175.11 133.037C173.71 133.037 169.22 133.107 168.86 133.167C168.8 131.437 166.28 105.887 166.38 104.787ZM152.02 77.3072C155.58 95.8273 158.3 127.477 158.39 129.507C158.39 129.507 161.21 129.567 164.39 129.767C162.787 112.165 161.411 94.5449 160.26 76.9072C159.47 76.0072 152.02 77.3072 152.02 77.3072ZM144.16 121.107C143.48 115.907 125.22 110.017 114.96 111.917C114.96 111.917 113.68 100.457 113.19 89.3672C112.906 82.5935 112.916 75.8202 113.22 69.0472C112.53 68.5472 105.14 72.1472 101.15 73.6472C101.15 73.6472 105.92 94.2273 109.39 136.937C109.39 136.937 114.92 137.537 124.41 135.667C133.89 133.807 145.11 127.967 144.16 121.107ZM121.86 130.467L120.26 118.717C120.64 118.517 130.49 122.247 131.54 122.917C131.37 123.647 121.85 130.467 121.85 130.467M64.97 90.4273C65.37 90.4973 68.4401 89.7973 68.57 90.0273C68.77 90.3273 70.1401 100.387 69.77 100.457C68.8017 100.673 67.8351 100.896 66.87 101.127C66.67 99.7572 65.0001 91.2973 64.97 90.4273ZM69.87 89.4672L71.22 100.287C71.9001 100.257 74.6802 100.057 74.9501 100.027C74.52 95.9273 73.87 89.4672 73.87 89.4672C73.5409 89.4006 73.2093 89.3504 72.8751 89.3168C72.5409 89.2832 72.206 89.2664 71.87 89.2664C71.5343 89.2664 71.1993 89.2832 70.8651 89.3168C70.531 89.3504 70.1991 89.4006 69.87 89.4672ZM67.2302 104.487C67.2302 104.487 73.2802 102.927 75.47 103.687C76.5802 107.787 78.6101 130.767 78.8101 131.707C77.4302 131.867 72.9101 132.267 72.5601 132.367C72.2601 130.637 67.2302 105.587 67.2302 104.487ZM89.6302 90.6973C89.9901 90.7973 93.2001 90.3672 93.2302 90.5973C93.3001 91.3973 93.6302 101.057 93.2601 101.097L90.3601 101.357C90.2901 100.027 89.6001 91.5973 89.6302 90.6973ZM94.57 90.4273L94.8302 101.127C95.5302 101.127 98.27 101.287 98.5601 101.257C98.5001 97.1572 98.5601 90.6973 98.5601 90.6973C97.9013 90.5855 97.2386 90.507 96.572 90.4619C95.9052 90.4168 95.2378 90.4053 94.57 90.4273ZM90.3501 104.787C90.3501 104.787 96.5401 103.957 98.6302 104.957C99.0901 109.757 99.0302 132.107 99.0901 133.037C97.6901 133.037 93.1901 133.107 92.8401 133.167C92.8101 131.437 90.2501 105.887 90.3501 104.787ZM76.0001 77.3072C79.57 95.8273 82.2802 127.477 82.3802 129.507C82.3802 129.507 85.1901 129.567 88.37 129.767C86.7688 112.152 85.3956 94.5182 84.2501 76.8672C83.4601 76.0072 76.0001 77.3072 76.0001 77.3072ZM68.1501 121.107C67.4601 115.907 49.2101 110.017 38.9401 111.917C38.9401 111.917 37.6601 100.457 37.17 89.3672C36.8895 82.5933 36.9029 75.82 37.2101 69.0472C36.5101 68.5773 29.1302 72.1472 25.1401 73.6472C25.1401 73.6472 29.9101 94.2273 33.3802 136.937C33.3802 136.937 38.9101 137.537 48.3901 135.667C57.8802 133.807 69.1001 127.967 68.1501 121.107ZM45.8501 130.467L44.2401 118.717C44.6401 118.517 54.4802 122.247 55.52 122.917C55.3601 123.647 45.8401 130.467 45.8401 130.467">
</path>
</svg>
