<svg t="1710991963959" class="icon" viewBox="0 0 1024 1024" version="1.1" xmlns="http://www.w3.org/2000/svg" p-id="6543" width="200" height="200"><path d="M799.60064 16.19968c-90.5216 0-148.62336-16.19968-241.84832-16.19968-301.28128 0-441.79456 171.58144-441.79456 345.86624 0 102.68672 48.64 136.45824 144.56832 136.45824-6.7584-14.86848-18.92352-31.08864-18.92352-104.0384 0-204.00128 77.0048-263.45472 175.63648-267.50976 0 0-80.91648 793.37472-315.78112 888.54528l0 24.6784 316.60032 0 108.032-512 197.8368 0 44.07296-128-214.91712 0 51.93728-246.19008c59.45344 12.16512 117.53472 24.30976 167.5264 24.30976 62.1568 0 118.8864-18.92352 149.97504-162.11968-37.82656 12.16512-78.35648 16.19968-122.94144 16.19968z" fill="currentColor" p-id="6544"></path></svg>