<svg t="1710937609656" class="icon" viewBox="0 0 1527 1024" version="1.1" xmlns="http://www.w3.org/2000/svg" p-id="8702" width="200" height="200"><path d="M0 512V0h1527.017544v1024H0V512z m782.37193 317.978947c7.185965-8.084211 33.235088-53.894737 57.487719-101.501754 43.115789-83.536842 45.810526-86.231579 78.147369-88.926316l33.235087-2.694737 50.301755 98.807018c32.336842 63.775439 56.589474 100.603509 68.266666 104.196491 9.880702 3.592982 19.761404 4.491228 22.456141 1.796491 1.796491-1.796491-26.947368-62.877193-63.775439-134.736842-88.926316-173.361404-88.926316-171.564912 0-344.926316 36.82807-71.859649 65.57193-132.940351 62.877193-135.635087s-13.473684 0-24.252632 4.491228c-14.37193 7.185965-50.301754 68.266667-113.178947 190.42807L861.417544 601.824561h-70.961404V224.561404h-25.150877c-13.473684 0-29.642105 4.491228-35.929824 10.778947-14.37193 14.37193-15.270175 565.894737-1.796492 591.94386 11.677193 20.659649 38.624561 22.45614 54.792983 2.694736z m484.154386-117.670175c3.592982-114.077193 6.287719-129.347368 22.45614-141.024561 9.880702-8.084211 26.947368-14.37193 38.624562-14.37193 15.270175 0 19.761404-5.389474 19.761403-23.354386 0-20.659649-2.694737-22.45614-24.252632-17.964913-31.438596 8.084211-63.775439 30.540351-87.129824 61.978948-14.37193 18.863158-17.964912 42.217544-21.557895 122.161403-5.389474 120.364912 0 147.312281 27.845614 142.821053 18.863158-2.694737 19.761404-7.185965 24.252632-130.245614zM338.638596 317.080702c-0.898246-38.624561-2.694737-7.185965-2.694736 69.164912s1.796491 107.789474 2.694736 70.063158c1.796491-38.624561 1.796491-101.501754 0-139.22807z" fill="#4182F1" p-id="8703"></path><path d="M700.631579 854.231579c-13.473684-26.049123-12.575439-631.466667 1.796491-645.838597 6.287719-6.287719 34.133333-10.778947 62.877193-10.778947h52.098246v188.631579c0 108.687719 3.592982 188.631579 8.08421 188.631579s49.403509-79.94386 99.705263-176.954386c50.301754-97.908772 97.908772-183.242105 105.992983-188.631579 20.659649-17.066667 109.585965-15.270175 109.585965 1.796491 0 7.185965-34.133333 79.94386-76.350877 160.785965-42.217544 81.740351-76.350877 154.498246-76.350878 162.582456s35.929825 84.435088 79.94386 169.768421c44.912281 86.231579 78.147368 158.989474 75.452632 161.684211-12.575439 12.575439-100.603509 5.389474-114.975439-8.982456-8.084211-8.084211-34.133333-54.792982-59.28421-104.196491-24.252632-48.505263-48.505263-86.231579-53.894737-83.536843-4.491228 3.592982-26.947368 43.115789-49.403509 88.028071-54.792982 108.687719-59.284211 114.077193-112.280702 114.077193-34.133333 0-45.810526-3.592982-52.996491-17.066667zM1189.277193 848.842105c-2.694737-12.575439-4.491228-79.045614-1.796491-148.210526 2.694737-108.687719 5.389474-128.449123 21.557894-149.108772 31.438596-43.115789 62.877193-60.182456 115.873685-64.673684l49.403508-3.592983v50.301755c0 45.810526-1.796491 50.301754-19.761403 50.301754-11.677193 0-28.74386 6.287719-38.624561 14.37193-16.168421 11.677193-18.863158 26.947368-22.456141 141.024561l-4.491228 127.550878-46.708772 2.694736c-44.014035 2.694737-47.607018 0.898246-52.996491-20.659649zM165.277193 561.403509c-12.575439-32.336842 2.694737-40.421053 72.757895-40.421053h67.368421v-52.996491c0-61.080702-3.592982-63.775439-78.147369-63.775439-45.810526 0-48.505263-1.796491-45.810526-19.761403 2.694737-18.863158 8.084211-20.659649 63.775439-23.354386l61.080701-2.694737-2.694736-55.691228-2.694737-55.691228-69.164913-2.694737c-67.368421-2.694737-70.063158-3.592982-70.063157-24.252632 0-22.45614 0-22.45614 94.315789-22.45614 83.536842 0 94.315789 1.796491 103.298246 17.066667 5.389474 10.778947 8.982456 83.536842 8.982456 174.259649 0 192.224561 3.592982 185.936842-115.873684 185.936842-64.673684 0-83.536842-2.694737-87.129825-13.473684zM447.326316 564.996491c-14.37193-8.084211-16.168421-26.049123-16.168421-176.954386 0-119.466667 3.592982-172.463158 10.778947-179.649123s42.217544-10.778947 98.807018-10.778947c87.129825 0 88.02807 0 88.02807 22.45614 0 20.659649-2.694737 21.557895-69.164912 24.252632l-70.063158 2.694737-2.694737 56.589474-2.694737 55.691228h61.978947c87.129825 0 90.722807 4.491228 92.519299 106.891228 0.898246 72.757895-0.898246 86.231579-15.270176 97.010526-18.863158 14.37193-152.701754 16.168421-176.05614 1.796491z m136.533333-97.010526c0-55.691228-6.287719-63.775439-49.403509-63.775439s-49.403509 8.084211-49.403508 63.775439v52.996491h98.807017v-52.996491z" fill="#fff" p-id="8704"></path></svg>