<svg t="1714375380782" class="icon" viewBox="0 0 1024 1024" version="1.1" xmlns="http://www.w3.org/2000/svg" p-id="7117" width="200" height="200"><path d="M938.666667 512c0 235.605333-191.061333 426.666667-426.666667 426.666667S85.333333 747.605333 85.333333 512 276.394667 85.333333 512 85.333333s426.666667 191.061333 426.666667 426.666667z" fill="#4CAF50" p-id="7118"></path><path d="M512 85.333333v426.666667l170.666667 85.333333-188.650667 341.333334H512c235.797333 0 426.666667-190.869333 426.666667-426.666667S747.797333 85.333333 512 85.333333z" fill="#FFC107" p-id="7119"></path><path d="M938.666667 512c0 235.605333-191.061333 426.666667-426.666667 426.666667S85.333333 747.605333 85.333333 512 276.394667 85.333333 512 85.333333s426.666667 191.061333 426.666667 426.666667z" fill="#4CAF50" p-id="7120"></path><path d="M512 85.333333v426.666667l170.666667 85.333333-188.650667 341.333334H512c235.797333 0 426.666667-190.869333 426.666667-426.666667S747.797333 85.333333 512 85.333333z" fill="#FFC107" p-id="7121"></path><path d="M892.586667 320H512v277.333333l-64-21.333333L152.746667 282.88h-0.426667C227.84 164.053333 360.746667 85.333333 512 85.333333c166.4 0 310.4 95.573333 380.586667 234.666667z" fill="#F44336" p-id="7122"></path><path d="M152.704 282.965333l188.650667 317.056L448 576 152.704 282.965333z" fill="#DD2C00" p-id="7123"></path><path d="M494.016 938.666667l190.592-342.592L597.333333 533.333333l-103.317333 405.333334z" fill="#558B2F" p-id="7124"></path><path d="M893.12 320H512l-33.685333 97.706667L893.12 320z" fill="#F9A825" p-id="7125"></path><path d="M704 512c0 106.005333-85.994667 192-192 192s-192-85.994667-192-192 85.994667-192 192-192 192 85.994667 192 192z" fill="#FFFFFF" p-id="7126"></path><path d="M661.333333 512c0 82.496-66.837333 149.333333-149.333333 149.333333s-149.333333-66.837333-149.333333-149.333333 66.837333-149.333333 149.333333-149.333333 149.333333 66.837333 149.333333 149.333333z" fill="#2196F3" p-id="7127"></path></svg>