<svg t="1714470022777" class="icon" viewBox="0 0 1024 1024" version="1.1" xmlns="http://www.w3.org/2000/svg" p-id="4237" width="200" height="200"><path d="M533.333333 48.384L597.333333 85.333333l255.957334 147.797334v-0.042667l64 36.949333a42.666667 42.666667 0 0 1 21.333333 36.949334V341.333333H938.666667v375.637334a42.666667 42.666667 0 0 1-21.333334 36.949333l-384 221.696a42.666667 42.666667 0 0 1-42.666666 0L426.666667 938.666667l-256-147.797334-64-36.949333a42.666667 42.666667 0 0 1-21.333334-36.949333V307.029333a42.666667 42.666667 0 0 1 21.333334-36.949333L170.666667 233.130667l320-184.746667a42.624 42.624 0 0 1 42.666666 0zM170.666667 364.202667v123.178666l106.624 61.568v-0.042666l64 36.949333a42.666667 42.666667 0 0 1 21.333333 36.949333V640H362.666667v163.157333l106.666666 61.610667v-328.149333L170.666667 364.202667z m490.666666 258.645333a42.666667 42.666667 0 0 1 21.333334-36.992l64-36.906667 106.666666-61.568V364.202667l-298.666666 172.373333v328.192l106.666666-61.610667v-180.352z m192-36.949333l-106.666666 61.568v106.453333l106.666666-61.610667v-106.410666z m-682.666666 0v106.410666l106.666666 61.610667v-106.410667l-0.042666-0.042666v-0.042667l-106.666667-61.525333z m526.08-344.618667L597.333333 298.666667l-64 36.949333a42.666667 42.666667 0 0 1-42.666666 0L327.253333 241.28 227.84 298.666667 512 462.72 796.16 298.666667l-99.413333-57.386667zM512 134.613333L412.586667 192 512 249.386667 611.413333 192 512 134.613333z" fill="#666666" p-id="4238"></path></svg>