<svg xmlns="http://www.w3.org/2000/svg" xmlns:xlink="http://www.w3.org/1999/xlink" width="81" height="81" viewBox="0 0 81 81" fill="none">
<ellipse cx="41.04974567890167" cy="40.799991607666016" rx="35.99994099140167" ry="35.9999885559082" stroke="rgba(74, 73, 74, 1.00)" stroke-width="7"      fill="#40403F" >
</ellipse>
<path d="M17.5039 25.0379L16.4336 23.6757L18.5741 22.4108C18.2905 22.798 18.0581 23.2138 17.877 23.6584C17.6959 24.1028 17.5715 24.5627 17.5039 25.0379ZM26.8444 41.2865L25.093 41.2865L25.3849 42.5514L27.1363 42.0649C26.9417 41.8703 26.8444 41.5784 26.8444 41.2865ZM26.1633 52.9622L25.8714 53.3514L25.7741 54.3243L26.066 54.2271L27.5255 53.8379L27.6228 51.7946L26.1633 52.9622ZM61.3849 17.7405C60.6288 17.4469 59.8654 17.1732 59.0949 16.9195C58.3244 16.6659 57.5478 16.4326 56.765 16.2197C55.9823 16.0067 55.1945 15.8144 54.4018 15.6428C53.6089 15.4712 52.8121 15.3205 52.0115 15.1907C51.2107 15.0608 50.4071 14.952 49.6007 14.8643C48.7942 14.7766 47.9861 14.7101 47.1762 14.6647C46.3663 14.6194 45.5558 14.5953 44.7446 14.5925C43.9335 14.5897 43.1227 14.6081 42.3125 14.6478C41.5023 14.6874 40.6938 14.7483 39.8867 14.8304C39.0796 14.9124 38.2753 15.0156 37.4737 15.1399C36.6721 15.2641 35.8743 15.4093 35.0803 15.5754C34.2864 15.7414 33.4973 15.9282 32.7131 16.1356C31.9288 16.3431 31.1507 16.571 30.3784 16.8192C29.6062 17.0675 28.8409 17.3359 28.0827 17.6243C27.3246 17.9126 26.5745 18.2206 25.8324 18.5484C25.0903 18.8761 24.3574 19.223 23.6336 19.5892C24.6066 19.6865 25.5795 19.8811 26.4552 20.2703C27.8174 19.6865 29.1795 19.1027 30.639 18.7135C35.1146 17.254 39.7849 16.4757 44.5525 16.3784C49.4173 16.3784 54.2822 17.254 58.9524 18.8108C58.1565 20.4453 57.4223 22.107 56.7497 23.7959C56.0771 25.4848 55.4681 27.1964 54.9226 28.9306C54.3772 30.6649 53.8967 32.4169 53.4812 34.1867C53.0659 35.9566 52.7166 37.7393 52.4335 39.5352C52.2116 41.1976 52.084 42.8672 52.0506 44.544C52.0172 46.2208 52.0782 47.8942 52.2337 49.5642C52.3893 51.2341 52.6383 52.89 52.9807 54.5318C53.3233 56.1736 53.7571 57.791 54.2822 59.3838C53.6158 59.795 52.9366 60.1836 52.2444 60.5496C51.5522 60.9156 50.8487 61.2581 50.1336 61.5774C49.4186 61.8965 48.6938 62.1916 47.9592 62.4627C47.2246 62.7337 46.4819 62.98 45.7308 63.2017C44.9799 63.4232 44.2224 63.6196 43.4584 63.7909C42.6943 63.962 41.9254 64.1077 41.1516 64.2279C40.3779 64.3479 39.6011 64.4421 38.8211 64.5106C38.0411 64.5789 37.2597 64.6213 36.4768 64.6379C34.7888 64.633 33.1124 64.4918 31.4474 64.2143C29.7824 63.9368 28.1508 63.5266 26.5525 62.9838C25.8714 63.2757 25.093 63.373 24.412 63.373L24.2174 63.9568C28.1093 65.5135 32.293 66.2919 36.4768 66.3892C43.3849 66.3892 50.0984 64.0541 56.52 60.1622C51.266 47.0271 53.9903 32.9189 61.3849 17.7405ZM22.466 31.5568L21.3957 29.5135L20.9093 30.3892L21.5903 31.6541L22.466 31.5568Z"   fill="#E17926" >
</path>
<path d="M53.3093 39.5351C54.4769 32.1406 56.812 24.9405 60.1201 18.227C59.4176 17.9689 58.7091 17.7284 57.9947 17.5056C57.2802 17.2828 56.5606 17.078 55.8358 16.8911C55.1111 16.7043 54.3822 16.5357 53.6491 16.3853C52.916 16.2349 52.1795 16.1028 51.4398 15.9892C50.7 15.8755 49.9578 15.7804 49.2134 15.7038C48.4689 15.6273 47.7229 15.5694 46.9756 15.53C46.2282 15.4907 45.4803 15.47 44.7318 15.4681C43.9834 15.4661 43.2354 15.4829 42.4878 15.5183C41.7403 15.5536 40.994 15.6077 40.2491 15.6804C39.5043 15.753 38.7617 15.8442 38.0213 15.954C37.281 16.0638 36.5439 16.192 35.81 16.3386C35.076 16.4851 34.3463 16.6499 33.6206 16.833C32.8948 17.016 32.1742 17.217 31.4585 17.4361C30.7429 17.6551 30.0331 17.8919 29.3293 18.1464C28.6255 18.4008 27.9285 18.6727 27.2383 18.962C26.548 19.2513 25.8654 19.5577 25.1905 19.8811C27.2337 20.3676 28.985 21.4378 30.4445 22.8973L30.7364 23.1892C31.3202 23.6757 31.6121 24.5513 31.2229 25.2325C31.1685 25.3979 31.1063 25.5603 31.0364 25.7196C30.9664 25.879 30.889 26.0348 30.8041 26.1868C30.7192 26.3388 30.6273 26.4863 30.5283 26.6296C30.4292 26.7728 30.3236 26.9108 30.2113 27.0439C30.099 27.177 29.9806 27.3044 29.8561 27.4261C29.7317 27.5477 29.6016 27.6632 29.4661 27.7726C29.3306 27.8818 29.1901 27.9843 29.0447 28.0802C28.8993 28.1759 28.7497 28.2644 28.5959 28.346C27.1364 29.0271 25.385 29.1243 23.9256 28.6379C23.4391 28.5406 22.9526 28.4433 22.5634 28.5406C22.0769 28.6379 21.6878 29.0271 21.4932 29.4162L22.5634 31.4595L24.704 31.3622C26.5526 31.2649 28.304 31.2649 30.0553 31.4595C30.8337 31.5568 31.7094 31.7514 32.4877 32.0433L33.3634 32.5297C33.6553 32.8216 33.8499 33.2108 33.9472 33.5027C35.1148 36.7135 32.7796 39.5351 29.8607 40.5081C28.6932 40.8973 27.5256 41.0919 26.358 41.1892L25.9688 41.1892L26.1634 42.2595L28.2067 41.6757L31.1256 41.0919C31.904 40.9946 33.0715 40.8 33.6553 41.2865C33.9472 41.5784 34.2391 41.9676 34.3364 42.4541L35.2121 44.5946C35.4067 45.1784 35.504 45.8595 35.4067 46.4432C35.2121 47.5135 34.531 48.3892 33.558 48.8757C31.8067 49.8486 30.0553 50.627 28.2067 51.4054L26.8445 52.1838L26.7472 53.8378C28.8877 53.254 31.1256 53.1567 33.2661 53.5459L34.4337 53.9351C35.0175 54.3243 35.4067 55.1027 35.4067 55.8811C35.4067 56.6594 35.1148 57.3405 34.7256 58.0216C34.5922 58.237 34.4498 58.4464 34.2983 58.6496C34.1469 58.8526 33.9868 59.0488 33.8182 59.238C33.6497 59.4273 33.4733 59.6088 33.289 59.7828C33.1046 59.9567 32.9131 60.1223 32.7144 60.2796C32.5158 60.4368 32.3107 60.5852 32.0991 60.7247C31.8875 60.8641 31.6703 60.9942 31.4475 61.1149C31.2246 61.2355 30.997 61.3463 30.7645 61.4472C30.532 61.548 30.2956 61.6385 30.0553 61.7189L27.331 62.4973C26.6499 62.6919 26.0661 62.9838 25.385 63.0811L25.385 63.1784C28.985 64.5405 32.7796 65.2216 36.5742 65.2216C37.4072 65.2068 38.2386 65.1633 39.0684 65.0909C39.8983 65.0184 40.7247 64.9174 41.5476 64.7876C42.3704 64.6578 43.1878 64.4996 43.9996 64.313C44.8116 64.1264 45.616 63.912 46.413 63.6696C47.21 63.4271 47.9976 63.1574 48.7759 62.8605C49.5541 62.5633 50.3211 62.2396 51.0769 61.8894C51.8327 61.5391 52.5755 61.1629 53.3052 60.7611C54.0349 60.3593 54.7498 59.9325 55.4499 59.4811C55.1438 58.6925 54.8639 57.8946 54.6104 57.0877C54.3568 56.2807 54.1301 55.4662 53.9302 54.6443C53.7302 53.8224 53.5576 52.9947 53.4122 52.1614C53.2668 51.328 53.149 50.4909 53.0587 49.6499C52.9685 48.8087 52.9059 47.9656 52.8712 47.1204C52.8365 46.2752 52.8297 45.4298 52.8506 44.5843C52.8715 43.7386 52.9202 42.8945 52.9968 42.0521C53.0734 41.2097 53.1775 40.3707 53.3093 39.5351Z"   fill="#F78F20" >
</path>
<path d="M41.9256 33.3081C43.2877 33.1135 44.5526 31.3622 44.9418 29.2216C45.331 27.0811 44.0661 25.3297 42.0229 25.5243C39.9796 25.7189 38.8121 27.7622 39.104 29.9027C39.3958 32.0433 40.6607 33.5027 41.9256 33.3081Z"   fill="#FDCDA0" >
</path>
<path d="M48.9311 44.8865C45.2338 42.454 43.4824 38.4648 40.5635 34.2811C37.8392 39.2432 36.6716 44.4973 33.1689 48.3892C39.0068 48.7783 44.1635 47.1243 48.9311 44.8865Z"   fill="#E17827" >
</path>
<path d="M44.4553 51.9892C39.6877 47.6108 37.8391 40.9946 30.7364 37.1027C31.8067 43.2324 32.0013 48.4865 28.1094 52.9622C28.7838 53.1164 29.4629 53.2466 30.1466 53.3525C30.8303 53.4585 31.5168 53.5401 32.2064 53.5972C32.8958 53.6543 33.5865 53.6869 34.2783 53.695C34.9701 53.7031 35.6613 53.6865 36.352 53.6454C37.0426 53.6042 37.7309 53.5386 38.4168 53.4486C39.1029 53.3586 39.7847 53.2443 40.4626 53.1058C41.1405 52.9672 41.8125 52.8047 42.4788 52.6184C43.1451 52.4321 43.8039 52.2224 44.4553 51.9892Z"   fill="#C86228" >
</path>
<path d="M50.293 46.8324C49.4038 47.274 48.4993 47.6819 47.5795 48.056C46.6599 48.4301 45.7275 48.7694 44.7824 49.0738C43.8374 49.3783 42.8823 49.6471 41.9172 49.8803C40.9521 50.1134 39.9798 50.3103 38.9999 50.4709C38.0201 50.6315 37.0356 50.7552 36.0466 50.8423C35.0576 50.9294 34.0667 50.9794 33.0739 50.9924C32.0812 51.0056 31.0893 50.9815 30.0983 50.9205C29.1073 50.8595 28.1199 50.7617 27.1362 50.627C28.4984 42.7459 27.3308 35.1567 21.9795 28.1513C22.5874 27.8478 23.201 27.5561 23.8204 27.2764C24.4396 26.9967 25.0641 26.7291 25.6937 26.4736C26.3234 26.2182 26.9578 25.9751 27.5969 25.7443C28.2361 25.5135 28.8794 25.2952 29.527 25.0895C30.1746 24.8837 30.826 24.6906 31.4811 24.5101C32.1362 24.3296 32.7947 24.162 33.4563 24.0071C34.1179 23.8523 34.7823 23.7104 35.4495 23.5813C36.1167 23.4523 36.7861 23.3362 37.4577 23.2332C38.1294 23.1302 38.8028 23.0403 39.4779 22.9634C40.153 22.8866 40.8295 22.8229 41.5071 22.7723C42.1848 22.7218 42.8632 22.6844 43.5422 22.6603C44.2212 22.6361 44.9006 22.6251 45.5801 22.6274C46.2596 22.6296 46.9388 22.645 47.6178 22.6736C48.2966 22.7023 48.9748 22.7441 49.6521 22.7991C50.3294 22.854 51.0053 22.9221 51.6799 23.0034C52.3546 23.0847 53.0274 23.179 53.6984 23.2865C49.8065 31.654 48.0551 39.5351 50.293 46.8324Z" stroke="rgba(225, 120, 39, 1.00)" stroke-width="4"   >
</path>
<g opacity="0.5">
<path d="M32.0011 24.0653L31.9038 23.7734L31.8065 23.5788L31.1254 23.3842L30.8335 23.3842L30.7362 23.1896C30.5118 22.9564 30.2779 22.7331 30.0343 22.5197C29.7908 22.3065 29.5387 22.1039 29.278 21.9121C29.0172 21.7203 28.7488 21.54 28.4725 21.3711C28.1964 21.2021 27.9136 21.0453 27.624 20.9005C27.3345 20.7558 27.0393 20.6237 26.7385 20.504C26.4377 20.3844 26.1324 20.2779 25.8224 20.1843C25.5125 20.0908 25.1992 20.0106 24.8825 19.9438C24.5657 19.877 24.2467 19.8238 23.9254 19.7842C23.3092 19.6854 22.693 19.6854 22.0768 19.7842C19.4498 20.4653 17.3092 23.968 17.6011 26.595C17.893 28.3464 19.1579 29.3194 20.4227 30.487L20.8119 30.5842C21.2011 30.6815 21.3957 29.9032 21.5903 29.6112C21.7849 29.1248 22.1741 28.8329 22.6606 28.6383L24.12 28.7356C25.6768 29.2221 27.3308 29.1248 28.7903 28.541C29.2768 28.3464 29.666 28.0545 29.9579 27.6653C30.0552 27.6653 30.1525 27.6653 30.2498 27.4707L31.0281 26.7896L31.4173 26.595C31.7092 26.2059 31.9038 25.7194 32.0011 25.2329L32.0011 24.0653ZM42.0227 38.1734L42.2173 37.7843C43.3849 35.449 44.8443 33.3086 46.7903 31.5571C48.5416 29.7085 50.293 28.1518 52.6281 27.6653C53.0345 27.5685 53.4451 27.4957 53.8601 27.4469C54.275 27.3981 54.6914 27.3737 55.1092 27.3737C55.527 27.3737 55.9433 27.3981 56.3583 27.4469C56.7732 27.4957 57.1838 27.5685 57.5903 27.6653C58.5632 27.6653 59.6335 27.9572 60.6065 28.3464C61.4821 28.9302 62.2605 29.7085 62.747 30.5842C64.401 33.1139 65.8605 35.741 67.2227 38.4653C68.0983 40.1193 69.0713 41.7734 69.0713 43.7193C69.0713 44.887 68.7794 46.0545 68.4875 47.2221C67.5146 50.2383 66.347 53.2545 64.8875 56.1734C64.6121 56.8852 64.2859 57.573 63.9093 58.2367C63.5327 58.9006 63.1094 59.5332 62.6398 60.1349C62.17 60.7364 61.6588 61.3004 61.1062 61.8268C60.5535 62.3532 59.9654 62.8363 59.3416 63.2761C55.547 65.8059 50.7794 65.3194 46.4984 64.7356C45.8173 64.7356 39.7849 64.0544 39.6876 63.4707C39.6876 63.1787 41.6335 62.4978 41.8281 62.4978C42.4696 62.2148 43.0906 61.8925 43.6912 61.5306C44.2917 61.1689 44.8669 60.7704 45.4167 60.3355C45.9667 59.9005 46.4868 59.4325 46.9771 58.9314C47.4675 58.4303 47.9241 57.9002 48.347 57.3409C48.9308 56.4653 49.32 55.4924 49.5146 54.5194C49.7092 53.0599 50.293 51.6005 51.0713 50.2383C51.947 48.9734 53.0173 48.0977 53.0173 46.4436L52.92 44.7897C52.92 44.2058 53.2119 43.8167 53.7957 43.4275C54.3794 43.2328 54.4767 43.4275 54.6713 43.0382L54.7686 42.6491C54.9632 41.1897 55.547 39.8274 56.3254 38.5626C56.1462 38.8468 55.9551 39.123 55.752 39.3908C55.549 39.6586 55.3348 39.9172 55.1094 40.1665C54.884 40.4159 54.6484 40.655 54.4023 40.884C54.1562 41.113 53.9008 41.3309 53.636 41.5378C53.3711 41.7447 53.0978 41.9398 52.8162 42.1232C52.5345 42.3065 52.2453 42.4773 51.9489 42.6356C51.6524 42.794 51.3497 42.9394 51.0407 43.0716C50.7318 43.2037 50.4176 43.3223 50.0984 43.4275C49.7099 43.5947 49.3113 43.733 48.9028 43.8424C48.4942 43.9519 48.0798 44.0314 47.6598 44.0809C47.2398 44.1302 46.8183 44.1491 46.3955 44.1374C45.9727 44.1258 45.5529 44.0837 45.1362 44.0112C45.0314 43.9944 44.9273 43.9738 44.8239 43.9497C44.7205 43.9254 44.6181 43.8975 44.5167 43.8659C44.4153 43.8345 44.3152 43.7994 44.2164 43.7607C44.1174 43.722 44.02 43.6799 43.9242 43.6344C43.8283 43.5887 43.7341 43.5398 43.6417 43.4874C43.5493 43.4352 43.4588 43.3797 43.3704 43.321C43.2819 43.2623 43.1956 43.2005 43.1116 43.1357C43.0275 43.0708 42.9459 43.003 42.8667 42.9324C42.7874 42.8616 42.7108 42.7883 42.6367 42.7122C42.5627 42.636 42.4915 42.5574 42.4231 42.4762C42.3547 42.395 42.2892 42.3114 42.2267 42.2256C42.1643 42.1397 42.1049 42.0518 42.0487 41.9616C41.9925 41.8716 41.9396 41.7796 41.8899 41.6858C41.8402 41.5919 41.794 41.4964 41.7511 41.3993C41.7081 41.3021 41.6688 41.2036 41.633 41.1037C41.5971 41.0037 41.5649 40.9026 41.5362 40.8004C41.5362 40.0221 41.6335 39.0491 42.0227 38.1734ZM34.5308 35.449L34.5308 35.1572L34.3362 33.6004C34.2981 33.4742 34.2368 33.3605 34.1523 33.2592C34.0679 33.1578 33.967 33.0769 33.8497 33.0166L33.6552 33.0166C33.4606 32.7248 33.1687 32.5301 32.8768 32.4329C32.0984 32.1409 31.32 31.9464 30.4444 31.8491C28.693 31.6544 26.8444 31.6544 25.093 31.8491C23.2444 31.8491 21.6876 31.8491 20.1309 32.6274C19.9563 32.7475 19.7883 32.8761 19.6269 33.0132C19.4653 33.1504 19.3113 33.2954 19.1647 33.4483C19.018 33.6012 18.8795 33.761 18.7491 33.9281C18.6188 34.095 18.4973 34.2682 18.3847 34.4477C18.272 34.6272 18.1689 34.8118 18.0751 35.0018C17.9812 35.1917 17.8973 35.3859 17.8234 35.5845C17.7493 35.783 17.6856 35.9847 17.6323 36.1897C17.5789 36.3947 17.5361 36.6018 17.5038 36.8113C17.2119 38.2708 17.5038 39.8274 18.3795 41.0923C19.839 43.0382 22.2714 43.6221 24.5092 42.7463C24.6065 42.7463 24.8011 42.7463 24.8984 42.5517L25.1903 41.968C25.4822 41.4816 26.3579 41.6762 26.8444 41.6762C28.0119 41.6762 29.1795 41.3843 30.3471 40.9951C31.9038 40.4113 33.266 39.3409 34.1416 37.8815C34.2389 37.8815 34.3362 37.8815 34.4335 37.5897L34.5308 37.2978L34.6281 36.1302L34.5308 35.5463L34.5308 35.449ZM36.7687 45.1788C36.7687 44.3032 36.4768 43.6221 36.1849 43.0382C35.893 42.6491 35.7957 42.1626 35.3092 42.0652L34.4335 42.1626L34.1416 41.6762C33.5579 41.0923 32.3903 41.2869 31.6119 41.3843C30.1405 41.5312 28.6876 41.7841 27.2529 42.1427C25.8183 42.5012 24.4172 42.9619 23.0498 43.5247C21.3957 44.1086 19.6444 44.6923 18.4768 46.0545C18.1799 46.3428 17.9167 46.6593 17.687 47.0037C17.4575 47.3481 17.2667 47.7128 17.1146 48.0977C16.6282 50.2383 17.2119 52.9625 19.3525 54.0329C20.7146 54.6167 22.1741 54.714 23.6336 54.422C24.4119 54.422 25.093 54.1302 25.6768 53.6437L26.4552 52.8652C27.0389 52.2815 27.72 51.8923 28.4011 51.6005C30.2498 50.9193 32.0984 50.141 33.8497 49.2653C34.8227 48.7788 35.5038 47.9031 35.7957 46.8329L35.893 46.4436L36.3795 46.2491C36.5741 46.2491 36.7687 45.9571 36.9633 45.7626C36.7687 45.7626 36.866 45.3734 36.7687 45.0816L36.7687 45.1788ZM36.1849 55.8814C36.0876 55.2977 35.7957 54.6167 35.2119 54.5194L34.8227 54.5194L34.5308 54.2275L33.3633 53.8382C31.0281 53.449 28.5957 53.5464 26.2606 54.2275C24.3146 54.8112 20.7146 56.1734 20.52 58.5086C20.4227 59.4815 20.7146 60.4545 21.2984 61.1355C21.9795 62.3032 23.1471 63.0814 24.5092 63.2761C25.4822 63.2761 26.5525 62.9842 27.4281 62.595C28.4011 62.3032 29.2768 62.2058 30.1525 61.8167C30.5937 61.6663 31.0202 61.482 31.4319 61.2634C31.8438 61.0451 32.2356 60.7953 32.6075 60.5144C32.9794 60.2334 33.3267 59.9246 33.6492 59.5882C33.9719 59.2518 34.2657 58.8918 34.5308 58.5086L34.6281 58.5086C35.1146 58.5086 35.5038 58.2166 35.7957 57.9248L36.0876 57.4383C36.3795 57.0491 36.3795 56.4653 36.1849 55.8814Z"   fill="#C96328" >
</path>
</g>
<path d="M30.5417 22.9946C30.3137 22.7657 30.0769 22.5464 29.8311 22.3367C29.5853 22.127 29.3316 21.9276 29.0697 21.7383C28.8077 21.5492 28.5386 21.371 28.2623 21.2036C27.986 21.0362 27.7033 20.8803 27.4143 20.7358C27.1254 20.5913 26.8311 20.4588 26.5314 20.3381C26.2317 20.2175 25.9277 20.1092 25.6192 20.0132C25.3107 19.9171 24.9988 19.8337 24.6836 19.7629C24.3684 19.6922 24.0508 19.6343 23.7309 19.5892C23.4234 19.5309 23.1133 19.5099 22.8007 19.5264C22.4882 19.5429 22.182 19.5962 21.8823 19.6865C19.2552 20.3676 17.1147 23.8703 17.4066 26.4974C17.6985 28.1514 18.866 29.2217 20.1309 30.1947L20.5201 30.3893C20.9093 30.4865 21.1039 29.7082 21.2985 29.4163C21.5904 29.0271 21.9796 28.6379 22.3687 28.5406C22.8552 28.4433 23.3417 28.5406 23.7309 28.6379C25.2877 29.1244 26.9417 29.0271 28.4984 28.4433C28.6547 28.3651 28.8065 28.2793 28.9539 28.1857C29.1014 28.0922 29.2437 27.9914 29.3809 27.8834C29.5182 27.7753 29.6496 27.6606 29.7752 27.5392C29.9008 27.4179 30.0199 27.2904 30.1324 27.1569C30.2451 27.0234 30.3507 26.8846 30.4491 26.7404C30.5477 26.5962 30.6387 26.4474 30.722 26.2939C30.8054 26.1405 30.8808 25.9832 30.9482 25.8221C31.0157 25.661 31.0748 25.4969 31.1254 25.3298C31.32 24.9406 31.32 24.5514 31.2227 24.1622L30.639 23.2865L30.5417 22.9946Z"   fill="#F7DDC4" >
</path>
<path d="M28.5956 28.4432L29.0821 28.1514C27.5254 27.9568 26.9416 28.1514 26.5524 28.054C26.1632 27.9568 24.8983 28.054 24.4118 27.8595C23.9254 27.6649 23.3416 27.7622 22.9524 27.6649L21.201 27.373C20.3254 27.2757 19.547 26.8865 18.9632 27.2757L17.9902 27.9568C18.3333 28.441 18.7266 28.8802 19.1703 29.2745C19.6138 29.6688 20.0961 30.0079 20.6173 30.2919C21.0064 30.3892 21.201 29.6108 21.3956 29.3189C21.6875 28.9297 22.0767 28.5405 22.4659 28.4432C22.9524 28.3459 23.4389 28.4432 23.8281 28.5405C25.4821 29.1243 27.1362 29.027 28.5956 28.4432Z"   fill="#EACEB1" >
</path>
<g opacity="0.3">
<path d="M31.4169 24.1622L30.8331 23.2865L30.5412 22.9946C30.3132 22.7657 30.0763 22.5464 29.8306 22.3367C29.5848 22.127 29.331 21.9276 29.0692 21.7383C28.8072 21.5492 28.5381 21.371 28.2618 21.2036C27.9855 21.0362 27.7028 20.8803 27.4139 20.7358C27.1249 20.5913 26.8306 20.4588 26.5309 20.3381C26.2312 20.2175 25.9271 20.1092 25.6186 20.0132C25.3101 19.9171 24.9983 19.8337 24.6831 19.7629C24.3679 19.6922 24.0503 19.6343 23.7304 19.5892C23.4229 19.5309 23.1128 19.5099 22.8002 19.5264C22.4876 19.5429 22.1815 19.5962 21.8817 19.6865C21.7129 19.7838 21.5514 19.8921 21.3973 20.0114C21.2432 20.1307 21.098 20.2599 20.9615 20.3991C20.8251 20.5383 20.6988 20.686 20.5825 20.8424C20.4663 20.9988 20.3612 21.1624 20.2673 21.3332C20.1734 21.5039 20.0915 21.6803 20.0216 21.8622C19.9518 22.0442 19.8947 22.23 19.8502 22.4197C19.8057 22.6094 19.7744 22.8013 19.7562 22.9953C19.7379 23.1893 19.7329 23.3837 19.7412 23.5784C19.9358 26.9838 20.6169 26.9838 22.4655 28.5406C22.952 28.4433 23.4385 28.5406 23.8277 28.6379C25.3844 29.1244 27.0385 29.0271 28.5952 28.4433C28.7514 28.3651 28.9032 28.2793 29.0507 28.1857C29.1982 28.0922 29.3405 27.9914 29.4777 27.8834C29.615 27.7754 29.7464 27.6606 29.872 27.5392C29.9976 27.4179 30.1167 27.2904 30.2292 27.1569C30.3418 27.0234 30.4474 26.8846 30.5459 26.7404C30.6445 26.5962 30.7354 26.4474 30.8188 26.2939C30.9022 26.1405 30.9776 25.9832 31.045 25.8221C31.1124 25.661 31.1716 25.4969 31.2223 25.3298C31.4169 24.9406 31.5142 24.5514 31.4169 24.1622Z"   fill="#F8E9DB" >
</path>
</g>
<path d="M31.709 23.6757C31.4171 23.4811 31.2225 23.3838 30.9306 23.3838L30.0549 23.0919L28.5955 22.7027C27.4279 22.4108 26.0657 22.1189 24.9955 22.7027C24.8538 22.7719 24.7225 22.8571 24.6016 22.9581C24.4806 23.0592 24.3735 23.1733 24.2803 23.3004C24.1871 23.4275 24.1105 23.564 24.0504 23.7097C23.9903 23.8555 23.9486 24.0063 23.9252 24.1622C23.8279 24.746 24.0225 25.3297 24.4117 25.7189C24.6709 25.9227 24.9479 26.0984 25.2429 26.2458C25.5378 26.3932 25.8445 26.5095 26.163 26.5946C27.2333 27.0811 28.4009 27.373 29.5684 27.5676L29.9576 27.5676L30.1522 27.373C30.5414 27.1784 30.8333 26.8865 31.1252 26.4973C31.4171 26.1081 31.6117 25.6216 31.709 25.1351L31.8063 24.0649L31.709 23.6757Z"   fill="#34B9EB" >
</path>
<path d="M67.1249 38.3675L64.4006 33.3081L63.9141 32.4324L63.7195 32.1405L63.3303 31.5568L63.1357 31.2649L62.552 30.3892C62.0655 29.4162 61.2871 28.6378 60.4114 28.1514C59.4384 27.7622 58.4655 27.5676 57.3952 27.4703C55.7412 27.0811 54.0871 27.0811 52.4331 27.373C51.8586 27.5455 51.3008 27.7611 50.7595 28.0196C50.2183 28.2782 49.7001 28.5766 49.2049 28.915C48.7097 29.2534 48.2433 29.6278 47.8058 30.038C47.3683 30.4483 46.9648 30.8897 46.5952 31.3622C44.7466 33.2108 43.1898 35.2541 42.0223 37.5891L41.8277 37.9783C41.4385 38.854 41.3412 39.827 41.5358 40.7027C42.0223 42.3567 43.3844 43.6216 45.1358 43.9135L47.3736 43.9135C48.3466 43.8162 49.3195 43.5243 50.1952 43.1351C52.7249 42.2594 54.9628 40.6054 56.4222 38.3675L55.352 40.4108L54.7682 42.454L54.6709 42.8432C54.4763 43.1351 54.0871 43.1351 53.7952 43.2324L53.5033 43.427C53.2114 49.1675 54.1844 54.9081 56.3249 60.1621C54.8918 61.0815 53.4105 61.9154 51.8811 62.6638C50.3517 63.4122 48.7843 64.0703 47.179 64.6378C51.2655 65.2216 55.6439 65.4162 59.2439 63.081C61.8709 61.3297 63.5249 58.7027 64.7898 55.881C66.1519 52.9621 67.3195 50.0432 68.2925 46.9297C68.6817 45.7621 68.8763 44.5946 68.8763 43.427C68.8763 41.6756 67.9033 40.0216 67.1249 38.3675Z"   fill="#F7DDC4" >
</path>
<path d="M53.6014 45.0811L53.6014 47.8054L53.6987 48.5838L53.6987 48.7784L53.796 49.7513L54.0879 51.7946L54.0879 51.9892L54.1852 52.7675L54.2825 53.0594L54.3798 53.7405L54.4771 54.1297L54.5744 54.7135L54.6717 55.1027L54.8663 55.6865L54.9636 56.0756L55.1582 56.6594L55.2555 57.0486L55.4501 57.6324L55.5473 58.0216L55.7419 58.7027L55.8392 58.9946L56.2284 59.9675L55.1582 60.6486L55.0609 60.7459L54.1852 61.427L54.0879 61.5243L53.1149 62.1081L53.0176 62.2054L52.0446 62.6919L51.8501 62.7892L50.8771 63.2756L50.7798 63.3729L49.8068 63.8594L49.7095 63.9567L48.6392 64.3459L48.542 64.3459L47.4717 64.7351C51.5582 65.3189 55.9365 65.5135 59.5365 63.1783C60.6068 62.4973 61.5798 61.5243 62.3581 60.5513C62.2255 59.8076 62.0618 59.0708 61.8667 58.3408C61.6716 57.611 61.4461 56.8906 61.1901 56.1799C60.934 55.4691 60.6483 54.7704 60.3332 54.0838C60.018 53.3972 59.6742 52.7251 59.302 52.0677C58.9299 51.4102 58.5307 50.7696 58.1042 50.1461C57.6778 49.5224 57.2258 48.9179 56.7482 48.3325C56.2706 47.7471 55.7691 47.183 55.2437 46.6401C54.7183 46.0973 54.1709 45.5776 53.6014 45.0811ZM62.0663 33.4054C63.1365 31.5567 62.9419 31.8486 62.2609 29.9027C62.0319 29.5672 61.7698 29.26 61.4745 28.9811C61.1792 28.7022 60.8575 28.4581 60.5095 28.2486C58.8984 27.872 57.2767 27.5476 55.6446 27.2757C55.859 27.4376 56.0636 27.611 56.2583 27.7961C56.453 27.9812 56.6367 28.1768 56.8092 28.3827C56.9817 28.5887 57.142 28.8037 57.2901 29.0278C57.4383 29.252 57.5733 29.4838 57.6951 29.7232C57.8169 29.9626 57.9248 30.2082 58.0188 30.4599C58.1127 30.7116 58.1922 30.9678 58.2571 31.2285C58.322 31.4892 58.3719 31.7528 58.4068 32.0191C58.4418 32.2855 58.4617 32.553 58.4663 32.8216C58.4663 34.4757 57.0068 37.1027 56.3257 38.4648C55.6446 39.827 52.7257 45.5675 56.9095 40.3135C58.1744 38.6594 59.7311 37.6865 60.6068 36.1297L62.0663 33.4054Z"   fill="#EACEB1" >
</path>
<g opacity="0.3">
<path d="M57.493 28.5405C57.1038 28.1513 56.3254 27.2757 55.7416 27.0811C54.7686 26.9838 53.7957 27.0811 52.8227 27.2757C50.4876 27.8595 48.5416 29.5135 46.9849 31.2649C45.1362 33.1135 43.5795 35.1567 42.4119 37.4919L42.2173 37.881C41.8281 38.7567 41.7308 39.7297 41.9254 40.6054C41.9761 40.7987 42.04 40.9875 42.1172 41.1719C42.1943 41.3563 42.2839 41.5344 42.3859 41.7062C42.488 41.878 42.6016 42.0419 42.7266 42.1977C42.8516 42.3537 42.9869 42.5001 43.1324 42.6371C43.278 42.7741 43.4323 42.9002 43.5955 43.0156C43.7587 43.131 43.9292 43.2343 44.1068 43.3258C44.2846 43.4174 44.4678 43.4961 44.6565 43.5618C44.8451 43.6277 45.0375 43.6801 45.2335 43.7189C48.7362 43.5243 51.947 41.9675 54.3795 39.5351C58.3686 35.5459 59.6335 30.6811 57.493 28.5405Z"   fill="#F8E9DB" >
</path>
</g>
<path d="M46.5959 35.1568L45.7202 35.7405L43.6769 37.4919C42.9959 38.0757 42.0229 38.6595 41.731 39.6324C41.6763 39.8915 41.6572 40.1532 41.6737 40.4174C41.6902 40.6817 41.7418 40.9389 41.8283 41.1892C42.0229 42.0649 42.6067 42.8432 43.2878 43.3297C44.6499 44.2054 46.2067 43.427 47.2769 42.5514C48.3472 41.6757 49.6121 40.9946 50.1959 39.7297C50.7796 38.4649 50.0013 37.3946 49.3202 36.5189C48.6391 35.6432 47.7634 34.8649 46.6932 35.1568L46.5959 35.1568Z"   fill="#9F87BF" >
</path>
<g opacity="0.1">
<path d="M49.6115 36.7135L42.5088 42.454L43.2872 43.2324C44.6493 44.1081 46.2061 43.3297 47.2764 42.454C48.3466 41.5784 49.6115 40.8973 50.1953 39.6324C50.779 38.7567 50.1953 37.5892 49.6115 36.7135Z"   fill="#FFFFFF" >
</path>
</g>
<path d="M33.2663 32.7243L32.3906 32.2378C31.6122 31.9459 30.8339 31.7513 29.9582 31.654C28.2068 31.4595 26.3582 31.4595 24.6068 31.5568C22.7582 31.5568 21.2014 31.5568 19.6447 32.4324C19.4681 32.5502 19.2982 32.677 19.1349 32.8127C18.9717 32.9484 18.8161 33.0924 18.6681 33.2445C18.5201 33.3966 18.3805 33.5562 18.2493 33.7231C18.1182 33.89 17.9962 34.0633 17.8832 34.243C17.7704 34.4228 17.6672 34.6081 17.5739 34.7987C17.4806 34.9893 17.3976 35.1844 17.3248 35.3838C17.2521 35.5832 17.1901 35.7859 17.1387 35.992C17.0874 36.1979 17.047 36.406 17.0177 36.6162C16.7258 38.0757 17.0177 39.6324 17.8933 40.8973C19.3528 42.746 21.7852 43.427 24.0231 42.5514L24.4122 42.3568L24.7041 41.773C24.996 41.2865 25.8717 41.4811 26.3582 41.4811C27.5258 41.3838 28.6933 41.1892 29.8609 40.8C32.7798 39.7297 35.1149 37.0054 33.9474 33.7946C33.7998 33.3873 33.5727 33.0306 33.2663 32.7243Z"   fill="#F7DDC4" >
</path>
<path d="M25.5797 43.7189C26.0662 43.6216 25.4824 42.3568 25.0932 41.5784L24.8986 41.4811C25.2878 41.2865 25.9689 41.3838 26.358 41.3838C27.5256 41.2865 28.6932 41.0919 29.8607 40.7027C30.1768 40.5889 30.4832 40.4534 30.78 40.2962C31.0768 40.139 31.361 39.9616 31.6326 39.7641C31.9043 39.5665 32.1607 39.3508 32.4017 39.1169C32.6427 38.883 32.866 38.6332 33.0715 38.3676C30.5418 38.0757 29.3743 40.5081 25.4824 40.1189C23.9517 40.1163 22.4274 40.2136 20.9094 40.4108C19.4499 40.4108 18.2824 39.7297 17.7959 40.6054L17.8932 40.8C17.9906 40.9326 18.0945 41.0599 18.2048 41.182C18.3151 41.304 18.4313 41.4201 18.5535 41.5304C18.6755 41.6407 18.8029 41.7445 18.9355 41.8419C19.0682 41.9392 19.2054 42.0296 19.3472 42.113C19.4891 42.1964 19.6347 42.2725 19.7843 42.3411C19.9338 42.4097 20.0864 42.4706 20.242 42.5237C20.3978 42.5769 20.5558 42.6221 20.7161 42.6592C20.8764 42.6963 21.0381 42.7253 21.2013 42.7459L21.2986 42.7459L22.1743 42.8432L25.2878 43.6216L25.5797 43.7189Z"   fill="#EACEB1" >
</path>
<g opacity="0.3">
<path d="M33.2662 32.7243L32.3905 32.2378C31.6122 31.9459 30.8338 31.7513 29.9581 31.654C28.2068 31.4595 26.3581 31.4595 24.6068 31.5568C22.7581 31.5568 20.3257 32.4324 20.0338 35.3513C19.5473 40.8973 28.0122 40.9946 30.1527 40.5081C30.2329 40.495 30.3127 40.4799 30.3922 40.4628C30.4717 40.4457 30.5506 40.4266 30.6291 40.4055C30.7076 40.3845 30.7854 40.3615 30.8628 40.3366C30.9401 40.3116 31.0168 40.2847 31.0928 40.2559C31.1688 40.2271 31.244 40.1964 31.3184 40.1639C31.3929 40.1313 31.4665 40.0969 31.5392 40.0606C31.6119 40.0244 31.6837 39.9863 31.7545 39.9465C31.8253 39.9066 31.895 39.865 31.9638 39.8217C32.0326 39.7783 32.1001 39.7333 32.1666 39.6865C32.233 39.6398 32.2983 39.5915 32.3624 39.5414C32.4265 39.4914 32.4892 39.4398 32.5507 39.3866C32.6121 39.3335 32.6722 39.2789 32.731 39.2227C32.7897 39.1665 32.847 39.1089 32.9028 39.0499C32.9587 38.9909 33.013 38.9305 33.0658 38.8687C33.1186 38.807 33.1698 38.7439 33.2195 38.6796C33.2691 38.6152 33.3171 38.5497 33.3635 38.4831C33.4099 38.4163 33.4546 38.3485 33.4976 38.2795C33.5405 38.2105 33.5818 38.1405 33.6213 38.0694C33.6607 37.9984 33.6983 37.9264 33.7342 37.8535C33.7701 37.7806 33.8041 37.7068 33.8362 37.6322C33.8684 37.5576 33.8987 37.4822 33.9271 37.4061C33.9554 37.3299 33.9818 37.2531 34.0064 37.1757C34.031 37.0982 34.0536 37.0201 34.0742 36.9416C34.0948 36.863 34.1134 36.7839 34.13 36.7044C34.1467 36.6248 34.1614 36.5449 34.1741 36.4646C34.1868 36.3844 34.1974 36.3039 34.206 36.223C34.2146 36.1422 34.2212 36.0613 34.2258 35.9802C34.2303 35.899 34.2329 35.8178 34.2334 35.7365C34.2338 35.6553 34.2323 35.5741 34.2287 35.4929C34.2251 35.4117 34.2195 35.3307 34.212 35.2498C34.2043 35.1689 34.1946 35.0882 34.183 35.0078C34.1713 34.9274 34.1576 34.8473 34.1419 34.7676L33.85 33.7946C33.8125 33.5896 33.7439 33.3955 33.6441 33.2126C33.5443 33.0296 33.4183 32.8668 33.2662 32.7243Z"   fill="#F8E9DB" >
</path>
</g>
<path d="M26.2607 35.5459C26.2607 34.9621 26.4553 34.4756 26.8445 34.0865C26.9721 33.9559 27.1107 33.8383 27.2604 33.7337C27.41 33.6291 27.5681 33.5393 27.7346 33.4644C27.9011 33.3895 28.0731 33.3307 28.2507 33.288C28.4282 33.2454 28.6081 33.2197 28.7905 33.2108L29.958 33.0162L33.1688 32.7243L33.6553 32.8216C33.9472 32.9189 34.0445 33.2108 34.1418 33.4054C34.3364 33.8919 34.4337 34.4756 34.3364 34.9621L34.1418 37.1027L34.0445 37.3946C33.8499 37.6865 33.3634 37.7837 33.0715 37.7837C31.2834 37.9916 29.4996 37.9592 27.7202 37.6865C26.7472 37.2973 26.2607 36.4216 26.2607 35.5459Z"   fill="#5D509E" >
</path>
<path d="M20.9094 29.9027L20.2283 29.7081L19.6445 29.7081L20.2283 30.1946L20.4229 30.1946L20.6175 30.3892L20.9094 30.2919L21.104 30L21.104 29.9027L20.9094 29.9027ZM21.104 42.8432C22.4661 42.8432 23.8283 43.2324 25.1905 43.7189L25.5797 43.7189C26.0661 43.6216 25.4824 42.3567 25.0932 41.5784C24.9959 41.4811 24.8986 41.3838 24.8013 41.4811L24.704 41.4811C24.1202 42.3567 21.4932 42.7459 21.104 42.8432ZM53.6985 48.973L53.6985 48.7784L53.6985 48.973ZM53.6012 46.6378L53.6012 45.6649L53.6012 46.6378ZM53.8931 43.3297C54.185 43.2324 54.6715 43.2324 54.7688 42.9405L54.7688 42.5513C54.9036 41.8085 55.1306 41.0949 55.4499 40.4108L56.4229 38.3676C56.0873 38.9524 55.6894 39.4913 55.2293 39.9843C54.7692 40.4774 54.2589 40.9114 53.6985 41.2865L53.5039 43.427L53.8931 43.3297ZM53.6012 47.8054L53.6012 48.7784L53.6012 47.8054ZM53.6012 46.6378L53.6012 47.6108L53.6012 46.6378Z"   fill="#DDC1A8" >
</path>
<path d="M16.8226 48.0973C16.9747 47.7123 17.1655 47.3477 17.395 47.0033C17.6247 46.6589 17.8879 46.3424 18.1848 46.0541C19.3524 44.7892 21.1037 44.2054 22.7578 43.5243C25.5274 42.4731 28.3815 41.7596 31.3199 41.3838C32.0983 41.2865 33.2659 41.0919 33.8497 41.6757C34.1415 41.9676 34.3361 42.3568 34.5307 42.8432L35.3091 45.0811C35.5037 45.6649 35.5037 46.3459 35.5037 46.9297C35.2118 48 34.5307 48.8757 33.5578 49.3622C31.8064 50.2378 29.9578 51.0162 28.1091 51.6973C27.428 51.9892 26.747 52.3784 26.1632 52.9622C25.993 53.1807 25.8027 53.38 25.592 53.5599C25.3814 53.7397 25.1549 53.8966 24.9123 54.0304C24.6698 54.1642 24.4163 54.2722 24.1518 54.3545C23.8872 54.4368 23.6172 54.4916 23.3416 54.5189C21.8821 54.8108 20.4226 54.7135 19.0605 54.1297C16.9199 52.8649 16.3362 50.2378 16.8226 48.0973Z"   fill="#F7DDC4" >
</path>
<path d="M24.9956 53.7405C25.5794 53.3513 26.0659 52.8649 26.4551 52.3784L26.5524 52.2811L26.6497 52.3784C27.0389 52.6703 25.9686 53.5459 26.0659 54.0324L26.0659 54.5189C25.9686 54.7135 25.774 54.6162 25.5794 54.6162C24.3146 54.8108 24.8983 54.1297 23.6335 54.4216L24.9956 53.7405ZM33.3632 48.0973C32.7794 48.0973 25.9686 50.8216 24.9956 51.1135C23.6335 51.6973 22.2713 51.9892 20.9092 52.0865C19.3524 52.0865 18.9632 52.1838 18.4767 52.7676L17.9902 53.2541L19.0605 54.0324C20.4227 54.6162 21.8821 54.7135 23.3416 54.4216C24.12 54.4216 24.801 54.1297 25.3848 53.6432L26.1632 52.8649C26.747 52.2811 27.4281 51.8919 28.1091 51.6C29.9578 50.9189 31.8064 50.1405 33.5578 49.2649C34.1416 48.973 34.6281 48.4865 34.92 48L33.3632 48.0973Z"   fill="#EACEB1" >
</path>
<g opacity="0.3">
<path d="M35.3094 44.9838L34.531 42.7459C34.4337 42.3567 34.1418 41.9675 33.8499 41.5784C33.2662 40.9946 32.0986 41.1892 31.3202 41.2865C30.3472 41.3838 29.3742 41.4811 28.4013 41.773C26.9418 42.0648 25.4823 42.5513 24.0229 43.0378C21.2013 44.7892 20.3256 46.9297 21.0067 48.7784C21.785 51.1135 25.4823 51.6973 29.3742 50.7243C30.8337 50.1405 32.1959 50.0432 33.558 49.2648C34.531 48.7784 35.2121 47.9027 35.504 46.8324C35.504 46.1513 35.504 45.5676 35.3094 44.9838Z"   fill="#F8E9DB" >
</path>
</g>
<path d="M28.7904 43.9135C29.4715 43.3297 30.2498 42.8432 31.1255 42.7459L33.8498 42.1622L35.1147 41.9676C35.4066 42.0649 35.6985 42.454 35.9904 42.9405C36.3796 43.6216 36.5742 44.3027 36.5742 44.9838L36.4769 45.7622L35.8931 46.2486L34.4336 46.8324L32.0985 47.5135C31.1255 47.7081 30.0553 48 29.1796 47.4162C28.7904 47.1243 28.4985 46.6378 28.4012 46.1513C28.3554 45.9822 28.3251 45.8103 28.3103 45.6357C28.2955 45.461 28.2963 45.2865 28.313 45.112C28.3296 44.9376 28.3616 44.766 28.4092 44.5973C28.4567 44.4287 28.5189 44.2656 28.5958 44.1081L28.7904 43.9135Z"   fill="#41439A" >
</path>
<g opacity="0.4">
<path d="M36.4768 44.0108L28.5957 46.2486C28.693 46.6378 28.9849 47.027 29.2768 47.3189C30.0552 48 31.2227 47.7081 32.1957 47.4162L34.5308 46.7351L35.9903 46.1513L36.5741 45.6649L36.6714 44.8865L36.4768 44.0108Z"   fill="#FFFFFF" >
</path>
</g>
<path d="M34.4336 54.1297L33.266 53.7405C30.9309 53.3514 28.4984 53.4487 26.1633 54.1297C24.2173 54.7135 20.6173 55.9784 20.4227 58.4108C20.3254 59.3838 20.6173 60.2595 21.2011 61.0378C21.8822 62.2054 23.0498 62.9838 24.4119 63.1784C25.3849 63.1784 26.4552 62.8865 27.3308 62.4973C28.3038 62.2054 29.1795 62.1081 30.0552 61.7189C32.0011 61.0378 33.6551 59.773 34.7255 58.1189C35.1146 57.5351 35.4065 56.7568 35.4065 55.9784C35.4065 55.2 35.0173 54.5189 34.4336 54.1297Z"   fill="#F7DDC4" >
</path>
<path d="M30.8337 60.3567C29.1797 60.9405 27.8175 61.0378 26.3581 61.427C24.8986 61.8162 23.4391 60.2594 22.5635 62.4C23.05 62.7892 23.731 63.0811 24.4121 63.0811C25.3851 63.0811 26.4554 62.7892 27.331 62.4C28.304 62.1081 29.1797 62.0108 30.0554 61.6216C30.4577 61.484 30.848 61.318 31.2261 61.1236C31.6043 60.9292 31.9664 60.7085 32.3124 60.4613C32.6583 60.2142 32.9846 59.9433 33.2912 59.6486C33.5976 59.354 33.8812 59.0387 34.1418 58.7027C32.877 59.4811 31.6121 60.0648 30.8337 60.3567Z"   fill="#EACEB1" >
</path>
<g opacity="0.3">
<path d="M34.4335 54.1297L33.266 53.7405C30.9308 53.3514 28.5957 53.4487 26.3579 54.1297C24.8011 55.4919 24.0227 57.0487 24.5092 58.4108C25.093 60.4541 27.3309 62.4973 31.9038 60.9405C32.492 60.5883 33.0325 60.1739 33.5254 59.6974C34.0183 59.2209 34.4508 58.6948 34.8227 58.1189C35.2119 57.5351 35.5038 56.7568 35.5038 55.9784C35.4065 55.2973 35.0173 54.5189 34.4335 54.1297Z"   fill="#F8E9DB" >
</path>
</g>
<path d="M28.693 57.5351C29.0822 58.3135 29.8606 58.8973 30.7362 58.9946C31.32 59.0919 31.9038 59.0919 32.4876 58.8973L34.5308 58.4108C35.0173 58.3135 35.4065 58.1189 35.6984 57.827L35.9903 57.3405C36.1849 56.7567 36.1849 56.173 35.9903 55.6865C35.893 55.1027 35.6011 54.4216 35.0173 54.3243L34.0443 54.3243C33.0714 54.4216 32.1957 54.8108 31.2227 55.0054C30.6357 55.0989 30.0843 55.2935 29.5687 55.5892C29.442 55.6594 29.3246 55.7426 29.2166 55.839C29.1085 55.9354 29.0124 56.0425 28.9283 56.1603C28.8441 56.2781 28.7739 56.4037 28.7178 56.5372C28.6617 56.6707 28.621 56.8088 28.5957 56.9513L28.693 57.5351Z"   fill="#005C9F" >
</path>
<g opacity="0.3">
<path d="M24.0225 23.9676L23.9252 24.1622C23.8279 24.7459 24.0225 25.3297 24.4117 25.7189C24.6667 25.9401 24.9417 26.1327 25.2367 26.2966C25.5318 26.4605 25.8405 26.5923 26.163 26.6919L29.5684 27.6649L29.9576 27.6649L30.1522 27.373C30.5414 27.1784 30.8333 26.8865 31.1252 26.4973L31.4171 25.9135L24.0225 23.9676ZM26.2603 35.8378C26.3576 36.6162 26.8441 37.2973 27.6225 37.7838L28.79 37.8811L32.9738 37.8811C33.2657 37.6865 33.7522 37.6865 33.9468 37.3946L34.0441 37.1027L34.2387 35.1568L26.2603 35.8378ZM28.79 57.6324C29.1792 58.4108 29.9576 58.8973 30.736 58.9946L32.4873 58.9946L34.5306 58.4108C35.0171 58.4108 35.4063 58.1189 35.6982 57.827L35.99 57.3405C36.1846 56.854 36.1846 56.3676 36.0873 55.8811L28.79 57.6324Z"   fill="#FFFFFF" >
</path>
</g>
</svg>
