<svg t="1710837225745" class="icon" viewBox="0 0 1052 1024" version="1.1" xmlns="http://www.w3.org/2000/svg" p-id="2885" width="200" height="200"><path d="M0 0h1052.912941v1024H0V0z" p-id="2886"></path><path d="M541.587576 78.763671c38.430118 14.817882 76.739765 30.599529 115.001224 45.947482-30.695906 31.177788-61.680941 62.186918-92.882824 92.882823-4.023718-21.251012-7.734212-42.863435-10.288188-64.3072-5.541647-24.431435-8.842541-49.657976-11.830212-74.523105z" fill="#EE2223" p-id="2887"></path><path d="M446.777224 201.643671c16.914071 9.8304 36.0448 22.238871 51.248188 34.478682 52.910682-0.024094 105.845459 0 158.756141 0 17.2032-12.625318 35.852047-23.058071 52.693835-36.117082 0.192753 128.734871 0.192753 257.493835 0 386.2528-14.986541-10.745976-30.792282-20.239059-45.610164-31.225977-6.433129-5.059765-12.938541-3.373176-20.552283-3.6864-45.778824 0.168659-91.581741 0.144565-137.360565 0-3.734588 0.216847-7.083671-0.216847-10.288188 2.096188-16.576753 10.577318-32.984847 21.491953-49.007435 32.912565-0.289129-122.374024 0-244.748047-0.168659-367.097976 0-5.903059-0.072282-11.733835 0.28913-17.6128zM236.3392 218.099953c15.082918 10.215906 30.430871 20.022212 45.369224 30.479059 3.035859 1.831153 5.951247 4.5056 9.637647 4.481506 14.504659 0.505976 29.105694 0.168659 43.610353 0.192753 5.083859 0.216847 8.697976-1.542024 12.769882-4.288753 15.372047-10.505035 30.840471-20.913694 46.573929-30.840471 0.216847 146.058541 0.192753 292.141176 0.024094 438.199718-17.540518-11.926588-35.249694-23.684518-53.199811-34.984659-0.024094-5.782588-0.072282-11.565176-0.144565-17.347765-17.395953 0.120471-34.791906 0-52.163765 0 0.144565 17.540518 0.096376 35.105129 0.048188 52.669741-17.877835 11.155576-35.153318 23.106259-52.766117 34.671436 0.313224-157.720094-0.144565-315.536565 0.240941-473.232565z" fill="#221E1F" p-id="2888"></path><path d="M498.748235 252.891859c53.007059 0.048188 106.014118 0 159.021177 0.024094v70.258447c-53.031153 0.096376-106.062306 0.048188-159.093459 0 0.168659-23.419482 0.024094-46.863059 0.072282-70.282541zM289.394447 271.251576c17.179106-0.771012 34.478682 0.024094 51.705977-0.265035-0.096376 105.050353 0.024094 210.076612-0.072283 315.126965-17.420047 0-34.840094-0.072282-52.236047 0.024094 0.265035-94.979012 0.048188-189.982118 0.096377-284.961129 0.120471-9.926776-0.505976-20.046306 0.505976-29.924895zM498.796424 341.100424c52.597459-0.289129 105.194918 0.024094 157.792376-0.144565-0.072282 34.912376 0.120471 69.848847-0.096376 104.761223-52.573365 0.240941-105.170824-0.120471-157.744189 0.192753 0.024094-34.936471-0.048188-69.872941 0.048189-104.809411zM499.181929 463.932235c52.308329-0.915576 105.074447-0.096376 157.455059-0.385506-0.096376 23.371294-0.048188 46.718494-0.048188 70.089789-52.597459-0.216847-105.194918 0.168659-157.768282-0.192753 0.144565-23.130353-0.602353-46.405271 0.361411-69.51153z" p-id="2889"></path><path d="M621.893271 568.717553c11.420612 8.505224 23.130353 16.649035 34.093176 25.732518 10.577318 7.854682 22.022024 15.1552 31.563294 24.238682 1.469741 1.011953 1.927529 2.337129 1.397459 4.023718-10.143624 8.071529-21.395576 14.914259-32.599341 21.395576-5.059765 4.144188-10.312282 8.023341-15.588894 11.854306 22.961694 0.385506 45.923388 0.096376 68.885082 0.168659-0.048188 5.951247-0.072282 11.926588-0.096376 17.877835-39.899859-0.096376-79.823812 0-119.723671-0.048188-12.504847 40.743153-31.563294 81.606776-59.392 114.206117-17.492329 19.106635-37.731388 37.875953-60.741271 50.067577-21.275106 12.022965-44.6464 20.504094-68.547764 25.443388-5.107953 1.060141-10.215906 1.011953-15.396141 0.987859 8.770259-6.505412 17.998306-12.601224 27.828705-17.347765 14.070965-11.661553 28.069647-23.130353 40.309459-36.791717 13.613176-13.830024 23.491765-29.539388 34.044988-45.658353 16.118965-26.286682 26.166212-54.838212 34.382306-84.3776l1.084236-6.505412c-25.612047 0-51.248188-0.024094-76.860236 0-0.024094-5.951247-0.024094-11.8784-0.024094-17.829647 26.768565-0.024094 53.537129 0 80.329788 0 0.795106-3.132235 1.6384-6.240376 2.529883-9.324424 0.722824-5.059765 1.373365-10.095435 2.57807-15.058823 0.939671-15.058824 0.674635-29.515294 3.084047-44.477741 23.467671 3.373176 46.067953 11.974776 69.391059 16.335811-2.722635 17.757365-5.493459 35.056941-10.215906 52.452895 15.010635 0.144565 29.997176 0 45.007812 0.144564-0.4096-3.806871-0.8192-7.637835-1.276988-11.420612-2.337129-7.902871-3.927341-15.9744-5.011577-24.142305-2.843106-7.806494-3.830965-15.878024-4.746541-24.070024-2.939482-9.131671-4.264659-18.528376-6.288564-27.876894z" fill="#221E1F" p-id="2890"></path><path d="M596.739012 704.271059c17.323671 20.937788 35.153318 40.429929 58.524612 54.862306 33.490824 21.275106 73.728 30.406776 113.17007 26.503529-11.203765 23.539953-23.636329 46.405271-34.52687 70.089788-24.527812-5.059765-49.417035-15.179294-67.102118-33.466729-12.601224-12.793976-25.949365-24.407341-35.032847-39.514353-5.7344-9.782212-11.733835-19.347576-16.600847-29.611671-7.445082-15.227482-16.263529-31.924706-18.432-48.86287z" fill="#221E1F" p-id="2891"></path></svg>