<svg t="1715044801807" class="icon" viewBox="0 0 1024 1024" version="1.1" xmlns="http://www.w3.org/2000/svg" p-id="2607" width="200" height="200"><path d="M910.225472 883.986688l-3.437076 3.437076A463.347093 463.347093 0 0 1 758.811306 987.391484a466.272264 466.272264 0 0 1-362.209304 0 458.154914 458.154914 0 0 1-147.977089-99.96772 454.937226 454.937226 0 0 1-99.967721-147.392056c-14.296773-34.8461-25.704941-70.825704-30.860554-107.975376-2.303572-16.015311 20.000857-19.415823 27.423478-20.549326 17.697285-2.852042 29.690486-1.718538 31.994059 11.444732 0.585034 0.585034 0.585034 1.133504 0.585034 2.303572 2.303572 11.444732 8.007656 45.705797 26.289974 90.826561 18.867353 46.839301 48.00937 90.278091 86.841016 129.109736a404.441461 404.441461 0 0 0 129.109736 86.841016c49.691343 21.134361 102.819762 31.994058 157.666719 31.994058 54.261923 0 107.426906-10.859697 157.66672-31.994058a408.207619 408.207619 0 0 0 128.561267-86.841016l3.437076-3.437076a13.199834 13.199834 0 0 1 14.296773-3.437076c5.155614 1.133504 11.444732 5.704084 18.867353 12.578236 18.282319 18.867353 14.296773 28.008513 9.726194 33.127562z m-269.664205-351.386171l-37.698142 37.698142 35.979604 35.979604c3.985546 3.985546 11.444732 12.578235-3.985545 28.008512-6.289118 6.289118-12.578235 9.726194-18.282319 9.726194-3.985546 0-7.422622-1.718538-10.859698-5.704084l-35.431134-34.8461-37.698142 37.698142a12.249154 12.249154 0 0 1-8.556125 2.852042c-5.155614 0-11.444732-2.852042-17.697285-9.141159l-1.133504-1.133504c-3.985546-3.437076-10.274663-9.726194-10.274663-16.563781 0-3.437076 1.718538-6.289118 4.57058-9.726194l37.698142-37.149672-37.698142-37.698142c-6.289118-6.289118-3.437076-14.296773 8.007656-25.70494 6.837587-6.837587 12.578235-10.274663 17.697284-10.274664 2.852042 0 5.155614 1.133504 7.422622 2.852042l37.149672 37.698142 37.149672-37.149672c6.289118-6.289118 16.563781-3.437076 27.423479 7.422621 6.837587 6.837587 14.296773 16.563781 6.289117 25.156471z m269.079171 32.579093a337.857255 337.857255 0 0 1-26.289975 130.279805c-17.148815 40.001714-41.135218 75.432848-71.995772 106.256838s-66.840158 54.846957-106.841872 71.995772c-41.135218 17.697285-85.122477 26.289975-130.279805 26.289975s-89.144587-8.556125-130.279805-26.289975c-40.001714-17.148815-75.981318-41.135218-106.841873-71.995772s-54.846957-66.291689-71.410738-106.256838a186.699042 186.699042 0 0 1-8.556125-22.852899h-0.585034c-5.155614-16.015311 17.697285-22.852899 24.571437-25.156471 16.563781-5.155614 29.142016-7.422622 34.29763 6.837587 13.711739 36.564638 34.8461 71.995772 55.431991 95.397141h0.585035v-194.816391a191.854656 191.854656 0 0 1 58.284033-132.546813 204.944796 204.944796 0 0 1 144.540014-58.832503c111.997486 0 202.824047 90.278091 202.824046 201.105509 0 111.997486-91.411595 202.824047-202.824046 202.824047a201.580849 201.580849 0 0 1-63.988117-9.141159c-2.852042-1.133504-16.015311-6.837587-7.422621-34.8461 2.303572-7.422622 9.141159-29.142016 25.15647-24.571437 1.133504 0 29.142016 6.837587 43.98726 6.837587 79.418394 0 141.687972-61.684544 141.687972-140.554468a136.020453 136.020453 0 0 0-41.135218-97.700713c-26.289975-26.289975-61.684544-40.550184-99.96772-40.550183a133.643752 133.643752 0 0 0-101.686258 45.705797c-22.852899 25.704941-36.564638 60.002571-36.564638 91.411595v235.951609a263.557911 263.557911 0 0 0 138.250896 38.283176c73.129276 0 143.95498-29.142016 194.816391-80.003428a272.406553 272.406553 0 0 0 80.003428-193.097853c0-73.129276-28.556982-141.687972-80.551897-193.682888-51.409881-51.409881-119.968577-80.003428-193.682888-80.003428s-142.821476 28.556982-194.267921 80.003428c-0.585034 0.585034-33.127562 34.29763-43.98726 49.691343l-1.133504 1.133504c-6.837587 9.726194-13.126705 18.867353-41.720252 12.578236-14.296773-3.437076-29.690486-11.993201-29.690486-24.571437V21.792524c0-10.274663 8.007656-21.719395 21.719395-21.719395H785.137846c17.148815 0 17.148815 23.986403 17.148815 31.409024 0 8.007656 0 31.409024-17.148815 31.409024H321.790753v275.953323h0.585034c31.994058-33.712596 87.426049-69.14373 119.968578-82.855469a341.879365 341.879365 0 0 1 131.961778-26.289975c45.120763 0 89.144587 8.556125 130.279805 26.289975a338.8445 338.8445 0 0 1 178.837645 178.25261 340.599603 340.599603 0 0 1 26.289974 130.828275z m-17.697285-331.933784c10.859697 9.726194 3.437076 20.000857-7.422621 32.579092-6.837587 6.837587-14.296773 14.845243-22.267865 14.845243a12.13946 12.13946 0 0 1-9.141159-3.985545c-41.135218-35.431134-78.28489-59.417537-118.250039-75.981318-49.691343-21.719395-102.819762-31.994058-157.666719-31.994058a431.097082 431.097082 0 0 0-149.695628 28.008512c-14.845243 5.704084-22.852899-13.711739-25.704941-21.13436-3.437076-9.141159-5.155614-16.563781-4.57058-21.719395 1.133504-5.704084 3.985546-9.726194 9.14116-11.444732C453.204062 121.869938 517.192179 109.840173 577.19475 109.840173c62.269579 0 123.405653 12.578235 180.519617 36.564638 52.543385 22.267865 95.397141 49.691343 134.265351 86.841015z" fill="" p-id="2608"></path></svg>