<svg xmlns="http://www.w3.org/2000/svg" xmlns:xlink="http://www.w3.org/1999/xlink" width="200" height="200" viewBox="0 0 200 200" fill="none">
<path     fill="#FFFFFF"  d="M0 200L200 200L200 0L0 0L0 200Z">
</path>
<rect x="2" y="3" width="197" height="195"   fill="#90C751" >
</rect>
<path d="M124.651 63.1228C122.159 62.5249 120.697 59.9003 121.03 56.578C121.428 52.6909 124.85 50.6976 129.07 51.8605C131.993 52.6909 133.322 55.5482 132.558 59.3023C131.894 62.5913 128.737 64.0863 124.651 63.1228Z"   fill="#ECCB47" >
</path>
<rect x="34" y="44" width="130" height="115"   fill="#FFFFFF" >
</rect>
<path d="M92.1929 197.674C91.8272 197.508 90.5317 197.375 89.3024 197.375C88.1063 197.342 86.3788 197.209 85.4817 197.009C84.6181 196.843 82.2593 196.379 80.2327 196.013C75.2493 195.05 66.9769 192.624 63.5218 191.129C39.6015 180.697 23.3224 165.648 12.4254 143.854C10.6978 140.398 9.30248 137.475 9.30248 137.309C9.30248 137.176 8.83736 135.947 8.30582 134.584C7.2427 131.993 4.98355 124.385 4.38555 121.262C4.18621 120.266 3.92043 119.003 3.82076 118.438C2.65797 112.757 2.2593 108.106 2.22607 100.498C2.22607 94.1192 2.59152 88.6044 3.2892 84.7173C3.48854 83.7206 3.75432 81.9931 3.95365 80.8968C4.38555 78.1392 5.68123 73.322 7.27592 68.7704C10.9636 58.0396 16.4121 48.0728 23.2228 39.5347C26.5118 35.4149 34.8839 27.0429 38.8706 23.8868C52.0599 13.4217 67.3091 6.6443 83.721 3.95328C92.6911 2.49148 106.777 2.49148 115.449 3.95328C119.635 4.65096 126.279 6.17918 129.402 7.17586C154.12 15.1161 175.216 33.1558 187.01 56.478C191.628 65.5812 194.983 76.5114 196.313 86.5446C196.512 88.0063 196.811 90.3983 197.01 91.8603C197.441 95.1825 197.441 105.913 197.043 108.903C196.844 110.133 196.545 112.392 196.346 113.953C194.086 131.295 185.881 149.701 174.219 163.455C170.997 167.309 163.123 174.883 160.332 176.91C159.07 177.84 157.276 179.202 156.312 179.967C153.821 181.927 147.375 185.747 142.691 188.04C131.993 193.222 121.761 196.146 109.801 197.408C105.449 197.873 93.0565 198.072 92.1929 197.674ZM157.608 153.488C159.934 152.591 161.562 150.83 162.259 148.405C162.724 146.777 162.791 142.325 162.791 107.01C162.791 71.9931 162.724 67.4747 162.292 67.6409C161.861 67.8069 161.794 67.0429 161.794 61.9267C161.794 54.4847 161.163 51.8935 158.837 49.4017C156.777 47.1757 161.761 47.3419 100.665 47.2423C61.03 47.1757 44.9835 47.2423 44.02 47.5079C40.4319 48.5046 38.4054 51.2622 37.8739 55.8802C37.4419 59.5347 37.4419 66.013 37.8739 66.2788C38.4054 66.611 38.2394 67.3419 37.6081 67.5081C37.1763 67.6409 36.9104 68.106 36.7774 68.9698C36.6446 69.7007 36.545 86.9433 36.545 107.309C36.545 150.066 36.5118 149.435 39.1362 151.927C39.6679 152.425 40.8306 153.123 41.7276 153.488C43.3224 154.119 44.9835 154.119 99.5683 154.152C155.382 154.152 155.814 154.152 157.608 153.488Z"   fill="#90C751" >
</path>
<path d="M149.003 63.0231C146.844 61.9932 145.847 60.1661 145.847 57.2757C145.847 54.4516 147.109 52.6245 149.634 51.827C151.262 51.2956 153.854 51.5946 155.249 52.4583C156.91 53.4883 157.475 54.7507 157.475 57.3753C157.475 60.0995 156.777 61.661 155.216 62.5581C153.787 63.3885 150.365 63.6212 149.003 63.0231Z"   fill="#DA575D" >
</path>
<path d="M137.01 63.2227C136.611 63.1561 135.714 62.5914 135.017 61.9934C133.787 60.9303 133.787 60.8971 133.621 58.0398C133.488 55.5482 133.555 55.0498 134.186 54.0531C135.149 52.4584 136.678 51.8271 139.468 51.8271C143.588 51.8271 145.316 53.7873 145.083 58.073C144.95 60.299 144.851 60.598 143.821 61.6611C142.292 63.2227 139.867 63.7873 137.01 63.2227Z"   fill="#21A6AF" >
</path>
<path d="M87.2095 134.551C87.1429 134.452 90.8306 124.119 95.4153 111.628C99.9669 99.1027 103.821 88.5047 103.954 88.0396C104.186 87.2424 104.352 87.2092 106.977 87.1094C110.499 86.9766 110.731 87.0762 110.266 88.2723C110.067 88.7705 106.246 99.2025 101.794 111.462C97.3423 123.721 93.5882 133.953 93.422 134.219C93.1896 134.618 92.4585 134.717 90.1995 134.717C88.6048 134.717 87.2759 134.651 87.2095 134.551ZM68.2726 118.571C60.5981 114.352 53.9868 110.697 53.555 110.432C53.0565 110.099 52.8239 109.634 52.8239 108.87C52.8239 107.807 52.9569 107.707 57.2095 105.415C59.6347 104.119 66.3124 100.498 72.0599 97.3752C77.8073 94.2855 82.5915 91.7937 82.7243 91.8604C82.9901 92.0264 82.8905 98.4715 82.5915 98.9367C82.4917 99.1027 78.505 101.395 73.7542 104.02C69.0034 106.644 65.1163 108.97 65.1163 109.169C65.1163 109.369 65.6812 109.8 66.3788 110.099C67.0433 110.398 71.0632 112.558 75.2493 114.917C82.3257 118.837 82.8905 119.203 82.8573 120.033C82.8573 120.531 82.8239 122.126 82.7907 123.588C82.7575 125.05 82.6247 126.246 82.4917 126.246C82.3257 126.246 75.947 122.79 68.2726 118.571ZM116.611 122.658L116.611 119.07L125.582 114.119C130.532 111.395 134.419 109.036 134.286 108.904C134.153 108.771 130.133 106.512 125.415 103.887L116.777 99.1359L116.678 95.3818C116.645 93.2557 116.711 91.6941 116.877 91.7605C117.043 91.7937 123.787 95.4482 131.86 99.8004C141.063 104.784 146.578 107.973 146.711 108.372C146.811 108.704 146.811 109.236 146.711 109.568C146.611 109.867 144.02 111.495 140.93 113.189C137.874 114.884 131.296 118.505 126.279 121.229C121.263 123.987 117.043 126.246 116.91 126.246C116.744 126.246 116.611 124.618 116.611 122.658ZM99.3356 67.4416L36.711 67.2756L36.6114 62.6243C36.4784 56.2456 36.9436 52.5911 38.1063 50.4316C39.1362 48.5048 40.9304 47.1093 43.0233 46.5114C43.9868 46.2456 60.2991 46.1792 100.665 46.2456C152.425 46.3452 157.043 46.3784 157.974 46.9101C160.133 48.106 161.761 50.5978 162.425 53.8202C162.924 56.0462 162.791 67.5414 162.292 67.5746C162.126 67.6078 133.787 67.5414 99.3356 67.4416ZM129.236 61.6277C129.701 61.395 130.332 60.93 130.631 60.5646C131.263 59.8669 131.794 57.7073 131.628 56.4116C131.462 55.0827 129.635 53.2888 127.974 52.857C124.585 51.9267 121.329 55.3154 122.259 58.7372C123.057 61.7605 126.312 63.0894 129.236 61.6277ZM140.532 62.1259C143.356 61.3286 144.917 57.9732 143.621 55.4814C141.894 52.1591 137.11 51.9267 135.183 55.0495C134.585 56.013 134.485 56.5114 134.651 58.0728C134.817 59.7339 134.983 60.0993 136.047 61.0296C137.143 61.9599 137.741 62.2257 139.037 62.4249C139.236 62.4249 139.9 62.2921 140.532 62.1259L140.532 62.1259ZM154.319 61.4946C156.312 60.3652 157.11 56.9765 155.847 55.0495C153.987 52.1925 150.332 51.8935 148.173 54.3851C146.478 56.312 146.445 58.538 148.073 60.498C149.767 62.4913 151.993 62.857 154.319 61.4946Z"   fill="#2F4C5A" >
</path>
</svg>
