<svg t="1713433645761" class="icon" viewBox="0 0 1073 1024" version="1.1" xmlns="http://www.w3.org/2000/svg" p-id="3517" width="200" height="200"><path d="M1004.377093 978.213216c-6.540969-6.315419-59.545374-59.319824-117.962996-117.511894l-106.008811-105.55771-0.451101-191.041409-0.676652-190.815859-4.962114 5.187665c-2.932159 2.706608-6.089868 4.962115-7.443172 4.962114-1.127753 0-2.255507 1.578855-2.255507 3.38326s-1.578855 3.38326-3.38326 3.38326-4.285463 2.029956-5.638766 4.511013-20.976211 22.780617-43.531278 45.110133c-57.96652 57.515419-66.762996 66.086344-121.120705 120.669603-26.614978 26.614978-50.072247 48.493392-51.876652 48.493392s-40.82467-37.44141-86.385903-83.453744l-83.002643-83.453745 94.280176-94.505727c90.896916-91.122467 154.502203-155.855507 164.426432-167.35859 4.511013-5.187665 26.614978-27.29163 35.411454-35.411454 2.255507-2.255507 20.750661-20.074009 40.824669-39.922467 20.299559-19.848458 42.403524-41.275771 48.944494-47.365638 6.76652-6.315419 13.75859-13.75859 15.562995-16.239648 1.804405-2.706608 6.089868-5.638767 9.473128-6.540969 5.864317-1.353304 12.630837 5.187665 95.63348 88.415859 49.170044 49.621145 99.693392 100.595595 112.324229 113.677533 12.405286 12.856388 24.810573 24.585022 27.29163 25.938326 2.255507 1.353304 5.187665 5.864317 6.089868 10.14978 2.706608 12.179736 1.127753 715.672247-1.578855 716.348898-1.127753 0.451101-7.443172-4.511013-13.98414-11.051982z" fill="#EB8903" p-id="3518"></path><path d="M58.643172 630.865198V271.337445l119.54185-119.767401 119.54185-119.767401 9.473128 8.345375c13.984141 12.179736 225.099559 223.520705 225.099559 225.099559 0 0.676652-38.118062 39.245815-84.581497 85.483701l-84.581498 84.355947-29.547137-29.321586c-16.465198-16.239648-30.67489-29.547137-31.802643-29.772687-1.353304-0.225551-2.029956 76.236123-1.804405 187.432599l0.225551 188.109251-119.090749 119.316299c-65.409692 65.635242-119.767401 119.3163-120.669604 119.3163-1.127753 0-1.804405-161.719824-1.804405-359.302203z" fill="#367FB0" p-id="3519"></path><path d="M365.16652 618.685463c-0.225551-1.353304-0.225551-65.860793 0.22555-161.945375 0-5.864317 8.119824 1.578855 83.453745 76.687225 45.786784 45.786784 83.002643 83.679295 82.551542 83.904846-1.578855 1.804405-166.005286 2.932159-166.230837 1.353304z" fill="#367FB0" p-id="3520"></path></svg>