<svg t="1714471109409" class="icon" viewBox="0 0 1024 1024" version="1.1" xmlns="http://www.w3.org/2000/svg" p-id="11412" width="200" height="200"><path d="M418.304 819.413333c-4.778667-4.736-7.936-11.093333-12.672-15.872-37.930667-38.144-96.384-57.173333-175.36-57.173333-77.482667 0-135.936 19.029333-173.866667 57.173333-4.736 4.778667-7.893333 9.514667-12.629333 15.872z m122.88-1.877333V220.330667h126.250667V294.4c17.322667-29.952 37.845333-52.010667 63.104-67.754667a173.098667 173.098667 0 0 1 86.784-22.058666c64.682667 0 115.2 22.058667 151.466666 64.597333 36.266667 42.538667 55.210667 102.4 55.210667 178.048 0 74.069333-18.944 132.352-55.210667 176.469333-36.266667 44.117333-85.205333 66.176-145.152 66.176-36.309333 0-66.304-6.272-91.52-20.48-25.258667-12.586667-47.36-34.645333-64.682666-63.018666 1.578667 11.050667 3.114667 23.637333 3.114666 37.802666 0 12.629333 1.578667 28.373333 1.578667 45.696v126.08h-130.944z m119.893333-370.304c0 40.96 9.472 72.490667 29.994667 96.128 20.522667 22.058667 48.938667 34.645333 83.626667 34.645333 36.266667 0 64.682667-11.008 83.626666-34.645333 20.48-22.058667 29.994667-55.168 29.994667-96.128 0-40.96-9.472-72.490667-29.994667-96.128-20.48-23.637333-48.896-34.645333-85.205333-34.645333-34.688 0-63.104 12.586667-83.626667 36.266666-18.944 20.48-28.373333 53.546667-28.373333 94.506667zM329.813333 221.909333v237.952c0 39.381333-7.893333 67.754667-23.68 85.077334-15.786667 17.322667-41.002667 26.794667-75.733333 26.794666-34.688 0-59.946667-7.893333-75.733333-25.216-15.786667-17.365333-23.68-45.696-23.68-86.656V221.866667H0v237.952c0 70.869333 14.208 122.88 42.581333 160.725333 4.736 4.693333 7.893333 11.008 12.629334 15.744 37.888 37.802667 96.256 56.746667 175.146666 56.746667 77.312 0 135.68-18.944 173.568-56.746667 4.693333-4.736 7.893333-9.472 12.629334-15.786667 28.373333-37.802667 42.581333-91.392 42.581333-160.682666V221.866667z" p-id="11413"></path></svg>