<svg t="1714470584711" class="icon" viewBox="0 0 1024 1024" version="1.1" xmlns="http://www.w3.org/2000/svg" p-id="6708" width="200" height="200"><path d="M1009.03 1010.09c-323.59 0-647.19-0.23-970.78 0.55-19.9 0.05-24.04-4.09-23.99-23.99 0.77-323.59 0.55-647.19 0.55-970.78 8.6-4.97 18.03-2.63 27.05-2.64 312.92-0.13 625.85-0.12 938.77-0.1 31.1 0 31.15 0.05 31.15 31.15 0.01 312.92 0.03 625.85-0.1 938.77-0.01 9.02 2.32 18.44-2.65 27.04z" fill="#6C63FE" p-id="6709"></path><path d="M1009.03 1010.09c0-321.06-0.3-642.11 0.58-963.17 0.07-25.21-6.44-31.71-31.64-31.64-321.05 0.88-642.11 0.58-963.17 0.58-1.89-8.82 4.93-5.4 8.29-5.4 325.88-0.13 651.77-0.04 977.65-0.45 11.86-0.02 14.16 2.29 14.14 14.14-0.42 325.88-0.33 651.77-0.45 977.65 0.01 3.36 3.42 10.18-5.4 8.29z" fill="#FEFEFE" p-id="6710"></path><path d="M771.32 650.9c-53.07 34.92-55.87 33.99-74.65-24.28-2.77-8.59-5.94-17.06-11.13-31.87-5.11 24.34-11.42 42.37-12.12 60.61-0.94 24.51-12.86 31.78-34.62 29.9-4.98 2.2-9.51 5.54-14.52 7.36-39.59 14.32-60.52 0.85-68.89-43.78-2.06-36.31 8.72-64.93 41.32-86.58 36.06-23.94 54-61.02 60.86-103.9 3.09-19.32-2.83-26.93-22.17-28.25-33.89-2.32-33.84-3.04-53.22-23.09-5.58 17.35-18.49 19.91-33.58 16.76-22.81-4.77-29.5-22.51-34.94-47.77-2.13 19.19-2.1 34.25-13.92 44.42-13.03 11.2-29.13 9.59-44.66 9.78-20.2 0.24-40.45 0.83-60.6-0.1-21.36-0.98-28.35 9.38-25.33 28.64 5.71 36.32 19.75 68.48 47.4 93.92 28.37 26.11 30.71 34.96 11.48 68.74-12.1 21.26-18.82 49.03-49.53 53.71-7.32-0.71-14.66-1.2-21.94-2.18-60.87-8.16-70.86-19.2-70.92-80.21-0.06-60.52-8.5-120.75-0.7-181.62C299.8 295.28 391.8 208.13 508.07 206.5c62.44-0.88 109.52 31.83 148.18 78.41 29.11 35.07 45.32 77.48 67.18 116.69 1.67 1.99 4.4 3.23 4.48 6.34 4.35 16.15 12.49 30.44 21.64 44.24 16.5 10.82 23.54 25.89 20.46 45.51 12.8 35.16 26.28 70.16 24.66 108.6 12.18 25.3-3.97 35.8-23.35 44.61zM721.82 816.74c31.05 55.47 29.65 60.03-26.72 87.54-189.63 92.54-435.7 19.02-543.66-161.78-8.39-14.05-7.74-20.2 6.04-30.22 46.06-33.51 95.82-38.93 149.21-24.71 16.84 4.48 33.47 9.76 50.19 14.67 13.45-1.8 25.12 2.8 36.26 9.78 13.21 8.28 27.71 14.59 40.36 23.55 47.47 33.62 97.39 32.37 149.1 12.39 17.18-8.52 32.46-6.94 45.18 8.39 27.8 16.34 55.61 32.68 83.41 49.02 5.01 2.43 7.44 7.26 10.63 11.37z" fill="#2F2E41" p-id="6711"></path><path d="M585.05 756.48c-42.33 22.08-86.3 24.53-128.73 3.66-34.31-16.87-68.48-34.86-99.44-57.91 7.21-9.04 14.41-18.08 21.61-27.12 9.36-12.42 19.71-24.25 27.83-37.44 9.58-15.57 21.13-31.52 24.73-48.78 4.31-20.66-21-23.34-31.46-35.74-28.56-33.87-43.88-71.3-42.67-115.9 0.39-14.27 4.54-19.28 19.16-18.69 33.98 1.37 68.06 0.45 102.03 2.01 15.59 0.72 21.22-5.05 22.53-19.83 1.7-19.1 5.18-38.05 8.29-59.85 15.36 13.9 15.35 32.21 18.14 47.57 3.89 21.4 13.4 30.44 34.47 27.62 24.14-3.22 6.84-22.17 12.09-32.63 1.13-2.25 0.43-5.42 0.58-8.27 1.76 0.29 4.69 0.24 4.84 0.86 9.22 38.09 34.45 49.6 70.87 43.48 16.79-2.82 20.07 7.6 19.97 21.32-0.37 51.82-17.2 98.74-61.2 125.87-33.23 20.5-43.46 45.84-43.83 80.39-7.8 28.14 12.27 49.79 17.48 74.9 2.39 11.43 8.47 22.47 2.71 34.48z" fill="#FEFEFE" p-id="6712"></path><path d="M585.05 756.48c-18.92-34.28-27.25-70.5-20.16-109.47 0.91 37.01 0.91 36.94 38.57 37.23 11.78 0.09 23.56 0.67 35.33 1.02-7.18 23.15-10.84 46.85-11.01 71.08-14.24-2.72-28.5-5.37-42.73 0.14z" fill="#6A62F9" p-id="6713"></path><path d="M770.01 497.68l-20.46-45.51c36.78-15.99 73.9-29.97 117.59-19.14-17.08 27.74-41.99 42.6-70.85 51.64-9.64 3.02-19.47 4.68-26.28 13.01z" fill="#564FCB" p-id="6714"></path><path d="M771.32 650.9c11.11-13.14 19.94-27.46 23.34-44.63 34.75-10.05 64.82 9.88 58.72 38.9-6.34 30.12-39.86 41.08-63.67 20.77-6.02-5.14-8.64-14.44-18.39-15.04z" fill="#564FCC" p-id="6715"></path><path d="M865.3 309.84c-0.25 22.87-15.41 37.99-38.36 37.21-22.2-0.75-33.02-13.41-33.52-35.12-0.54-23.72 13.75-37.44 37.66-36.66 21.07 0.7 34.44 14.21 34.22 34.57z" fill="#564FCB" p-id="6716"></path><path d="M857.25 736.49c-27.2 36.53-60.85 46.25-100.94 40.34 14.01-30.39 51.69-46.08 100.94-40.34z" fill="#564FCD" p-id="6717"></path><path d="M721.82 816.74l-10.62-11.37c13.08-34.77 18.44-72.73 42.76-102.86 6.01-7.45 9.58-17.95 25.82-16.1-33.9 38.41-53.92 81.04-57.96 130.33z" fill="#5B53D6" p-id="6718"></path><path d="M727.91 407.93c-1.49-2.11-2.99-4.22-4.48-6.34 17.57-18.95 35.15-37.9 52.72-56.85l5.01 4.53c-17.74 19.56-35.49 39.11-53.25 58.66z" fill="#5952D1" p-id="6719"></path></svg>