<svg t="1710999774647" class="icon" viewBox="0 0 1024 1024" version="1.1" xmlns="http://www.w3.org/2000/svg" p-id="4775" width="200" height="200"><path d="M373.333333 808.96c-7.68-3.413333-16.64-12.8-22.613333-24.32-90.88-170.666667-107.52-204.373333-107.52-215.893333 0-8.533333 29.866667-68.693333 89.6-180.48 49.493333-92.586667 92.16-169.813333 95.146667-171.52 2.56-2.133333 11.093333-2.986667 17.92-2.56 11.52 1.28 14.933333 5.546667 38.4 49.493333 14.08 26.026667 26.453333 47.786667 27.733333 47.786667 1.706667 0 14.08-21.333333 27.733333-46.933334 25.6-49.066667 34.56-57.173333 53.76-48.64 5.12 2.56 43.093333 69.546667 98.133334 172.373334 75.946667 142.506667 89.6 170.666667 88.32 183.466666-0.853333 8.96-24.746667 58.88-58.88 123.306667-50.346667 95.146667-59.306667 109.226667-71.253334 113.92-19.626667 8.533333-257.706667 8.106667-276.48 0z m293.12-145.493333c25.173333-46.933333 46.08-89.173333 46.08-93.44 0-8.106667-30.72-68.693333-101.12-197.973334-28.16-51.2-30.72-51.2-59.733333 3.413334-9.386667 17.493333-34.986667 65.28-56.746667 105.813333-36.693333 68.693333-39.253333 75.093333-37.12 93.013333 2.56 23.466667 18.773333 42.24 41.813334 49.066667 12.8 3.84 18.346667 3.413333 34.56-3.84 31.573333-13.653333 41.813333-48.213333 24.746666-81.92-4.693333-9.386667-8.533333-19.626667-8.533333-23.04 0-7.68 29.44-62.293333 33.28-62.293333 6.826667 0 43.946667 84.48 46.08 104.96 4.693333 36.693333-7.253333 67.84-35.84 95.573333-27.306667 26.88-46.08 34.133333-84.48 34.133333-48.64 0-96.853333-35.84-110.506667-82.346666-12.8-43.52-8.106667-61.866667 39.68-151.04 19.2-35.413333 34.986667-66.986667 34.986667-70.4 0-2.986667-5.12-15.36-11.52-27.733334-11.946667-22.613333-21.76-28.16-30.293333-17.493333-4.693333 5.973333-45.226667 81.066667-86.186667 159.146667-14.506667 28.16-28.586667 52.906667-30.293333 55.04-8.106667 8.96-2.986667 26.88 20.48 70.4 46.08 87.04 53.76 100.693333 61.866666 114.773333l8.533334 13.653333 107.093333-0.853333 107.52-1.28 45.653333-85.333333z" fill="currentColor" p-id="4776"></path></svg>