<svg t="1711359599146" class="icon" viewBox="0 0 1024 1024" version="1.1" xmlns="http://www.w3.org/2000/svg" p-id="1298" width="200" height="200"><path d="M178.25185173 876.08888853L845.74814827 876.08888853a60.6814816 60.6814816 0 0 0 60.6814816-60.6814816l0-606.81481386a60.6814816 60.6814816 0 0 0-60.6814816-60.6814816l-667.49629654 0a60.6814816 60.6814816 0 0 0-60.6814816 60.6814816L117.57037013 815.40740693a60.6814816 60.6814816 0 0 0 60.6814816 60.6814816z m0-637.15555519a30.34074027 30.34074027 0 0 1 30.34074134-30.34074027L815.40740693 208.59259307a30.34074027 30.34074027 0 0 1 30.34074134 30.34074027L845.74814827 785.06666666a30.34074027 30.34074027 0 0 1-30.34074134 30.34074027l-606.81481386 0a30.34074027 30.34074027 0 0 1-30.34074134-30.34074027z" p-id="1299"></path><path d="M512 785.06666666m-30.34074027 0l-242.7259264 1e-8q-30.34074027 0-30.34074026-30.34074027l0-485.4518528q0-30.34074027 30.34074026-30.34074027l242.7259264 1e-8q30.34074027 0 30.34074027 30.34074027l0 485.45185278q0 30.34074027-30.34074027 30.34074027Z" p-id="1300"></path></svg>