<svg t="1712541864358" class="icon" viewBox="0 0 1024 1024" version="1.1" xmlns="http://www.w3.org/2000/svg" p-id="2607" width="200" height="200"><path d="M957.3 147L860 49.7c-13.6-13.6-35.7-13.7-49.4-0.1L437.5 418.7c-4.8 4.8-8.1 10.8-9.6 17.4l-28.4 130.2a34.92 34.92 0 0 0 10 32.7c6.6 6.3 15.3 9.8 24.2 9.8 3 0 5.9-0.4 8.9-1.1l125.7-32.9c6-1.6 11.4-4.7 15.8-9l373.1-369.1c6.6-6.6 10.4-15.5 10.4-24.8-0.1-9.3-3.7-18.3-10.3-24.9zM541.5 509.4L480 525.5l14-64.3 341-337.3 47.8 47.8-341.3 337.7z" fill="currentColor" p-id="2608"></path><path d="M888.3 442.8c-19.3 0-35 15.7-35 35v267H248V203h215.1c19.3 0 35-15.7 35-35s-15.7-35-35-35H213c-19.3 0-35 15.7-35 35v135.1H96.1c-19.3 0-35 15.7-35 35v590.1c0 19.3 15.7 35 35 35h675.4c19.3 0 35-15.7 35-35V814.8h81.9c19.3 0 35-15.7 35-35v-302c-0.1-19.3-15.8-35-35.1-35zM736.4 893.3H131.1V373.2H178v406.6c0 19.3 15.7 35 35 35h523.4v78.5z" fill="currentColor" p-id="2609"></path></svg>