<svg t="1709017046777" class="icon" viewBox="0 0 1024 1024" version="1.1" xmlns="http://www.w3.org/2000/svg" p-id="9324" width="200" height="200"><path d="M602.496 221.056a48 48 0 0 1 66.88 1.024L833.92 386.56a48 48 0 0 1-1.024 68.864l-475.392 448a48 48 0 0 1-32.96 13.056h-164.48a48 48 0 0 1-48-48L112 704a48 48 0 0 1 15.104-34.944l475.392-448z m-394.496 503.68v95.808h97.536l425.6-401.024-96.64-96.64-426.496 401.856z" fill="currentColor" p-id="9325"></path><path d="M707.328 116.48a163.84 163.84 0 0 1 231.68 231.68l-95.808 95.872a163.84 163.84 0 1 1-231.68-231.68l95.808-95.808z" fill="currentColor" p-id="9326"></path><path d="M843.392 502.592a59.968 59.968 0 0 1-84.8 84.8L452.48 281.216A59.968 59.968 0 0 1 537.28 196.48l306.112 306.176z" fill="currentColor" p-id="9327"></path><path d="M843.392 587.392a59.968 59.968 0 0 0 0-84.8L537.216 196.48A59.968 59.968 0 0 0 452.48 281.216l306.176 306.176a59.968 59.968 0 0 0 84.736 0z" fill="currentColor" p-id="9328"></path></svg>