<svg t="1713790290018" class="icon" viewBox="0 0 1024 1024" version="1.1" xmlns="http://www.w3.org/2000/svg" p-id="8275" width="200" height="200"><path d="M501.9 879.5L135.8 709.4c-19.5-9.1-19.5-35.2 0-44.3L501.9 495c7.4-3.4 16.1-3.4 23.5 0l362.9 170.1c19.4 9.1 19.4 35.1 0 44.2L525.4 879.5c-7.4 3.5-16.1 3.5-23.5 0z" fill="#A9D8FF" opacity=".5" p-id="8276"></path><path d="M501.9 679.2L135.8 509.1c-19.5-9.1-19.5-35.2 0-44.3l366.1-170.1c7.4-3.4 16.1-3.4 23.5 0l362.9 170.1c19.4 9.1 19.4 35.1 0 44.2L525.4 679.2c-7.4 3.4-16.1 3.4-23.5 0z" fill="#A9D8FF" p-id="8277"></path><path d="M501.9 528.9L135.8 358.8c-19.5-9.1-19.5-35.2 0-44.3l366.1-170.1c7.4-3.4 16.1-3.4 23.5 0l362.9 170.1c19.4 9.1 19.4 35.1 0 44.2L525.4 528.9c-7.4 3.5-16.1 3.5-23.5 0z" fill="#298DF7" p-id="8278"></path></svg>