<svg t="1711117187870" class="icon" viewBox="0 0 1024 1024" version="1.1" xmlns="http://www.w3.org/2000/svg" p-id="1232" width="200" height="200"><path d="M554.01171893 613.2060546a219.90234375 219.90234375 0 0 1-46.14257865 7.55859384c-40.82519548 2.85644549-81.91406258-3.29589869-121.33300765-14.06249966a515.7861329 515.7861329 0 0 1-83.80371084-31.37695338c1.53808585 25.57617162 2.85644549 51.10839861 4.48242212 76.68457022 15.16113307 6.63574201 30.76171857 12.17285139 46.40624949 17.40234375 44.2529296 14.80957066 89.82421883 25.79589861 136.36230529 30.89355478 31.02539097 3.2080079 62.27050816 3.42773412 93.25195296 0.70312483 28.74023412-2.59277309 57.52441441-8.04199244 84.28710946-19.29199202 22.2363283-9.4482421 43.54980477-23.68652335 56.55761718-44.51660199a83.80371085 83.80371085 0 0 0 1.66992206-84.24316407 105.55664054 105.55664054 0 0 0-24.25781277-28.52050711 209.17968742 209.17968742 0 0 0-49.48242196-29.48730512c-36.91406275-16.08398412-76.20117162-25.70800781-115.26855503-35.15624992-19.42382821-4.87792994-39.28710963-8.87695347-56.90917959-18.457031-8.04199244-4.39453133-16.08398412-9.84374992-20.96191407-17.88574235-3.07617171-5.18554697-4.39453133-11.95312517-1.66992127-17.62207075 3.42773412-7.64648463 10.89843715-12.39257838 18.36914019-15.6005855 14.06249965-5.800781 29.57519514-6.98730443 44.60449202-6.72363282 38.58398403 0.57128941 76.81640643 6.76757821 114.21386779 15.73242171 30.76171857 7.55859383 61.17187475 16.78710972 90.52734367 28.65234409-1.31835963-24.96093758-2.85644549-49.83398438-4.13085974-74.79492196a633.55957023 633.55957023 0 0 0-47.10937508-14.54589826 972.72949253 972.72949253 0 0 0-116.67480469-23.68652413c-37.8808592-4.74609375-76.1132816-8.17382787-114.21386701-4.83398378a252.68554679 252.68554679 0 0 0-70.31249983 15.38085929c-19.1601566 7.55859383-37.52929679 18.32519557-51.85546883 33.35449168a98.17382829 98.17382829 0 0 0-26.98242205 53.83300791c-1.97753906 13.75488263-1.53808585 28.16894549 4.04296892 41.08886709 6.72363281 15.73242171 19.42382821 28.03710929 33.26660165 37.48535217 25.79589861 17.49023454 55.63476537 27.59765607 85.20996051 36.34277334 28.16894549 8.04199244 56.77734339 13.97460963 85.4296875 19.99511684 13.49121102 2.85644549 26.63085963 6.98730443 39.55078125 11.51367198 10.76660173 4.39453133 21.53320347 9.09667969 30.67382854 16.56738271 4.26269514 3.6914065 8.30566406 8.04199244 9.36035133 13.62304722a14.23828125 14.23828125 0 0 1-4.83398455 12.65625c-6.19628881 5.800781-14.37011744 8.87695347-22.32421833 11.33789037z m25.35644539 190.06347699c-21.53320347 4.83398454-43.90136719 7.20703142-66.26953168 7.20703066a301.59667934 301.59667934 0 0 1-214.01367197-88.59375 296.10351537 296.10351537 0 0 1-36.91406199-44.86816363 300.01464809 300.01464809 0 0 1-51.7236334-169.14550834 301.59667934 301.59667934 0 0 1 51.7236334-169.10156216c10.89843715-15.9960941 23.33496094-31.113281 36.91406199-44.8681644a305.99121068 305.99121068 0 0 1 96.24023464-64.81933585 301.24511693 301.24511693 0 0 1 117.77343733-23.77441415 301.59667934 301.59667934 0 0 1 214.01367196 88.59375 309.37500017 309.37500017 0 0 1 64.86328125 96.24023463 303.88183619 303.88183619 0 0 1 3.91113272 225.92285174 302.34375035 302.34375035 0 0 1-52.20703125 87.93457057l36.69433577 30.41015616A350.33203107 350.33203107 0 0 0 513.01074183 157.6689454a350.28808567 350.28808567 0 0 0-350.33203106 350.33203108 350.28808567 350.28808567 0 0 0 487.48535198 322.38281258l-22.36816449-42.36328132a322.207031 322.207031 0 0 1-48.42773394 15.24902385z m183.5595704-45.79101622a352.66113257 352.66113257 0 0 1-111.2255861 75.27832057l22.4999999 42.23144514a403.85742196 403.85742196 0 0 0 145.23925798-108.63281225l-36.69433653-30.41015616c-6.328125 7.47070304-12.96386702 14.67773446-19.81933525 21.5332027z" fill="#E94924" p-id="1233"></path></svg>