<svg t="1713789756217" class="icon" viewBox="0 0 1024 1024" version="1.1" xmlns="http://www.w3.org/2000/svg" p-id="5311" width="200" height="200"><path d="M385.6 345.6c11.2 9.6 27.2 16 41.6 14.4 16 0 28.8-8 41.6-17.6 14.4-11.2 24-27.2 32-44.8 14.4-33.6 14.4-75.2 1.6-110.4-8-24-22.4-44.8-41.6-59.2-11.2-8-28.8-11.2-44.8-9.6-9.6 1.6-19.2 6.4-28.8 11.2-17.6 11.2-28.8 32-36.8 51.2-9.6 35.2-11.2 70.4-1.6 107.2 4.8 20.8 16 41.6 36.8 57.6z m196.8 1.6c14.4 11.2 32 19.2 49.6 19.2 16 1.6 28.8-1.6 43.2-9.6 14.4-8 25.6-19.2 33.6-33.6 9.6-16 17.6-32 24-49.6 3.2-14.4 6.4-28.8 3.2-44.8-1.6-22.4-11.2-41.6-25.6-59.2-9.6-11.2-22.4-24-35.2-28.8-9.6-3.2-22.4-8-32-6.4-14.4 3.2-25.6 9.6-35.2 17.6-14.4 11.2-25.6 25.6-33.6 41.6-8 14.4-16 28.8-17.6 48-1.6 19.2-1.6 40 1.6 57.6s9.6 35.2 24 48zM308.8 508.8c14.4-11.2 22.4-27.2 27.2-43.2 8-25.6 8-51.2 6.4-76.8 0-9.6-3.2-19.2-8-28.8-9.6-22.4-27.2-41.6-49.6-52.8-17.6-8-35.2-11.2-51.2-8-19.2 1.6-35.2 16-48 32-16 22.4-24 49.6-27.2 75.2-1.6 16 0 32 3.2 48 6.4 24 17.6 44.8 35.2 60.8 14.4 11.2 32 17.6 49.6 17.6 22.4-1.6 43.2-8 62.4-24z m566.4-59.2c-1.6-16-6.4-28.8-14.4-43.2-8-16-22.4-32-36.8-40-17.6-9.6-40-11.2-59.2-9.6-9.6 1.6-22.4 3.2-32 9.6-14.4 8-24 22.4-32 36.8-8 19.2-11.2 41.6-11.2 62.4 0 19.2 0 41.6 6.4 60.8 3.2 14.4 11.2 28.8 25.6 36.8 14.4 11.2 32 16 49.6 17.6 14.4 1.6 28.8 1.6 43.2-1.6 14.4-3.2 27.2-11.2 35.2-24 9.6-11.2 16-27.2 17.6-41.6 11.2-19.2 8-41.6 8-64z m-54.4 299.2c-1.6-27.2-16-56-35.2-76.8-3.2-3.2-8-8-14.4-11.2-25.6-22.4-51.2-44.8-76.8-68.8-25.6-25.6-49.6-52.8-70.4-83.2-16-25.6-36.8-49.6-67.2-62.4-17.6-8-40-11.2-59.2-9.6-35.2 3.2-67.2 24-88 51.2-6.4 6.4-9.6 14.4-14.4 22.4-16 24-35.2 48-57.6 67.2-11.2 11.2-24 22.4-35.2 32-6.4 6.4-14.4 11.2-19.2 17.6-24 17.6-48 41.6-60.8 67.2-9.6 17.6-16 36.8-17.6 59.2 0 17.6 1.6 35.2 8 51.2 6.4 17.6 14.4 35.2 25.6 49.6 19.2 24 49.6 40 78.4 41.6 36.8 1.6 75.2 0 110.4-6.4 16-1.6 32-8 49.6-9.6 35.2-3.2 70.4-1.6 104 8 27.2 9.6 57.6 14.4 86.4 16 28.8 1.6 60.8-1.6 88-17.6 19.2-9.6 35.2-27.2 44.8-48 16-28.8 24-59.2 20.8-89.6z m-331.2 80h-91.2c-9.6 0-19.2 0-28.8-1.6-19.2-3.2-36.8-16-49.6-33.6-9.6-11.2-16-25.6-17.6-41.6s-1.6-32 0-48c3.2-17.6 14.4-33.6 25.6-44.8 9.6-9.6 24-17.6 36.8-24 6.4-1.6 11.2-3.2 17.6-3.2h52.8v-75.2h51.2c3.2 92.8 3.2 184 3.2 272z m203.2 0H568c-14.4-1.6-25.6-6.4-35.2-14.4-11.2-9.6-17.6-25.6-17.6-40V640h51.2v124.8c0 6.4 1.6 9.6 6.4 14.4 3.2 3.2 9.6 6.4 16 6.4h52.8V640h51.2v188.8z" fill="#002fff" p-id="5312"></path><path d="M380.8 683.2c-9.6 3.2-19.2 11.2-25.6 24-3.2 9.6-6.4 19.2-6.4 28.8 0 11.2 3.2 24 9.6 33.6 8 11.2 22.4 19.2 35.2 17.6h41.6V680h-44.8c-1.6-1.6-4.8 1.6-9.6 3.2z" fill="#002fff" p-id="5313"></path></svg>