<svg t="1711117227019" class="icon" viewBox="0 0 1024 1024" version="1.1" xmlns="http://www.w3.org/2000/svg" p-id="1864" width="200" height="200"><path d="M512 149.45117213A358.92333984 358.92333984 0 0 0 149.45117213 504.41943385 355.62744115 355.62744115 0 0 0 397.30273437 841.589844c18.12744166 3.29589869 24.71923828-7.58056615 24.71923829-17.13867213v-60.3149414c-100.85449219 21.42333959-122.27783178-47.4609375-122.27783178-47.4609375a94.26269557 94.26269557 0 0 0-40.20996145-52.07519506c-32.95898463-21.75292969 2.6367185-21.42333959 2.63671926-21.42334035a76.13525391 76.13525391 0 0 1 55.37109375 36.58447266 78.11279297 78.11279297 0 0 0 105.46874975 29.3334966 76.79443334 76.79443334 0 0 1 23.07128931-47.4609375c-80.41992213-8.89892578-164.79492162-39.22119115-164.79492238-175.34179713a136.77978541 136.77978541 0 0 1 36.58447266-95.91064453 124.58496094 124.58496094 0 0 1 3.62548879-93.60351538s30.65185547-9.55810522 98.87695312 36.25488256a352.00195313 352.00195313 0 0 1 181.27441356 0c69.21386719-45.81298853 98.87695313-36.25488256 98.87695312-36.25488256a124.58496094 124.58496094 0 0 1 3.62548879 93.60351538A136.77978541 136.77978541 0 0 1 742.71289088 485.63281275c0 136.45019531-85.03417969 166.44287135-164.79492238 175.34179637a82.39746119 82.39746119 0 0 1 24.71923828 65.91796926v97.2290034c0 11.53564428 6.59179662 20.76416016 24.71923828 17.13867213A355.95703125 355.95703125 0 0 0 874.54882787 504.41943385 358.92333984 358.92333984 0 0 0 512 149.45117213" fill="#231F20" p-id="1865"></path></svg>