<svg t="1711117210306" class="icon" viewBox="0 0 1024 1024" version="1.1" xmlns="http://www.w3.org/2000/svg" p-id="1546" width="200" height="200"><path d="M248.33456231 285.47135566C409.91727088 97.44099309 709.56078742 134.54881837 821.55052376 354.27001667h-269.19829823c-48.49219322 0-79.80644725-1.10077836-113.72780845 16.74342133-39.85977151 21.00169637-69.92840745 59.90552924-80.44373966 105.58784008L248.33456231 285.50032307z" fill="#EA4335" p-id="1547"></path><path d="M396.36031364 512c0 63.72928642 51.82349704 115.58175087 115.52381471 115.58175087 63.72928642 0 115.52381538-51.85246446 115.52381537-115.58175087s-51.82349704-115.58175087-115.52381537-115.58175087c-63.72928642 0-115.52381538 51.85246446-115.52381471 115.58175087z" fill="#4285F4" p-id="1548"></path><path d="M556.72637154 663.299119c-64.85903286 19.26362493-140.72585128-2.11465381-182.29472615-73.86803628-31.74877189-54.74925041-115.58175087-200.805187-153.67448352-267.19951607-133.45491863 204.51307319-18.42355728 483.27076435 223.83463427 530.8359857l112.10560799-189.76843335z" fill="#34A853" p-id="1549"></path><path d="M619.18107246 396.41824913a158.28037284 158.28037284 0 0 1 29.19960022 194.60606598c-27.54843235 47.50728585-115.52381538 195.99652313-158.1645012 267.89474464 249.6160271 15.38193226 431.62107445-229.25162315 349.41029527-462.5297787H619.18107246z" fill="#FBBC05" p-id="1550"></path></svg>