<svg width="200" height="200" viewBox="0 0 200 200" fill="none" xmlns="http://www.w3.org/2000/svg">
<g clip-path="url(#clip0_1_8)">
<path d="M62.6923 46.9231L53.8462 39.6154C51.1538 37.6923 48.0769 38.0769 45.7692 40.3846L1.15385 96.5385C-0.384615 98.4615 -0.384615 101.538 1.15385 103.846L46.1538 159.615C48.0769 161.923 51.5385 162.692 54.2308 160.385L63.0769 153.077C65.7692 151.154 66.1538 147.308 63.8462 145L27.6923 100L64.2308 55C65.7692 52.6923 65.3846 49.2308 62.6923 46.9231ZM198.846 96.5385L153.846 40.7692C151.923 38.4615 148.462 37.6923 145.769 40L136.923 47.3077C134.231 49.2308 133.846 53.0769 136.154 55.3846L172.692 100.385L136.154 145.385C134.231 147.692 134.615 151.538 136.923 153.462L145.769 160.769C148.462 162.692 151.538 162.308 153.846 160L198.846 103.846C200.385 101.154 200.385 98.4615 198.846 96.5385Z" fill="currentColor"/>
<rect x="100.374" y="42" width="24.4092" height="117.33" rx="4" transform="rotate(10 100.374 42)" fill="#26A51C"/>
</g>
<defs>
<clipPath id="clip0_1_8">
<rect width="200" height="200" fill="white"/>
</clipPath>
</defs>
</svg>
