<svg t="1710988196636" class="icon" viewBox="0 0 1024 1024" version="1.1" xmlns="http://www.w3.org/2000/svg" p-id="8879" width="200" height="200"><path d="M384 384c-6.4 0-19.2 0-25.6-6.4-19.2-19.2-25.6-44.8-6.4-64l83.2-108.8c12.8-12.8 44.8-19.2 57.6-6.4 19.2 19.2 25.6 44.8 12.8 64L416 364.8c-6.4 12.8-19.2 19.2-32 19.2zM531.2 403.2c-6.4 0-19.2 0-25.6-6.4-19.2-12.8-19.2-38.4-6.4-57.6l64-83.2c12.8-25.6 38.4-25.6 57.6-12.8 19.2 12.8 25.6 38.4 12.8 57.6L569.6 384c-12.8 12.8-25.6 19.2-38.4 19.2z" fill="#00B277" p-id="8880"></path><path d="M876.8 64H147.2C102.4 64 64 102.4 64 147.2v512c0 44.8 38.4 83.2 83.2 83.2h153.6L256 857.6c0 12.8 0 32 6.4 38.4 6.4 6.4 19.2 19.2 32 19.2h428.8c12.8 0 25.6-6.4 32-19.2 6.4-12.8 12.8-25.6 6.4-38.4l-44.8-115.2h153.6c44.8 0 83.2-38.4 83.2-83.2v-512c6.4-44.8-32-83.2-76.8-83.2z m-211.2 768H358.4l32-83.2h236.8l38.4 83.2z m211.2-172.8H153.6v-128h723.2v128zM147.2 448V147.2h723.2V448H147.2z" fill="currentColor" p-id="8881"></path><path d="M512 640c25.6 0 44.8-19.2 44.8-44.8 0-25.6-19.2-38.4-44.8-38.4-25.6 0-44.8 19.2-44.8 38.4s19.2 44.8 44.8 44.8z" fill="#666666" p-id="8882"></path></svg>