<svg t="1711459675816" class="icon" viewBox="0 0 1024 1024" version="1.1" xmlns="http://www.w3.org/2000/svg" p-id="1292" data-spm-anchor-id="a313x.manage_type_myprojects.0.i4.6e113a81M3VNly" width="200" height="200"><path d="M633.28711111 876.99911111H521.10222222V747.86133333h28.21688889c-9.78488889-22.528-17.29422222-43.80444445-22.64177778-65.19466666H105.13066667c-19.79733333 0-37.66044445-2.50311111-37.66044445-21.27644445v-22.528h451.12888889c-0.45511111 0-0.91022222-14.44977778-0.91022222-20.82133333 0-13.99466667 1.36533333-21.84533333 3.41333333-43.23555556H67.47022222v-402.77333333c0-8.192 7.168-15.70133333 12.74311111-21.504 5.57511111-5.80266667 16.83911111-9.216 25.03111112-9.216h697.91288888c8.192 0 21.27644445 9.32977778 21.27644445 30.83377778v187.96088889c21.27644445 4.43733333 42.66666667 11.49155555 65.19466667 20.36622222v-208.21333334c0-41.30133333-31.17511111-95.91466667-73.38666667-95.91466666h-711.11111111c-24.00711111 0-51.88266667 12.288-69.40444445 29.46844444C18.09066667 123.10755555 2.27555555 147.56977778 2.27555555 172.25955555v490.38222223c0 48.58311111 28.33066667 85.21955555 102.85511112 85.21955555H348.16v129.13777778h-69.85955555c-8.192 0-15.24622222 4.32355555-21.0488889 10.12622222-5.91644445 5.80266667-8.76088889 13.53955555-8.76088888 21.73155556 0 8.192 2.95822222 17.18044445 8.76088888 22.75555556s12.85688889 10.46755555 21.0488889 10.46755555h355.10044444c8.192 0 15.24622222-4.55111111 21.04888889-10.12622222s8.76088889-13.312 8.76088889-21.504c0-8.192-2.95822222-17.06666667-8.76088889-22.86933333-5.91644445-5.91644445-12.97066667-10.58133333-21.16266667-10.58133334z m-154.85155556 0h-65.19466666V747.86133333h65.19466666v129.13777778z m0 0" p-id="1293"></path><path d="M781.312 705.30844445c-44.71466667 0-81.12355555-36.40888889-81.12355555-81.12355556s36.40888889-81.12355555 81.12355555-81.12355556 81.12355555 36.40888889 81.12355555 81.12355556-36.40888889 81.12355555-81.12355555 81.12355556z m0-118.89777778c-20.82133333 0-37.888 16.95288889-37.888 37.888 0 20.82133333 16.95288889 37.888 37.888 37.888 20.82133333 0 37.888-16.95288889 37.888-37.888s-16.95288889-37.888-37.888-37.888z m0 0" p-id="1294" data-spm-anchor-id="a313x.manage_type_myprojects.0.i5.6e113a81M3VNly" class="selected" fill="#5aa137"></path><path d="M780.74311111 855.60888889c-16.95288889 0-32.88177778-1.93422222-44.94222222-13.76711111-12.17422222-11.94666667-19.00088889-25.6-19.22844444-42.66666667-5.34755555-1.93422222-10.69511111-3.52711111-15.81511112-6.03022222-11.83288889 11.37777778-27.42044445 18.54577778-43.91822222 18.54577778h-0.56888889c-16.95288889 0-32.88177778-6.03022222-44.94222222-17.86311112-12.288-12.06044445-19.00088889-27.76177778-19.22844445-44.94222222-0.11377778-17.06666667 6.25777778-32.99555555 18.20444445-45.28355555-2.38933333-5.23377778-4.66488889-10.46755555-6.59911111-15.81511111-16.49777778-0.34133333-31.97155555-6.71288889-43.80444444-18.31822222-12.17422222-12.06044445-19.00088889-28.10311111-19.22844445-45.28355556-0.11377778-17.18044445 6.37155555-33.33688889 18.432-45.62488889 11.94666667-12.17422222 27.87555555-19.00088889 44.94222222-19.22844445 2.048-5.57511111 4.32355555-11.03644445 6.82666667-16.384-11.37777778-11.94666667-17.74933333-27.42044445-17.86311111-44.032-0.11377778-17.18044445 6.48533333-33.33688889 18.54577777-45.5111111 24.80355555-25.14488889 65.42222222-25.48622222 90.56711112-0.79644445 4.89244445-2.27555555 9.89866667-4.32355555 14.90488888-6.144 0.56888889-34.92977778 29.12711111-63.14666667 64.17066667-63.14666667s63.60177778 28.21688889 64.17066667 63.14666667c5.46133333 1.93422222 10.80888889 4.20977778 16.04266666 6.59911111 24.91733333-24.00711111 64.62577778-24.00711111 89.54311112 0.22755556 12.288 11.94666667 19.11466667 27.98933333 19.34222222 45.16977778 0.22755555 17.06666667-6.25777778 33.22311111-18.09066667 45.39733333 2.38933333 5.12 4.55111111 10.35377778 6.48533333 15.70133333 34.58844445 0.56888889 62.80533333 28.672 63.14666667 63.37422222 0.22755555 17.18044445-6.25777778 33.33688889-18.31822222 45.62488889-11.94666667 12.17422222-27.87555555 19.00088889-44.82844445 19.34222223-2.048 5.57511111-4.32355555 11.03644445-6.82666666 16.384 11.37777778 11.83288889 17.74933333 27.42044445 17.97688889 43.91822222 0.11377778 17.18044445-6.37155555 33.33688889-18.432 45.62488888-24.68977778 25.14488889-65.30844445 25.6-90.56711111 1.024-5.23377778 2.50311111-10.58133333 0-16.04266667 1.93422223-0.68266667 34.58844445-28.89955555 58.368-63.71555555 58.368h-0.34133334z m-86.35733333-110.25066667c3.98222222 0 7.85066667 1.024 11.264 3.18577778 12.51555555 7.62311111 26.05511111 13.312 40.27733333 16.83911111 5.91644445 1.47911111 10.92266667 5.34755555 13.88088889 10.80888889 2.84444445 5.34755555 3.41333333 11.71911111 1.25155555 17.52177778-0.91022222 2.61688889-1.36533333 4.89244445-1.36533333 7.168 0 5.68888889 2.27555555 10.92266667 6.25777778 14.79111111 3.98222222 3.86844445 8.41955555 6.144 14.90488889 6.03022222 11.60533333-0.11377778 20.82133333-9.55733333 20.82133333-21.16266666 0-1.93422222-0.45511111-4.096-1.36533333-6.59911112-2.048-5.80266667-1.47911111-12.17422222 1.36533333-17.52177778 2.95822222-5.34755555 7.96444445-9.216 13.88088889-10.6951111 14.336-3.52711111 27.98933333-9.10222222 40.61866667-16.72533334 5.23377778-3.18577778 11.60533333-3.98222222 17.408-2.16177778 5.80266667 1.82044445 10.69511111 5.91644445 13.312 11.49155556 1.13777778 2.50311111 2.50311111 4.43733333 4.096 6.03022222 8.30577778 8.07822222 21.504 7.96444445 29.696-0.22755556 3.86844445-3.98222222 6.03022222-9.32977778 6.03022222-14.90488888s-2.27555555-10.80888889-6.25777778-14.79111112c-1.36533333-1.36533333-3.29955555-2.61688889-5.68888889-3.86844444-5.46133333-2.61688889-9.67111111-7.50933333-11.37777778-13.312s-0.91022222-12.17422222 2.27555556-17.408c7.73688889-12.62933333 13.42577778-26.39644445 16.95288889-40.84622222 1.47911111-5.91644445 5.34755555-10.92266667 10.69511111-13.88088889 5.34755555-2.95822222 11.71911111-3.41333333 17.52177778-1.36533333 2.27555555 0.79644445 4.77866667 1.25155555 7.168 1.36533333 5.57511111-0.11377778 10.80888889-2.27555555 14.79111111-6.25777778 3.86844445-3.98222222 6.03022222-9.32977778 5.91644445-14.90488889-0.11377778-11.49155555-10.35377778-20.13866667-21.16266667-20.70755555-2.048 0.34133333-4.096 0.45511111-6.59911111 1.36533333-5.80266667 2.048-12.17422222 1.59288889-17.52177778-1.25155556-5.34755555-2.84444445-9.32977778-7.96444445-10.80888889-13.88088888-3.52711111-14.22222222-9.10222222-27.76177778-16.72533333-40.27733334-3.18577778-5.23377778-3.98222222-11.49155555-2.27555556-17.408 1.70666667-5.80266667 5.91644445-10.69511111 11.37777778-13.312 2.50311111-1.25155555 4.55111111-2.61688889 6.03022222-4.20977778 3.86844445-3.98222222 6.03022222-9.32977778 6.03022222-14.90488888s-2.27555555-10.92266667-6.25777778-14.79111112c-8.30577778-8.07822222-21.61777778-7.96444445-29.696 0.34133334-1.36533333 1.36533333-2.61688889 3.29955555-3.75466666 5.68888889-2.61688889 5.46133333-7.50933333 9.67111111-13.312 11.37777777-5.91644445 1.82044445-12.17422222 0.91022222-17.408-2.27555555-12.51555555-7.62311111-26.16888889-13.312-40.50488889-16.72533333-5.91644445-1.47911111-11.03644445-5.34755555-13.88088889-10.80888889-2.95822222-5.34755555-3.41333333-11.71911111-1.36533333-17.52177778 0.91022222-2.61688889 1.36533333-4.77866667 1.36533333-6.94044445 0-11.60533333-9.44355555-20.93511111-20.93511111-20.9351111-11.60533333 0-20.93511111 9.44355555-20.93511111 20.9351111 0 2.16177778 0.45511111 4.32355555 1.36533333 6.94044445 2.048 5.80266667 1.59288889 12.17422222-1.36533333 17.52177778-2.95822222 5.34755555-7.96444445 9.32977778-13.88088889 10.80888889-13.99466667 3.41333333-27.30666667 8.87466667-39.70844445 16.27022222-5.23377778 3.18577778-11.60533333 3.86844445-17.408 2.16177778-5.80266667-1.82044445-10.69511111-5.91644445-13.312-11.49155556-1.13777778-2.50311111-2.50311111-4.43733333-4.096-6.03022222-8.192-8.07822222-21.504-8.07822222-29.696 0.22755556-3.86844445 3.98222222-6.144 9.32977778-6.03022222 14.7911111 0 5.57511111 2.27555555 10.92266667 6.25777778 14.79111112 1.47911111 1.36533333 3.29955555 2.61688889 5.68888889 3.86844444 5.46133333 2.61688889 9.67111111 7.50933333 11.37777778 13.42577778 1.70666667 5.91644445 0.91022222 12.17422222-2.27555556 17.408-7.73688889 12.62933333-13.53955555 26.39644445-17.06666667 40.73244444-1.47911111 5.91644445-5.34755555 10.92266667-10.80888888 13.88088889-5.34755555 2.84444445-11.71911111 3.29955555-17.52177778 1.25155556-2.61688889-0.91022222-4.77866667-1.59288889-7.05422222-1.36533333-5.68888889 0-10.92266667 2.27555555-14.79111112 6.25777777-3.98222222 3.98222222-6.03022222 9.32977778-6.03022222 14.90488889s2.27555555 10.80888889 6.25777778 14.79111111c3.86844445 3.86844445 9.216 6.03022222 14.67733334 6.03022223 1.82044445 0.22755555 4.32355555-0.45511111 6.94044444-1.36533334 5.80266667-1.93422222 12.06044445-1.47911111 17.408 1.47911111 5.34755555 2.95822222 9.216 7.96444445 10.69511111 13.88088889 3.41333333 14.22222222 9.10222222 27.87555555 16.61155555 40.50488889 3.18577778 5.23377778 3.98222222 11.60533333 2.16177778 17.408-1.82044445 5.80266667-5.91644445 10.69511111-11.49155555 13.312-2.50311111 1.13777778-4.43733333 2.50311111-6.03022223 4.096-3.86844445 3.98222222-6.03022222 9.32977778-6.03022222 14.90488889s2.27555555 10.92266667 6.25777778 14.79111111c3.98222222 3.98222222 9.89866667 6.71288889 14.90488889 6.03022222 5.57511111 0 10.80888889-2.27555555 14.79111111-6.25777777 1.36533333-1.36533333 2.61688889-3.29955555 3.75466667-5.6888889 2.61688889-5.46133333 7.50933333-9.67111111 13.312-11.37777777 2.048-0.91022222 4.096-1.25155555 6.144-1.25155556z m0 0" p-id="1295" data-spm-anchor-id="a313x.manage_type_myprojects.0.i1.6e113a81M3VNly" class="selected" fill="#5aa137"></path></svg>