<svg width="200" height="200" viewBox="0 0 200 200" fill="none" xmlns="http://www.w3.org/2000/svg">
<path d="M181.5 70.95V70.45H181H18.6H18.1V70.95V99.95V100.45H18.6H81.9V111.05H18.6H18.1V111.55V169.55V170.05H18.6H181H181.5V169.55V111.55V111.05H181H117.7V100.45H181H181.5V99.95V70.95ZM146.7 30.35V29.85H146.2H53.4H52.9V30.35V58.85H42.3V30.35C42.3 24.2261 47.2761 19.25 53.4 19.25H146.2C152.324 19.25 157.3 24.2261 157.3 30.35V58.85H146.7V30.35ZM53.4 59.85H53.9H145.7H146.2H157.8H158.3H181C187.124 59.85 192.1 64.8261 192.1 70.95V111.55V169.55C192.1 175.674 187.124 180.65 181 180.65H18.6C12.4761 180.65 7.5 175.674 7.5 169.55V70.95C7.5 64.8261 12.4761 59.85 18.6 59.85H41.3H41.8H53.4Z" fill="currentColor" stroke="currentColor"/>
<rect x="91" y="89" width="18" height="33" rx="2" fill="#26A51C"/>
</svg>
