<svg t="1710988452619" class="icon" viewBox="0 0 1024 1024" version="1.1" xmlns="http://www.w3.org/2000/svg" p-id="1075" width="200" height="200"><path d="M985.70391666 231.27937593H559.8979163c15.95518407-64.72691371 66.86290147-116.57317149 132.72253554-130.23055076a43.07576149 43.07576149 0 1 0-17.47626667-84.43625813c-105.73141333 21.91006037-185.79860594 108.93539555-203.17778147 214.66680889H37.29281593C13.47331186 231.27937593-5.81530851 250.60035925-5.81530851 274.38750037v603.51374222c0 23.81950407 19.28862037 43.14048739 43.10812444 43.1404874h948.41110073c23.78714112 0 43.10812445-19.32098333 43.10812444-43.1404874V274.38750037c0-23.78714112-19.32098333-43.10812445-43.10812444-43.10812444z m-43.10812445 603.54610517H80.40094037V317.49562482h862.16248889v517.32985628z" fill="currentColor" p-id="1076"></path><path d="M425.26593593 533.03624704h-64.66218667v-64.66218667a43.10812445 43.10812445 0 0 0-86.21624889 0v64.66218667H209.72531371a43.10812445 43.10812445 0 0 0 0 86.24861184h64.66218666v64.66218667a43.10812445 43.10812445 0 0 0 86.21624889 0v-64.66218667h64.66218667a43.10812445 43.10812445 0 0 0 0-86.24861184zM576.14437149 640.80655815a64.66218667 64.66218667 0 1 0 129.35673628 0 64.66218667 64.66218667 0 0 0-129.35673628 0zM705.50110777 511.48218482a64.66218667 64.66218667 0 1 0 129.32437333 0 64.66218667 64.66218667 0 0 0-129.32437333 0z" fill="#26A51C" p-id="1077"></path></svg>