<svg xmlns="http://www.w3.org/2000/svg" xmlns:xlink="http://www.w3.org/1999/xlink" width="217.578125" height="200" viewBox="0 0 217.578125 200" fill="none">
<g  clip-path="url(#clip-path-P9bT3iPZCrzB6GYYG6o49)">
<path d="M108.824 200C108.738 199.999 108.651 199.997 108.565 199.993C108.478 199.987 108.392 199.979 108.306 199.971C108.219 199.961 108.133 199.95 108.048 199.938C107.962 199.924 107.877 199.909 107.792 199.891C107.707 199.874 107.623 199.854 107.539 199.833C107.455 199.811 107.371 199.788 107.288 199.764C107.206 199.737 107.123 199.709 107.042 199.682C106.96 199.651 106.879 199.62 106.799 199.586C106.719 199.553 106.64 199.518 106.562 199.483C106.483 199.444 106.406 199.405 106.329 199.366C106.253 199.323 106.177 199.28 106.103 199.237C106.028 199.192 105.955 199.147 105.883 199.1C105.811 199.051 105.74 199 105.67 198.95C105.6 198.899 105.531 198.846 105.464 198.792C105.397 198.737 105.331 198.68 105.266 198.624C105.202 198.565 105.139 198.504 105.077 198.446L19.3041 112.636C18.5645 111.891 17.8431 111.128 17.1399 110.348C16.4367 109.568 15.7526 108.772 15.0874 107.959C14.4223 107.146 13.7769 106.318 13.1513 105.474C12.5257 104.631 11.9206 103.773 11.3359 102.9C10.7513 102.028 10.1878 101.142 9.6455 100.243C9.10319 99.3435 8.58263 98.4317 8.08384 97.5075C7.58507 96.5833 7.10862 95.6478 6.65452 94.7007C6.20042 93.7538 5.76917 92.7966 5.36077 91.829C4.95239 90.8614 4.56733 89.8847 4.20558 88.8987C3.84384 87.9128 3.50583 86.9188 3.19153 85.9169C2.87728 84.9149 2.58708 83.9058 2.32099 82.8897C2.05491 81.8739 1.81321 80.8522 1.59591 79.8247C1.37862 78.7974 1.18596 77.7651 1.01795 76.7284C0.849936 75.6919 0.706758 74.6519 0.588416 73.6081C0.470074 72.5647 0.376703 71.519 0.3083 70.471C0.239899 69.423 0.196546 68.3739 0.178239 67.3239C0.159933 66.2739 0.166695 65.2241 0.198527 64.1743C0.230358 63.1247 0.287222 62.0763 0.369119 61.0292C0.451014 59.9823 0.55785 58.9378 0.689625 57.8958C0.821398 56.854 0.977963 55.8159 1.15932 54.7813C1.34067 53.747 1.5466 52.7175 1.77712 51.6929C2.00763 50.6683 2.26247 49.6499 2.54163 48.6374C2.82079 47.6251 3.12396 46.6198 3.4511 45.6218C3.77825 44.6239 4.12905 43.6345 4.50347 42.6532C4.87788 41.672 5.2755 40.7003 5.69632 39.738C6.11714 38.7759 6.56069 37.8243 7.02694 36.8833C7.49321 35.9423 7.98167 35.013 8.49231 34.0952C9.00296 33.1776 9.5352 32.2726 10.0891 31.3802C10.6429 30.488 11.2178 29.6095 11.8136 28.7446C12.4094 27.8798 13.0256 27.0298 13.662 26.1942C14.2984 25.3589 14.9544 24.5392 15.6299 23.7351C16.3055 22.9312 16.9999 22.1437 17.713 21.3726C18.4262 20.6017 19.1574 19.8481 19.9067 19.1122C20.6557 18.3762 21.4219 17.6585 22.2055 16.9591C22.9889 16.2597 23.7885 15.5794 24.6045 14.9182C25.4204 14.257 26.2516 13.6156 27.0983 12.9941C27.9448 12.3726 28.8055 11.7716 29.6809 11.1912C30.5561 10.6108 31.4448 10.0516 32.3467 9.51367C33.2487 8.9757 34.1629 8.45957 35.0895 7.96527C36.0161 7.47096 36.954 6.99904 37.9032 6.54953C38.8522 6.10002 39.8116 5.6734 40.7811 5.26969C41.7504 4.866 42.729 4.48566 43.7168 4.12867C44.7043 3.7717 45.7001 3.4385 46.7038 3.12908C47.7073 2.81965 48.7176 2.53436 49.7348 2.27316C50.752 2.01199 51.7749 1.77525 52.8034 1.56292C53.8319 1.35059 54.8649 1.16293 55.9024 0.999934C56.9399 0.836937 57.9805 0.698791 59.0247 0.585498C60.0688 0.472203 61.1149 0.383891 62.1633 0.320559C63.2116 0.257225 64.2608 0.218943 65.3108 0.205717C66.3608 0.192488 67.4108 0.204328 68.4604 0.241236C69.5098 0.278143 70.5579 0.340076 71.6045 0.427035C72.651 0.513992 73.695 0.625877 74.7364 0.762689C75.7776 0.899502 76.8149 1.06108 77.8485 1.24744C78.8821 1.43379 79.9106 1.6447 80.934 1.88017C81.9575 2.11564 82.9747 2.37541 83.9858 2.65945C84.9967 2.9435 86.0004 3.2515 86.9969 3.5835C87.9932 3.91549 88.9811 4.27104 89.9604 4.6502C90.9397 5.02936 91.9096 5.43166 92.8698 5.85713C93.8299 6.2826 94.7793 6.73074 95.718 7.20154C96.6567 7.67236 97.5838 8.16531 98.4991 8.68039C99.4143 9.19547 100.317 9.73209 101.206 10.2903C102.096 10.8484 102.972 11.4275 103.833 12.0275C104.695 12.6275 105.542 13.2477 106.375 13.8882C107.207 14.5286 108.024 15.1886 108.824 15.868C109.624 15.1829 110.44 14.5172 111.272 13.8711C112.104 13.225 112.951 12.5992 113.813 11.9936C114.674 11.3881 115.55 10.8035 116.44 10.2399C117.33 9.67631 118.233 9.13434 119.148 8.61397C120.064 8.09361 120.992 7.59547 121.931 7.11953C122.871 6.64361 123.822 6.19045 124.783 5.76004C125.744 5.32963 126.715 4.9225 127.696 4.53859C128.677 4.15471 129.666 3.79451 130.665 3.45801C131.663 3.1215 132.668 2.80908 133.681 2.52074C134.694 2.2324 135.714 1.96848 136.739 1.72895C137.765 1.48943 138.796 1.2746 139.832 1.08445C140.868 0.894305 141.908 0.729062 142.952 0.588725C143.995 0.448385 145.042 0.333111 146.091 0.242902C147.141 0.152693 148.192 0.0876516 149.244 0.0477789C150.297 0.00790598 151.35 -0.00675289 152.403 0.00380221C153.456 0.0143573 154.509 0.0501143 155.56 0.111073C156.612 0.172032 157.661 0.258123 158.708 0.369346C159.756 0.480568 160.8 0.616795 161.841 0.778027C162.882 0.939258 163.918 1.12531 164.95 1.33618C165.982 1.54705 167.008 1.7825 168.029 2.04252C169.05 2.30254 170.064 2.58686 171.071 2.89545C172.078 3.20404 173.077 3.53654 174.068 3.89299C175.059 4.24943 176.041 4.62937 177.014 5.03285C177.987 5.43633 178.95 5.86287 179.902 6.31244C180.855 6.76203 181.796 7.23416 182.726 7.72881C183.656 8.22348 184.573 8.7401 185.478 9.27871C186.383 9.81732 187.275 10.3773 188.154 10.9586C189.032 11.5399 189.896 12.1419 190.745 12.7646C191.595 13.3873 192.429 14.03 193.248 14.6926C194.066 15.3553 194.868 16.0371 195.655 16.7382C196.442 17.4393 197.209 18.1588 197.961 18.8967C198.713 19.6345 199.446 20.3899 200.162 21.163C200.877 21.936 201.574 22.7259 202.252 23.5321C202.93 24.3386 203.586 25.1606 204.225 25.9985C204.864 26.8364 205.481 27.6892 206.078 28.5567C206.676 29.4243 207.252 30.3056 207.807 31.2005C208.364 32.0958 208.897 33.0036 209.408 33.9241C209.92 34.8448 210.408 35.7772 210.875 36.7212C211.342 37.6653 211.787 38.6202 212.207 39.5854C212.629 40.5507 213.028 41.5257 213.403 42.5101C213.776 43.4944 214.127 44.4872 214.455 45.4884C214.781 46.4897 215.084 47.4981 215.364 48.5138C215.643 49.5296 215.897 50.5515 216.125 51.5792C216.356 52.6073 216.561 53.6401 216.74 54.6776C216.922 55.7155 217.076 56.7569 217.207 57.8021C217.338 58.8474 217.444 59.895 217.524 60.945C217.604 61.9954 217.66 63.047 217.69 64.0997C217.719 65.1526 217.725 66.2056 217.703 67.2587C217.682 68.3118 217.637 69.3638 217.567 70.4146C217.494 71.4655 217.399 72.5142 217.278 73.5603C217.156 74.6067 217.01 75.6495 216.84 76.6888C216.668 77.728 216.473 78.7626 216.252 79.7925C216.031 80.8226 215.787 81.8466 215.516 82.8645C215.246 83.8829 214.953 84.894 214.635 85.8979C214.317 86.9022 213.975 87.8981 213.61 88.8858C213.244 89.8735 212.854 90.8519 212.442 91.821C212.03 92.7901 211.594 93.7487 211.135 94.697C210.676 95.6452 210.196 96.5819 209.692 97.5069C209.188 98.4323 208.662 99.3448 208.115 100.245C207.569 101.145 207 102.031 206.41 102.904C205.821 103.777 205.211 104.635 204.58 105.479C203.949 106.322 203.299 107.15 202.629 107.963C201.959 108.775 201.27 109.571 200.561 110.35C199.852 111.13 199.125 111.892 198.381 112.636L112.572 198.446C112.511 198.506 112.448 198.567 112.384 198.625C112.32 198.684 112.255 198.741 112.188 198.795C112.121 198.85 112.052 198.905 111.983 198.956C111.913 199.006 111.842 199.057 111.77 199.106C111.698 199.153 111.625 199.2 111.551 199.247C111.476 199.29 111.401 199.333 111.324 199.375C111.248 199.415 111.17 199.454 111.092 199.493C111.014 199.528 110.934 199.563 110.854 199.598C110.774 199.629 110.693 199.661 110.611 199.692C110.53 199.719 110.447 199.747 110.364 199.774C110.281 199.797 110.198 199.821 110.113 199.842C110.029 199.864 109.944 199.883 109.859 199.899C109.774 199.915 109.689 199.93 109.603 199.944C109.517 199.956 109.431 199.967 109.344 199.975C109.258 199.983 109.172 199.991 109.085 199.995C108.998 199.999 108.911 200 108.825 200L108.824 200ZM65.9381 10.6354C65.2584 10.6346 64.5788 10.6464 63.8995 10.6707C63.2202 10.695 62.5415 10.7318 61.8635 10.781C61.1854 10.8303 60.5086 10.8921 59.8331 10.9663C59.1573 11.0406 58.4831 11.1273 57.8106 11.2263C57.1379 11.3254 56.4676 11.4369 55.7993 11.5607C55.1307 11.6845 54.4649 11.8205 53.8016 11.9689C53.1381 12.1172 52.4776 12.2778 51.8202 12.4504C51.1627 12.6231 50.5086 12.8079 49.8581 13.0046C49.2073 13.2014 48.5604 13.4102 47.9174 13.6308C47.2745 13.8514 46.6358 14.0838 46.0014 14.328C45.367 14.5721 44.7374 14.8279 44.1124 15.0953C43.4874 15.3627 42.8674 15.6415 42.2528 15.9317C41.6379 16.222 41.0288 16.5234 40.4252 16.8361C39.8217 17.1488 39.2241 17.4725 38.6325 17.8071C38.0407 18.1419 37.4553 18.4874 36.8764 18.8436C36.2975 19.1999 35.7252 19.5667 35.16 19.944C34.5944 20.3214 34.0362 20.7091 33.4852 21.1069C32.934 21.505 32.3903 21.913 31.8543 22.331C31.3182 22.7489 30.7899 23.1767 30.2696 23.614C29.7493 24.0515 29.2372 24.4983 28.7334 24.9546C28.2295 25.411 27.7342 25.8765 27.2475 26.3511C26.7608 26.8257 26.2829 27.3089 25.8141 27.8011C25.3452 28.2933 24.8856 28.794 24.4352 29.303C23.9846 29.8122 23.5438 30.3294 23.1125 30.8548C22.6811 31.3802 22.2596 31.9134 21.8479 32.4542C21.4362 32.9952 21.0344 33.5437 20.643 34.0993C20.2514 34.655 19.8702 35.2177 19.4994 35.7874C19.1287 36.3573 18.7685 36.9337 18.419 37.5167C18.0695 38.0997 17.7308 38.689 17.403 39.2845C17.0752 39.8802 16.7585 40.4815 16.4528 41.0886C16.1472 41.6958 15.8528 42.3085 15.5698 42.9265C15.2867 43.5444 15.0151 44.1675 14.755 44.7956C14.4949 45.4237 14.2465 46.0563 14.0097 46.6935C13.7729 47.3308 13.5479 47.9722 13.3348 48.6175C13.1217 49.263 12.9205 49.9122 12.7312 50.5651C12.542 51.2181 12.3649 51.8743 12.1999 52.5337C12.0348 53.1931 11.882 53.8554 11.7414 54.5204C11.6007 55.1856 11.4724 55.853 11.3564 56.5228C11.2404 57.1927 11.1367 57.8644 11.0454 58.5378C10.9542 59.2116 10.8753 59.8866 10.809 60.5632C10.7426 61.2397 10.6887 61.9171 10.6472 62.5956C10.6058 63.2741 10.5769 63.9532 10.5605 64.6329C10.5442 65.3126 10.5403 65.9921 10.5489 66.6718C10.5576 67.3515 10.5788 68.031 10.6125 68.7099C10.6462 69.3888 10.6924 70.0669 10.7511 70.744C10.8098 71.4214 10.8809 72.0972 10.9645 72.7718C11.0481 73.4464 11.1441 74.1192 11.2525 74.7903C11.3609 75.4614 11.4817 76.1304 11.6147 76.797C11.7478 77.4638 11.8931 78.1276 12.0506 78.7888C12.2081 79.4501 12.3778 80.1083 12.5595 80.7632C12.7413 81.4183 12.9351 82.0698 13.1409 82.7177C13.3467 83.3655 13.5644 84.0095 13.7939 84.6493C14.0234 85.2892 14.2647 85.9247 14.5176 86.5556C14.7705 87.1864 15.035 87.8126 15.311 88.4337C15.587 89.055 15.8744 89.671 16.1731 90.2815C16.4719 90.8923 16.7817 91.4972 17.1027 92.0962C17.4238 92.6954 17.7557 93.2886 18.0986 93.8755C18.4415 94.4626 18.795 95.0431 19.1593 95.6169C19.5235 96.1909 19.8983 96.7579 20.2834 97.3181C20.6686 97.8782 21.0641 98.4312 21.4696 98.9765C21.875 99.5222 22.2907 100.06 22.7161 100.59C23.1413 101.121 23.5762 101.643 24.0209 102.157C24.4655 102.671 24.9196 103.177 25.3829 103.675C25.8459 104.172 26.3182 104.661 26.7997 105.141L108.824 187.201L190.92 105.141C191.561 104.5 192.185 103.843 192.793 103.172C193.402 102.5 193.993 101.814 194.568 101.113C195.142 100.412 195.699 99.6974 196.239 98.9692C196.78 98.2411 197.301 97.5003 197.803 96.7464C198.307 95.9927 198.791 95.2271 199.256 94.4493C199.723 93.672 200.168 92.8835 200.594 92.0839C201.022 91.2847 201.428 90.4751 201.817 89.6556C202.203 88.8362 202.571 88.0079 202.916 87.1704C203.262 86.3329 203.588 85.4876 203.893 84.6341C204.198 83.7808 204.481 82.9204 204.744 82.0528C205.008 81.1856 205.248 80.3124 205.469 79.4331C205.688 78.554 205.885 77.67 206.063 76.781C206.239 75.8921 206.393 74.9993 206.526 74.1028C206.658 73.2063 206.77 72.3069 206.858 71.405C206.946 70.5032 207.012 69.5997 207.057 68.6944C207.102 67.7894 207.123 66.8835 207.121 65.9772C207.121 65.071 207.098 64.1653 207.053 63.2601C207.008 62.355 206.942 61.4515 206.852 60.5495C206.764 59.6478 206.653 58.7487 206.52 57.8522C206.385 56.956 206.231 56.0634 206.053 55.1745C205.875 54.2858 205.676 53.4019 205.455 52.5228C205.235 51.6438 204.994 50.7708 204.731 49.9036C204.467 49.0366 204.182 48.1765 203.877 47.3233C203.571 46.4702 203.244 45.6249 202.897 44.7878C202.551 43.9507 202.184 43.1228 201.795 42.3036C201.406 41.4845 200.998 40.6755 200.571 39.8765C200.143 39.0774 199.698 38.2894 199.231 37.5122C198.764 36.7351 198.28 35.9698 197.776 35.2165C197.272 34.4634 196.75 33.7228 196.209 32.995C195.668 32.2675 195.111 31.5534 194.536 30.853C193.961 30.1528 193.369 29.4671 192.76 28.7958C192.151 28.1247 191.526 27.4688 190.885 26.8282C190.244 26.1878 189.587 25.5634 188.915 24.955C188.244 24.3468 187.557 23.7552 186.857 23.1806C186.156 22.606 185.441 22.0489 184.713 21.5095C183.985 20.97 183.244 20.4485 182.49 19.9454C181.737 19.4423 180.971 18.9579 180.193 18.4923C179.416 18.0268 178.627 17.5806 177.828 17.1537C177.028 16.7269 176.219 16.3199 175.4 15.9328C174.58 15.5457 173.752 15.1789 172.914 14.8325C172.077 14.4861 171.231 14.1604 170.378 13.8555C169.525 13.5505 168.664 13.2667 167.797 13.004C166.93 12.7414 166.056 12.5001 165.177 12.2803C164.298 12.0605 163.414 11.8624 162.525 11.686C161.636 11.5096 160.743 11.3551 159.847 11.2226C158.95 11.09 158.051 10.9795 157.149 10.8911C156.247 10.8026 155.343 10.7364 154.438 10.6923C153.533 10.6483 152.627 10.6264 151.721 10.6269C150.815 10.6273 149.909 10.6499 149.004 10.6948C148.099 10.7397 147.195 10.8067 146.294 10.896C145.392 10.9852 144.493 11.0965 143.596 11.2299C142.7 11.3633 141.807 11.5186 140.919 11.6958C140.03 11.873 139.146 12.0719 138.267 12.2925C137.388 12.5131 136.515 12.7551 135.648 13.0186C134.781 13.282 133.92 13.5666 133.067 13.8723C132.214 14.178 131.369 14.5044 130.532 14.8516C129.695 15.1988 128.867 15.5663 128.048 15.9542C127.229 16.342 126.419 16.7497 125.62 17.1773C124.821 17.6049 124.033 18.0518 123.256 18.518C122.479 18.9843 121.714 19.4694 120.961 19.9731C120.207 20.4771 119.467 20.9989 118.739 21.5392C118.011 22.0794 117.297 22.6372 116.597 23.2124C115.897 23.7876 115.211 24.3796 114.54 24.9886C113.869 25.5976 113.213 26.2226 112.572 26.8636C112.511 26.9245 112.448 26.9837 112.383 27.0413C112.318 27.0991 112.252 27.1552 112.185 27.2097C112.118 27.2642 112.049 27.3169 111.98 27.3681C111.91 27.4192 111.839 27.4687 111.766 27.5163C111.694 27.5642 111.621 27.6101 111.547 27.6542C111.472 27.6983 111.397 27.7407 111.32 27.781C111.243 27.8216 111.166 27.8601 111.088 27.8968C111.009 27.9335 110.93 27.9683 110.85 28.0011C110.77 28.0339 110.689 28.0647 110.607 28.0937C110.526 28.1226 110.443 28.1495 110.36 28.1743C110.278 28.1993 110.194 28.2224 110.11 28.2431C110.026 28.264 109.941 28.2827 109.857 28.2993C109.772 28.3161 109.686 28.331 109.601 28.3435C109.515 28.356 109.429 28.3665 109.343 28.3749C109.257 28.3833 109.17 28.3896 109.084 28.3938C108.998 28.3981 108.911 28.4001 108.824 28.4001C108.738 28.4001 108.651 28.3981 108.565 28.3938C108.478 28.3896 108.392 28.3833 108.306 28.3749C108.22 28.3665 108.134 28.356 108.048 28.3435C107.963 28.331 107.877 28.3161 107.792 28.2993C107.707 28.2827 107.623 28.264 107.539 28.2431C107.455 28.2224 107.372 28.1993 107.289 28.1743C107.206 28.1495 107.123 28.1226 107.042 28.0937C106.96 28.0647 106.879 28.0339 106.799 28.0011C106.719 27.9683 106.64 27.9335 106.562 27.8968C106.483 27.8601 106.406 27.8216 106.329 27.781C106.253 27.7407 106.177 27.6983 106.103 27.6542C106.028 27.6101 105.955 27.5642 105.883 27.5163C105.81 27.4687 105.739 27.4192 105.669 27.3681C105.599 27.3169 105.531 27.2642 105.464 27.2097C105.397 27.1552 105.331 27.0991 105.266 27.0413C105.202 26.9837 105.139 26.9245 105.077 26.8636C104.757 26.5425 104.434 26.2251 104.107 25.9118C103.779 25.5987 103.448 25.2896 103.113 24.9845C102.778 24.6794 102.439 24.3786 102.097 24.0817C101.755 23.7851 101.409 23.4927 101.059 23.2044C100.709 22.9163 100.356 22.6325 99.9997 22.353C99.643 22.0737 99.2829 21.7987 98.9196 21.528C98.5561 21.2575 98.1895 20.9915 97.8196 20.73C97.4497 20.4687 97.0764 20.2116 96.7001 19.9593C96.3237 19.7071 95.9444 19.4595 95.562 19.2166C95.1795 18.9737 94.7942 18.7355 94.4059 18.5021C94.0174 18.2687 93.6262 18.0401 93.2325 17.8164C92.8383 17.5926 92.4417 17.3738 92.0424 17.1598C91.643 16.9459 91.2411 16.7369 90.8366 16.5329C90.4319 16.3288 90.025 16.1299 89.6157 15.9359C89.2061 15.7419 88.7944 15.553 88.3803 15.3692C87.9663 15.1854 87.5499 15.0067 87.1313 14.8332C86.7127 14.6596 86.2922 14.4913 85.8696 14.3282C85.4469 14.165 85.0223 14.0071 84.5957 13.8545C84.1692 13.7018 83.7407 13.5544 83.3106 13.4123C82.8803 13.2703 82.4485 13.1335 82.0149 13.0021C81.5813 12.8707 81.1461 12.7446 80.7094 12.6239C80.2727 12.5033 79.8346 12.388 79.3952 12.2781C78.9555 12.1683 78.5147 12.0639 78.0725 11.9649C77.6303 11.8659 77.1872 11.7724 76.7428 11.6844C76.2983 11.5963 75.8528 11.5138 75.4065 11.4368C74.96 11.3597 74.5126 11.2882 74.0643 11.2223C73.6161 11.1563 73.167 11.0958 72.7174 11.0409C72.2676 10.986 71.8172 10.9367 71.3665 10.8929C70.9155 10.8491 70.4641 10.8109 70.0122 10.7783C69.5602 10.7456 69.1081 10.7186 68.6555 10.6971C68.2028 10.6757 67.75 10.6598 67.2973 10.6495C66.8442 10.6392 66.3913 10.6345 65.9381 10.6354Z"   fill="currentColor" >
</path>
<path d="M36.5576 51.3649C36.1726 51.3606 35.7903 51.3259 35.4108 51.2606C35.0314 51.1954 34.6594 51.1005 34.295 50.9761C34.1852 50.9388 34.0765 50.8989 33.9688 50.8563C33.861 50.8138 33.7543 50.7687 33.6489 50.7208C33.5434 50.673 33.4391 50.6226 33.336 50.5696C33.233 50.5167 33.1313 50.4612 33.0309 50.4032C32.9306 50.3452 32.8318 50.2849 32.7344 50.2222C32.637 50.1595 32.5412 50.0942 32.4471 50.0267C32.353 49.9593 32.2605 49.8895 32.1698 49.8175C32.0791 49.7454 31.9903 49.671 31.9032 49.5946C31.816 49.5183 31.7309 49.4397 31.6477 49.3591C31.5645 49.2784 31.4833 49.196 31.4041 49.1114C31.325 49.0269 31.248 48.9403 31.1731 48.8519C31.0982 48.7634 31.0255 48.6733 30.9549 48.5813C30.8845 48.4894 30.8163 48.3958 30.7504 48.3005C30.6845 48.2052 30.6211 48.1083 30.56 48.0099C30.4989 47.9114 30.4403 47.8116 30.384 47.7103C30.3279 47.6089 30.2743 47.5063 30.2231 47.4024C30.1719 47.2983 30.1233 47.1933 30.0774 47.087C30.0313 46.9806 29.9879 46.8731 29.9473 46.7647C29.9065 46.6563 29.8685 46.547 29.8332 46.4366C29.7978 46.3263 29.7652 46.2149 29.7354 46.103C29.7056 45.9911 29.6785 45.8786 29.6541 45.7653C29.6298 45.6521 29.6082 45.5382 29.5895 45.4239C29.5707 45.3097 29.5548 45.1948 29.5416 45.0798C29.5286 44.9647 29.5184 44.8493 29.511 44.7337C29.5035 44.6181 29.4989 44.5022 29.4971 44.3864C29.4954 44.2706 29.4965 44.1548 29.5004 44.039C29.5045 43.9231 29.5113 43.8075 29.5209 43.6921C29.5306 43.5767 29.543 43.4616 29.5582 43.3468C29.5735 43.2319 29.5916 43.1175 29.6125 43.0036C29.6335 42.8897 29.6572 42.7763 29.6836 42.6634C29.7102 42.5507 29.7394 42.4386 29.7713 42.3272C29.8034 42.2159 29.8381 42.1054 29.8754 41.9958C29.97 41.6675 30.0702 41.3411 30.176 41.0163C30.2819 40.6917 30.3934 40.369 30.5106 40.0482C30.6276 39.7273 30.7504 39.4087 30.8787 39.0921C31.007 38.7757 31.1408 38.4616 31.2801 38.1497C31.4194 37.8379 31.5642 37.5286 31.7143 37.2218C31.8644 36.915 32.0199 36.611 32.1807 36.3097C32.3414 36.0084 32.5073 35.71 32.6785 35.4146C32.8498 35.119 33.0261 34.8266 33.2076 34.5372C33.389 34.2479 33.5755 33.9618 33.767 33.679C33.9584 33.3962 34.1548 33.1169 34.3561 32.8409C34.5573 32.565 34.7633 32.2927 34.9741 32.0239C35.1849 31.7552 35.4003 31.4902 35.6203 31.229C35.8404 30.9678 36.0649 30.7105 36.294 30.4571C36.523 30.2039 36.7564 29.9547 36.9942 29.7095C37.2319 29.4643 37.4739 29.2234 37.7201 28.9866C37.9664 28.7501 38.2166 28.5178 38.4709 28.2898C38.7252 28.0619 38.9835 27.8385 39.2457 27.6196C39.5078 27.4006 39.7737 27.1864 40.0434 26.9769C40.3131 26.7672 40.5863 26.5624 40.8631 26.3624C41.1399 26.1624 41.4201 25.9673 41.7037 25.7771C41.9875 25.5868 42.2744 25.4016 42.5645 25.2214C42.8546 25.0413 43.1478 24.8663 43.4442 24.6964C43.7404 24.5265 44.0395 24.3618 44.3414 24.2023C44.6435 24.0429 44.9483 23.8888 45.2557 23.74C45.5631 23.5911 45.873 23.4478 46.1854 23.3099C46.4979 23.172 46.8127 23.0396 47.1297 22.9126C47.4468 22.7857 47.766 22.6643 48.0873 22.5486C48.4086 22.4329 48.7318 22.3229 49.0571 22.2185C49.3823 22.1139 49.709 22.0152 50.0377 21.9222C50.3663 21.8292 50.6963 21.7421 51.0282 21.6607C51.3598 21.5792 51.6928 21.5035 52.0272 21.4337C52.3614 21.3639 52.6969 21.3001 53.0334 21.2421C53.1491 21.2297 53.2651 21.2202 53.3813 21.2134C53.4975 21.2068 53.6137 21.2029 53.7299 21.2019C53.8463 21.201 53.9627 21.2029 54.079 21.2075C54.1952 21.2122 54.3114 21.2198 54.4272 21.2302C54.543 21.2406 54.6586 21.2539 54.7739 21.27C54.8891 21.2862 55.004 21.3051 55.1182 21.3267C55.2325 21.3484 55.3461 21.373 55.4592 21.4003C55.5723 21.4277 55.6848 21.4577 55.7963 21.4906C55.9079 21.5234 56.0186 21.5589 56.1286 21.5972C56.2385 21.6355 56.3473 21.6764 56.4553 21.7199C56.5631 21.7635 56.6698 21.8097 56.7754 21.8585C56.8811 21.9075 56.9854 21.9589 57.0885 22.0128C57.1917 22.0667 57.2934 22.1232 57.3936 22.1822C57.4938 22.2411 57.5926 22.3025 57.6901 22.3663C57.7874 22.4301 57.8831 22.4963 57.977 22.5648C58.0711 22.6333 58.1635 22.704 58.254 22.7771C58.3446 22.8501 58.4333 22.9253 58.5202 23.0027C58.6071 23.0801 58.692 23.1596 58.775 23.2411C58.8581 23.3227 58.9389 23.4062 59.0178 23.4917C59.0967 23.5773 59.1735 23.6647 59.2481 23.754C59.3227 23.8434 59.395 23.9344 59.4651 24.0273C59.5352 24.1201 59.6032 24.2146 59.6686 24.3107C59.734 24.4069 59.7971 24.5046 59.8579 24.6038C59.9186 24.7032 59.9768 24.8039 60.0325 24.906C60.0881 25.0082 60.1415 25.1116 60.1922 25.2163C60.2428 25.321 60.2909 25.427 60.3364 25.5341C60.3819 25.6411 60.4247 25.7493 60.4649 25.8585C60.5049 25.9678 60.5424 26.0779 60.5772 26.189C60.612 26.2999 60.644 26.4117 60.6733 26.5243C60.7026 26.637 60.7291 26.7503 60.7528 26.8642C60.7764 26.9781 60.7973 27.0926 60.8155 27.2075C60.8336 27.3224 60.8489 27.4377 60.8612 27.5534C60.8737 27.6691 60.8833 27.785 60.8901 27.9011C60.8967 28.0172 60.9006 28.1335 60.9016 28.2499C60.9026 28.3663 60.9008 28.4827 60.8963 28.5989C60.8917 28.7151 60.884 28.8311 60.8737 28.947C60.8633 29.0629 60.8502 29.1785 60.834 29.2939C60.818 29.4091 60.7993 29.5239 60.7776 29.6382C60.7559 29.7525 60.7313 29.8662 60.7042 29.9792C60.677 30.0924 60.6469 30.2048 60.6141 30.3165C60.5813 30.4281 60.5458 30.5389 60.5077 30.6488C60.4696 30.7587 60.4286 30.8676 60.385 30.9755C60.3415 31.0833 60.2954 31.1901 60.2465 31.2958C60.1977 31.4014 60.1463 31.5058 60.0924 31.6089C60.0385 31.712 59.9821 31.8137 59.9233 31.914C59.8643 32.0144 59.803 32.1132 59.7393 32.2105C59.6754 32.3079 59.6094 32.4036 59.5409 32.4976C59.4725 32.5917 59.4018 32.6841 59.3288 32.7747C59.2557 32.8654 59.1805 32.9542 59.1032 33.0411C59.0258 33.128 58.9463 33.2129 58.8649 33.296C58.7834 33.379 58.6999 33.46 58.6145 33.539C58.529 33.6179 58.4417 33.6946 58.3524 33.7693C58.2631 33.8439 58.1719 33.9163 58.0792 33.9864C57.9864 34.0566 57.892 34.1245 57.7958 34.19C57.6997 34.2556 57.602 34.3187 57.5028 34.3794C57.4034 34.4402 57.3028 34.4985 57.2006 34.5542C57.0985 34.6101 56.9952 34.6633 56.8905 34.714C56.7858 34.7648 56.6799 34.813 56.5727 34.8585C56.4657 34.904 56.3575 34.9468 56.2483 34.987C56.1391 35.0273 56.0292 35.0648 55.918 35.0995C55.8071 35.1344 55.6954 35.1665 55.5827 35.1958C55.47 35.2251 55.3567 35.2517 55.2428 35.2755C55.129 35.2992 55.0147 35.3202 54.8997 35.3384C54.7846 35.3565 54.6694 35.3718 54.5538 35.3843C54.3825 35.4238 54.212 35.4662 54.0422 35.5116C53.8725 35.557 53.7038 35.6052 53.5356 35.6564C53.3674 35.7075 53.2002 35.7616 53.034 35.8187C52.8678 35.8756 52.7028 35.9354 52.5385 35.998C52.3743 36.0606 52.2114 36.126 52.0495 36.1943C51.8876 36.2625 51.727 36.3335 51.5674 36.4073C51.4079 36.4811 51.2499 36.5575 51.093 36.6368C50.9362 36.716 50.7807 36.7979 50.6266 36.8825C50.4727 36.967 50.3202 37.0542 50.1692 37.1441C50.0182 37.2339 49.8688 37.3263 49.7209 37.4212C49.5731 37.5163 49.427 37.6138 49.2825 37.7138C49.1381 37.8138 48.9953 37.9162 48.8543 38.021C48.7134 38.126 48.5744 38.2333 48.4371 38.3431C48.2999 38.4527 48.1646 38.5647 48.0311 38.679C47.8978 38.7935 47.7664 38.9102 47.6369 39.029C47.5076 39.1479 47.3804 39.2689 47.2551 39.3921C47.1299 39.5154 47.0068 39.6408 46.886 39.7683C46.7651 39.8959 46.6465 40.0255 46.5299 40.157C46.4135 40.2886 46.2994 40.4222 46.1875 40.5577C46.0758 40.6932 45.9664 40.8306 45.8592 40.9698C45.7522 41.1091 45.6475 41.2503 45.5451 41.3931C45.4429 41.536 45.3432 41.6806 45.2459 41.8269C45.1487 41.9731 45.0539 42.1212 44.9617 42.2708C44.8697 42.4204 44.7802 42.5716 44.6932 42.7241C44.6062 42.8769 44.5219 43.031 44.4403 43.1866C44.3586 43.3421 44.2797 43.4989 44.2034 43.6573C44.1271 43.8157 44.0535 43.9753 43.9828 44.136C43.912 44.2968 43.8441 44.4589 43.7789 44.622C43.7137 44.7851 43.6513 44.9493 43.5918 45.1147C43.5323 45.28 43.4757 45.4462 43.4219 45.6136C43.368 45.781 43.3171 45.9491 43.2692 46.1181C43.2211 46.287 43.176 46.4569 43.1338 46.6274C43.1041 46.7122 43.0729 46.7964 43.0401 46.8802C43.0071 46.964 42.9727 47.047 42.9367 47.1294C42.9007 47.2116 42.8631 47.2933 42.8239 47.3743C42.7847 47.4552 42.744 47.5353 42.7018 47.6147C42.6596 47.6942 42.6158 47.7728 42.5705 47.8505C42.5254 47.9282 42.4787 48.005 42.4305 48.081C42.3825 48.1569 42.3329 48.2319 42.2819 48.306C42.2308 48.38 42.1784 48.453 42.1246 48.5251C42.0709 48.5972 42.0157 48.6681 41.9592 48.738C41.9027 48.8079 41.8449 48.8769 41.7858 48.9446C41.7267 49.0124 41.6662 49.0788 41.6045 49.1442C41.5429 49.2097 41.48 49.2739 41.4158 49.337C41.3518 49.4001 41.2865 49.4618 41.22 49.5224C41.1535 49.5829 41.086 49.6421 41.0172 49.7001C40.9485 49.7581 40.8786 49.8147 40.8076 49.87C40.7368 49.9253 40.6649 49.9794 40.5918 50.0319C40.5189 50.0845 40.445 50.1354 40.3701 50.1853C40.2953 50.2351 40.2194 50.2833 40.1426 50.3302C40.0659 50.3771 39.9883 50.4224 39.9098 50.4663C39.8313 50.5103 39.752 50.5526 39.6719 50.5935C39.5918 50.6343 39.511 50.6737 39.4293 50.7114C39.3478 50.7491 39.2656 50.7854 39.1826 50.82C39.0996 50.8546 39.0159 50.8876 38.9317 50.919C38.8474 50.9505 38.7627 50.9804 38.6774 51.0085C38.592 51.0368 38.5061 51.0634 38.4198 51.0884C38.3333 51.1132 38.2465 51.1364 38.1592 51.1581C38.0718 51.1798 37.9841 51.1997 37.8961 51.2181C37.8081 51.2362 37.7198 51.2528 37.6311 51.2679C37.5424 51.2827 37.4535 51.296 37.3643 51.3075C37.2752 51.319 37.1859 51.3288 37.0963 51.3368C37.0067 51.345 36.917 51.3515 36.8272 51.3562C36.7375 51.3608 36.6476 51.3638 36.5576 51.3649Z"   fill="#00B277" >
</path>
</g>
<defs>
<clipPath id="clip-path-P9bT3iPZCrzB6GYYG6o49">
<path d="M0 200L217.578 200L217.578 0L0 0L0 200Z" fill="white"/>
</clipPath>
</defs>
</svg>
