<svg t="1709469218090" class="icon" viewBox="0 0 1024 1024" version="1.1" xmlns="http://www.w3.org/2000/svg" p-id="7428" width="200" height="200"><path d="M714.27 298.36v-2.37c0-86.34-82.17-156.33-183.53-156.33-101 0-182.94 69.5-183.52 155.42-101.36 0-183.53 70-183.53 156.34s82.17 156.33 183.53 156.33c6.67 0 13.26-0.32 19.75-0.91H657c6.49 0.59 13.08 0.91 19.75 0.91 101.36 0 183.53-70 183.53-156.33 0-75.42-62.64-138.31-146.01-153.06zM307.29 744.22c19.18 0 34.74-14.77 34.74-33s-29.94-69.33-34.74-69.33c-6.27 0-34.73 51.1-34.73 69.33s15.55 33 34.73 33zM444.57 744.22c19.18 0 34.73-14.77 34.73-33s-29.94-69.33-34.73-69.33c-6.27 0-34.74 51.1-34.74 69.33s15.55 33 34.74 33zM592.61 744.22c19.19 0 34.74-14.77 34.74-33s-29.94-69.33-34.74-69.33c-6.26 0-34.73 51.1-34.73 69.33s15.55 33 34.73 33zM307.4 782c-6.26 0-34.73 51.1-34.73 69.33s15.55 33 34.73 33 34.74-14.77 34.74-33S312.2 782 307.4 782zM444.68 782c-6.27 0-34.74 51.1-34.74 69.33s15.55 33 34.74 33 34.73-14.77 34.73-33S449.48 782 444.68 782zM592.73 782c-6.27 0-34.74 51.1-34.74 69.33s15.55 33 34.74 33 34.73-14.77 34.73-33S597.53 782 592.73 782zM717.6 744.22c19.18 0 34.73-14.77 34.73-33s-29.94-69.33-34.73-69.33c-6.27 0-34.74 51.1-34.74 69.33s15.55 33 34.74 33zM717.71 782c-6.27 0-34.74 51.1-34.74 69.33s15.55 33 34.74 33 34.73-14.77 34.73-33S722.51 782 717.71 782z" p-id="7429" fill="#ffffff"></path></svg>