<svg t="1710466868741" class="icon" viewBox="0 0 1024 1024" version="1.1" xmlns="http://www.w3.org/2000/svg" p-id="8973" width="200" height="200"><path d="M512.758 32.001l1.538 0.01 1.57 0.02 1.6 0.03 1.632 0.041 1.662 0.05 1.693 0.061 1.724 0.07 1.754 0.081 1.786 0.091 1.817 0.101 1.847 0.111 1.878 0.121 1.91 0.131 1.94 0.142 1.97 0.15 3.015 0.247 2.048 0.176 2.079 0.187 2.11 0.197 2.14 0.207 2.172 0.216 2.202 0.227 2.233 0.238 2.265 0.247 2.295 0.257 3.5 0.405 3.57 0.427 2.419 0.298a64 64 0 0 1 52.403 42.068l19.707 55.418a397.102 397.102 0 0 1 19.485 7.343l2.382 0.978a397.16 397.16 0 0 1 19.013 8.457l2.352 1.13 53.121-25.253a64 64 0 0 1 66.227 6.866l0.575 0.443 1.92 1.5 2.827 2.222 2.762 2.189 1.804 1.44 1.776 1.427 1.747 1.411 1.718 1.397 1.689 1.382 1.66 1.368 1.63 1.353 1.603 1.338 1.573 1.323 2.305 1.958 1.5 1.286 1.472 1.272 1.443 1.257 1.414 1.243 1.384 1.228 1.356 1.213 1.327 1.198 1.298 1.184 1.269 1.169 1.24 1.154 1.21 1.14 1.183 1.125 1.153 1.11 1.124 1.096 1.095 1.08 1.072 1.072 1.08 1.095 1.096 1.125 1.11 1.153 1.125 1.182 1.14 1.21 1.155 1.24 1.169 1.27 1.183 1.297 1.199 1.327 1.213 1.356 1.228 1.385 1.242 1.414 1.258 1.442 1.272 1.472 1.286 1.5 1.301 1.53 1.317 1.559 1.33 1.588 2.024 2.435 1.367 1.66 1.383 1.69 1.396 1.717 1.412 1.747 1.426 1.776 2.167 2.718 1.463 1.848 1.478 1.877 2.244 2.87a64 64 0 0 1 7.616 66.145l-0.308 0.657-25.252 53.12a397.102 397.102 0 0 1 8.586 18.971l0.992 2.376a397.134 397.134 0 0 1 8.33 21.887l55.418 19.706a64 64 0 0 1 42.068 52.404l0.443 3.616 0.282 2.372 0.273 2.342 0.39 3.454 0.247 2.264 0.237 2.233 0.227 2.203 0.217 2.172 0.206 2.14 0.292 3.153 0.181 2.064 0.172 2.033 0.161 2.001 0.152 1.971 0.14 1.94 0.132 1.91 0.121 1.878 0.111 1.847 0.1 1.817 0.092 1.785 0.08 1.755 0.071 1.724 0.06 1.693 0.051 1.662 0.04 1.632 0.03 1.6 0.02 1.57 0.01 1.538v1.516l-0.01 1.539-0.02 1.57-0.03 1.6-0.04 1.63-0.05 1.663-0.061 1.693-0.07 1.724-0.081 1.755-0.091 1.785-0.101 1.817-0.111 1.847-0.121 1.878-0.131 1.91-0.141 1.94-0.152 1.97-0.246 3.015-0.176 2.048-0.187 2.079-0.197 2.11-0.206 2.14-0.217 2.172-0.227 2.202-0.237 2.234-0.248 2.264-0.257 2.295-0.405 3.5-0.427 3.57-0.298 2.419a64 64 0 0 1-42.068 52.403l-55.418 19.707a397.102 397.102 0 0 1-7.343 19.485l-0.979 2.382a397.133 397.133 0 0 1-9.586 21.365l25.252 53.121a64 64 0 0 1-7.308 66.802l-2.244 2.87-1.478 1.877-1.463 1.849-2.167 2.718-1.426 1.775-1.412 1.747-1.396 1.718-1.383 1.69-1.367 1.66-2.024 2.435-1.33 1.587-1.317 1.559-1.3 1.53-1.287 1.5-1.272 1.472-1.258 1.443-1.242 1.413-1.228 1.385-1.213 1.356-1.199 1.327-1.183 1.298-1.17 1.269-1.154 1.24-1.14 1.21-1.124 1.183-1.11 1.153-1.096 1.124-1.081 1.095-1.072 1.072-1.095 1.08-1.124 1.096-1.153 1.11-1.182 1.125-1.211 1.14-1.24 1.154-1.269 1.17-1.298 1.183-1.327 1.198-1.356 1.214-1.384 1.227-1.414 1.243-1.443 1.257-1.471 1.272-1.501 1.287-2.305 1.957-1.573 1.324-1.602 1.338-1.631 1.352-1.66 1.368-1.69 1.382-1.717 1.397-1.747 1.411-1.776 1.427-1.804 1.44-2.762 2.19-2.827 2.222-1.92 1.5a64 64 0 0 1-66.802 7.308l-53.121-25.252a397.101 397.101 0 0 1-18.97 8.586l-2.376 0.992a397.161 397.161 0 0 1-19.424 7.465l-2.462 0.864-19.707 55.418a64 64 0 0 1-51.684 41.975l-0.72 0.093-2.418 0.298-3.57 0.428-3.5 0.404-2.295 0.258-2.265 0.247-2.233 0.237-2.202 0.227-2.172 0.217-2.14 0.207-2.11 0.196-2.08 0.187-2.047 0.176-3.015 0.246-1.97 0.152-1.94 0.14-1.91 0.132-1.878 0.121-1.847 0.111-1.817 0.101-1.786 0.09-1.754 0.082-1.724 0.07-1.693 0.06-1.662 0.051-1.632 0.04-1.6 0.03-1.57 0.02-1.538 0.011h-1.516l-1.538-0.01-1.57-0.02-1.6-0.03-1.632-0.04-1.662-0.051-1.693-0.06-1.724-0.071-1.755-0.081-1.785-0.091-1.817-0.1-1.847-0.112-1.879-0.12-1.909-0.132-1.94-0.141-1.97-0.152-2.002-0.161-2.033-0.172-2.064-0.181-3.153-0.292-2.14-0.206-2.172-0.217-2.203-0.227-2.233-0.237-2.264-0.247-3.454-0.39-2.342-0.273-2.372-0.282-3.616-0.443a64 64 0 0 1-52.157-41.386l-0.247-0.682-19.706-55.418a397.1 397.1 0 0 1-19.485-7.343l-2.382-0.979a397.131 397.131 0 0 1-21.366-9.586l-53.12 25.252a64 64 0 0 1-66.803-7.308l-2.87-2.244-1.877-1.478-1.848-1.463-2.718-2.167-1.776-1.426-1.747-1.411-1.718-1.397-1.689-1.383-1.66-1.367-2.436-2.024-1.587-1.33-1.559-1.316-1.53-1.302-1.5-1.286-1.472-1.272-1.442-1.258-1.414-1.242-1.385-1.228-1.356-1.213-1.327-1.199-1.298-1.183-1.268-1.17-1.24-1.154-1.211-1.14-1.182-1.124-1.154-1.11-1.124-1.096-1.095-1.081-1.071-1.072-1.081-1.095-1.096-1.124-1.11-1.153-1.125-1.182-1.14-1.211-1.154-1.24-1.17-1.269-1.183-1.298-1.198-1.327-1.213-1.355-1.228-1.385-1.243-1.414-1.257-1.443-1.272-1.471-1.287-1.501-1.957-2.305-1.323-1.573-1.339-1.602-1.352-1.631-1.368-1.66-1.382-1.69-1.397-1.717-1.411-1.747-1.427-1.776-1.44-1.804-2.19-2.762-2.222-2.826-1.5-1.921a64 64 0 0 1-7.308-66.802l25.252-53.121a397.102 397.102 0 0 1-8.585-18.97l-0.993-2.376a397.162 397.162 0 0 1-7.465-19.424l-0.864-2.462-55.418-19.707a64 64 0 0 1-41.975-51.684l-0.093-0.72-0.298-2.418-0.427-3.57-0.405-3.5-0.257-2.295-0.248-2.264-0.237-2.234-0.227-2.202-0.217-2.172-0.206-2.14-0.197-2.11-0.187-2.08-0.176-2.047-0.246-3.015-0.152-1.97-0.14-1.94-0.132-1.91-0.121-1.878-0.111-1.847-0.1-1.817-0.092-1.785-0.08-1.755-0.071-1.724-0.06-1.693-0.051-1.662-0.04-1.632-0.03-1.6-0.02-1.57-0.01-1.538v-1.516l0.01-1.538 0.02-1.57 0.03-1.6 0.04-1.632 0.05-1.662 0.061-1.693 0.07-1.724 0.081-1.755 0.091-1.785 0.101-1.817 0.111-1.847 0.121-1.878 0.131-1.91 0.141-1.94 0.152-1.97 0.161-2.002 0.172-2.033 0.181-2.064 0.292-3.153 0.206-2.14 0.217-2.172 0.227-2.203 0.237-2.233 0.248-2.264 0.39-3.454 0.272-2.342 0.282-2.372 0.443-3.616a64 64 0 0 1 41.386-52.157l0.682-0.247 55.418-19.706a397.104 397.104 0 0 1 7.343-19.485l0.978-2.383a397.162 397.162 0 0 1 8.456-19.013l1.13-2.352-25.252-53.121a64 64 0 0 1 6.866-66.227l0.443-0.575 1.5-1.92 2.222-2.827 2.188-2.761 1.441-1.805 1.427-1.776 1.411-1.747 1.397-1.718 1.382-1.689 1.368-1.66 1.352-1.63 1.339-1.602 1.323-1.574 1.957-2.305 1.287-1.5 1.272-1.472 1.257-1.443 1.243-1.414 1.228-1.384 1.213-1.356 1.198-1.327 1.184-1.298 1.169-1.269 1.154-1.24 1.14-1.21 1.125-1.183 1.11-1.153 1.096-1.124 1.08-1.095 1.072-1.072 1.095-1.08 1.124-1.096 1.154-1.11 1.182-1.125 1.21-1.14 1.24-1.154 1.27-1.17 1.297-1.183 1.327-1.199 1.356-1.213 1.385-1.228 1.414-1.242 1.442-1.257 1.472-1.272 1.5-1.287 1.53-1.301 1.559-1.316 1.587-1.331 2.436-2.024 1.66-1.367 1.689-1.382 1.718-1.397 1.747-1.412 1.776-1.426 2.718-2.167 1.848-1.463 1.877-1.478 2.87-2.244a64 64 0 0 1 66.145-7.616l0.657 0.308 53.12 25.252a397.1 397.1 0 0 1 18.971-8.586l2.376-0.992a397.132 397.132 0 0 1 21.887-8.33l19.706-55.418a64 64 0 0 1 52.404-42.068l3.616-0.443 2.372-0.282 2.342-0.273 3.454-0.39 2.264-0.246 2.233-0.238 2.203-0.227 2.171-0.216 2.141-0.207 3.153-0.292 2.064-0.181 2.033-0.172 2.001-0.161 1.971-0.151 1.94-0.142 1.91-0.13 1.878-0.122 1.847-0.11 1.817-0.102 1.785-0.09 1.755-0.081 1.724-0.07 1.693-0.061 1.662-0.05 1.632-0.041 1.6-0.03 1.57-0.02 1.538-0.01h1.516z m0.776 64h-3.069l-2.524 0.045-1.296 0.032-1.383 0.043-1.29 0.046-1.386 0.057-1.43 0.065-1.489 0.076-1.583 0.088-1.403 0.084-1.714 0.111-1.511 0.104-1.82 0.132-1.816 0.14-1.744 0.141-1.731 0.146-1.754 0.155-2.86 0.264-1.865 0.179-1.948 0.195-2.202 0.227-1.85 0.197-2.035 0.221-3.454 0.39-2.12 0.246-2.056 0.246-3.432 0.419-19.705 55.419a64 64 0 0 1-38.733 38.814l-0.578 0.204c-5.417 1.88-10.781 3.9-16.089 6.055l-2.27 0.932-2.044 0.852-2.006 0.854a333.098 333.098 0 0 0-11.936 5.402l-1.969 0.946a64 64 0 0 1-54.801 0.482l-0.586-0.274-53.122-25.253-2.772 2.17-1.712 1.347-1.712 1.356-2.445 1.949-1.547 1.242-1.747 1.412-1.41 1.146-1.528 1.25-1.66 1.368-2.229 1.853-1.197 1.004-1.378 1.163-1.343 1.142-1.309 1.121-1.403 1.213-1.247 1.085-1.277 1.124-1.175 1.043-1.082 0.968-0.933 0.843-1.163 1.06-1.053 0.97-0.979 0.911-0.899 0.846-0.918 0.873-0.961 0.925-0.777 0.758-0.78 0.769-0.783 0.782-0.893 0.905-0.724 0.742-0.852 0.886-0.997 1.047-0.805 0.856-0.932 1.001-0.924 1.002-0.981 1.076-1.056 1.169-1.07 1.196-0.978 1.103-0.937 1.067-1.086 1.245-1.106 1.28-1.089 1.268-1.768 2.081-1.177 1.4-1.198 1.432-1.352 1.631-1.232 1.496-1.123 1.372-1.397 1.718-1.169 1.447-1.426 1.775-1.186 1.485-2.028 2.558-2.222 2.827-1.322 1.693 25.253 53.12a64 64 0 0 1 0.163 54.609l-0.28 0.589-1.039 2.162a333.129 333.129 0 0 0-6.252 13.936l-0.778 1.86-0.935 2.276-0.785 1.947a333.099 333.099 0 0 0-4.62 12.26l-0.723 2.06a64 64 0 0 1-38.44 39.104l-0.577 0.208-55.419 19.707-0.427 3.494-0.257 2.164-0.252 2.17-0.365 3.232-0.222 2.035-0.196 1.85-0.227 2.202-0.196 1.972-0.187 1.934-0.255 2.759-0.148 1.684-0.152 1.796-0.161 2.002-0.113 1.474-0.142 1.94-0.094 1.378-0.122 1.878-0.076 1.28-0.093 1.652-0.074 1.459-0.067 1.46-0.057 1.385-0.044 1.21-0.045 1.464-0.032 1.32-0.045 2.36v3.349l0.045 2.36 0.032 1.32 0.043 1.383 0.047 1.315 0.048 1.184 0.073 1.607 0.076 1.489 0.088 1.583 0.081 1.35 0.114 1.767 0.102 1.49 0.134 1.842 0.127 1.653 0.21 2.58 0.169 1.966 0.154 1.716 0.177 1.897 0.187 1.934 0.196 1.971 0.227 2.202 0.196 1.85 0.227 2.08 0.232 2.073 0.375 3.243 0.402 3.363 0.288 2.337 55.418 19.707a64 64 0 0 1 38.743 38.538l0.205 0.575 0.819 2.336 0.711 1.982a333.158 333.158 0 0 0 4.697 12.221l0.77 1.874 0.911 2.185a333.129 333.129 0 0 0 6.256 13.943l0.946 1.969a64 64 0 0 1 0.483 54.8l-0.275 0.587-25.253 53.12 1.322 1.694 2.089 2.657 2.092 2.639 1.255 1.572 1.426 1.776 1.17 1.447 1.269 1.562 1.25 1.529 1.232 1.495 1.33 1.604 1.16 1.389 1.207 1.433 1.798 2.117 0.923 1.077 1.272 1.471 0.908 1.043 1.198 1.363 0.895 1.01 1.156 1.291 0.963 1.066 0.934 1.024 1.061 1.152 0.717 0.77 1.017 1.081 0.833 0.875 0.936 0.973 0.803 0.823 0.752 0.762 0.788 0.788 0.76 0.75 0.808 0.788 0.869 0.838 1.001 0.953 0.927 0.873 1.006 0.936 1.043 0.961 1.007 0.919 1.206 1.089 1.116 0.998 1.034 0.918 1.277 1.123 1.376 1.198 1.206 1.042 1.377 1.18 1.343 1.142 1.201 1.014 1.455 1.22 2.148 1.786 1.628 1.341 1.405 1.15 1.674 1.361 1.581 1.277 1.604 1.288 2.573 2.052 1.584 1.254 1.859 1.463 2.626 2.053 53.121-25.251a64 64 0 0 1 54.804-0.072l0.583 0.28c5.16 2.5 10.381 4.865 15.658 7.094l2.265 0.946 2.154 0.885 1.916 0.773c4.055 1.62 8.142 3.16 12.26 4.62l2.06 0.723a64 64 0 0 1 39.104 38.441l0.208 0.576 19.707 55.418 3.285 0.403 2.33 0.277 2.181 0.253 3.259 0.367 2.04 0.223 2.044 0.217 1.807 0.186 2.176 0.217 1.663 0.161 3.027 0.28 1.913 0.168 1.566 0.132 1.949 0.158 1.605 0.123 1.84 0.133 1.511 0.104 1.714 0.111 1.403 0.084 1.583 0.088 1.507 0.077 1.415 0.065 1.539 0.062 1.282 0.046 1.231 0.037 1.167 0.029 2.497 0.049h3.389l2.497-0.049 1.167-0.029 1.231-0.037 1.282-0.046 1.538-0.062 1.425-0.066 1.498-0.076 1.583-0.088 1.403-0.084 1.714-0.111 1.511-0.104 1.821-0.132 1.653-0.127 2.599-0.212 1.946-0.167 1.803-0.162 2.024-0.188 1.746-0.17 2.147-0.213 1.807-0.187 2.044-0.217 2.08-0.227 2.295-0.256 3.059-0.355 3.391-0.405 2.271-0.281 19.707-55.417a64 64 0 0 1 38.538-38.743l0.575-0.205 2.336-0.82 1.982-0.71a333.158 333.158 0 0 0 12.221-4.697l2.018-0.83 2.04-0.852 2.01-0.853a333.1 333.1 0 0 0 11.934-5.402l1.969-0.946a64 64 0 0 1 54.8-0.483l0.586 0.275 53.121 25.252 1.857-1.45 2.553-2.008 2.58-2.045 1.619-1.292 1.73-1.388 1.477-1.195 1.562-1.27 1.513-1.238 1.499-1.235 1.612-1.335 1.379-1.154 1.453-1.221 2.08-1.768 1.128-0.968 1.42-1.227 2.312-2.024 1.164-1.033 1.231-1.101 1.105-0.998 1.08-0.986 0.957-0.882 1.123-1.044 0.959-0.904 0.665-0.634 1.069-1.03 0.742-0.723 0.776-0.765 0.838-0.838 0.75-0.76 0.81-0.83 0.86-0.893 0.909-0.955 0.882-0.937 1.049-1.125 0.769-0.837 0.936-1.025 1.142-1.265 0.897-1.002 1.157-1.305 0.975-1.11 1.209-1.385 0.934-1.083 1.193-1.391 1.237-1.452 1.162-1.377 1.182-1.412 1.684-2.028 1.358-1.647 1.25-1.529 1.27-1.561 1.289-1.595 1.307-1.628 1.883-2.364 1.464-1.848 1.37-1.741 2.039-2.609-25.251-53.12a64 64 0 0 1-0.072-54.804l0.28-0.583c2.5-5.16 4.865-10.38 7.094-15.658l0.947-2.265 0.852-2.075 0.805-1.995c1.62-4.054 3.16-8.14 4.62-12.258l0.723-2.062a64 64 0 0 1 38.44-39.103l0.577-0.208 55.418-19.706 0.262-2.132 0.428-3.57 0.375-3.242 0.232-2.072 0.227-2.08 0.195-1.851 0.228-2.202 0.197-1.97 0.165-1.723 0.198-2.11 0.153-1.715 0.17-1.966 0.209-2.58 0.127-1.653 0.135-1.843 0.101-1.489 0.115-1.767 0.08-1.35 0.088-1.583 0.076-1.489 0.074-1.607 0.047-1.184 0.053-1.475 0.036-1.202 0.033-1.341 0.045-2.36v-3.349l-0.045-2.36-0.035-1.432-0.037-1.21-0.05-1.377-0.047-1.182-0.076-1.638-0.074-1.459-0.092-1.652-0.076-1.28-0.122-1.878-0.094-1.378-0.141-1.94-0.114-1.474-0.161-2.002-0.152-1.796-0.149-1.684-0.28-3.026-0.16-1.667-0.197-1.972-0.227-2.202-0.196-1.85-0.222-2.035-0.365-3.232-0.272-2.342-0.262-2.2-0.403-3.287-55.418-19.706a64 64 0 0 1-38.814-38.733l-0.203-0.578c-1.88-5.417-3.9-10.781-6.055-16.089l-0.933-2.27-0.866-2.076-0.84-1.974a333.098 333.098 0 0 0-5.402-11.935l-0.946-1.97a64 64 0 0 1-0.482-54.8l0.275-0.587 25.251-53.122-2.039-2.607-1.477-1.877-1.218-1.538-2.022-2.538-1.307-1.628-1.289-1.594-1.27-1.562-1.25-1.529-1.367-1.66-1.786-2.148-1.071-1.278-1.316-1.559-0.988-1.162-1.287-1.5-0.935-1.083-1.199-1.376-1.123-1.277-1.043-1.175-0.958-1.07-0.978-1.082-0.979-1.073-0.927-1.006-0.927-0.996-0.882-0.937-0.909-0.955-0.86-0.893-0.81-0.83-0.677-0.686-0.861-0.862-0.837-0.825-0.82-0.799-0.918-0.884-0.918-0.873-0.921-0.866-0.961-0.894-1.061-0.978-1.08-0.985-1.01-0.912-1.231-1.101-1.229-1.09-1.204-1.058-1.138-0.99-1.313-1.135-1.245-1.067-1.975-1.679-1.47-1.237-1.362-1.138-1.631-1.352-1.496-1.232-1.372-1.123-1.718-1.397-1.595-1.288-1.627-1.307-1.573-1.255-2.639-2.092-2.658-2.089-1.693-1.321-53.12 25.252a64 64 0 0 1-54.609 0.163l-0.589-0.28-2.198-1.056-1.937-0.915a333.157 333.157 0 0 0-11.963-5.32l-2.013-0.84-2.158-0.887-1.912-0.77a333.099 333.099 0 0 0-12.258-4.62l-2.062-0.723a64 64 0 0 1-39.103-38.441l-0.208-0.577-19.707-55.418-2.275-0.28-3.168-0.38-3.5-0.405-2.073-0.232-2.08-0.226-1.85-0.197-2.202-0.227-1.923-0.192-1.943-0.187-1.85-0.173-1.803-0.162-1.946-0.167-2.436-0.199-1.834-0.141-1.803-0.131-1.511-0.104-1.714-0.111-1.403-0.084-1.583-0.088-1.481-0.075-1.439-0.066-1.385-0.057-1.29-0.046-1.383-0.043-1.296-0.032-2.524-0.045zM512 320c106.039 0 192 85.961 192 192s-85.961 192-192 192-192-85.961-192-192 85.961-192 192-192z m0 64c-70.692 0-128 57.308-128 128 0 70.692 57.308 128 128 128 70.692 0 128-57.308 128-128 0-70.692-57.308-128-128-128z" fill="currentColor" p-id="8974"></path></svg>