<svg t="1715587115767" class="icon" viewBox="0 0 1024 1024" version="1.1" xmlns="http://www.w3.org/2000/svg" p-id="1637" width="200" height="200"><path d="M948.90666667 359.08266667l-167.48088889-145.63555556h-7.28177778s-7.28177778 0-7.28177778-7.28177778H570.25422222V111.50222222c0-21.84533333-14.56355555-36.40888889-36.40888889-36.40888889H344.51911111c-21.84533333 0-36.40888889 14.56355555-36.40888889 36.40888889v87.38133333H96.93866667c-14.56355555 0-36.40888889 21.84533333-36.40888889 36.4088889v291.2711111c0 21.84533333 14.56355555 36.40888889 36.40888889 36.4088889h211.17155555V912.49777778c0 21.84533333 14.56355555 36.40888889 36.40888889 36.40888889h189.32622222c21.84533333 0 36.40888889-14.56355555 36.40888889-36.40888889V562.97244445h211.17155556l167.48088889-145.63555556c7.28177778-7.28177778 14.56355555-14.56355555 14.56355555-29.12711111s-7.28177778-21.84533333-14.56355555-29.12711111zM380.928 147.91111111h116.50844445v50.97244444H380.928V147.91111111z m116.50844445 728.17777778H380.928V562.97244445h116.50844445V876.08888889z m247.58044444-385.93422222H133.34755555v-218.45333334h604.38755556l123.79022222 109.22666667-116.50844444 109.22666667z" p-id="1638"></path></svg>