<svg xmlns="http://www.w3.org/2000/svg" xmlns:xlink="http://www.w3.org/1999/xlink" width="200" height="200" viewBox="0 0 200 200" fill="none">
<path d="M101.43 75.6098C107.04 75.6098 112.12 77.8799 115.81 81.5398L137.1 60.1299L106.01 31.7598C105.957 31.7091 105.904 31.6598 105.849 31.6117C105.794 31.5637 105.738 31.5169 105.681 31.4715C105.623 31.426 105.565 31.382 105.506 31.3395C105.447 31.2969 105.386 31.2557 105.325 31.216C105.264 31.1763 105.202 31.138 105.139 31.1012C105.075 31.0645 105.012 31.0292 104.947 30.9955C104.882 30.9619 104.816 30.9298 104.75 30.8992C104.684 30.8687 104.617 30.8398 104.549 30.8125C104.482 30.7852 104.413 30.7594 104.344 30.7354C104.275 30.7113 104.206 30.6889 104.136 30.6682C104.066 30.6475 103.995 30.6284 103.924 30.6109C103.853 30.5936 103.782 30.578 103.711 30.5641C103.639 30.5501 103.567 30.5379 103.495 30.5273C103.423 30.5168 103.35 30.508 103.277 30.501C103.205 30.4939 103.132 30.4887 103.059 30.4852C102.986 30.4816 102.913 30.4799 102.84 30.4799L49.4301 30.3799C48.2199 30.3799 47.6199 31.8498 48.4901 32.6998L92.5901 76.7197C95.5802 74.6998 95.7001 75.6098 101.43 75.6098Z"   fill="#BC9BE0" >
</path>
<path d="M172.56 35.5699L124.25 83.48C126.61 88.7199 127.17 96.0099 125.54 102C124.05 107.46 121.14 110.48 117.88 112.25L138 132.83L172.44 96.9699C173.26 96.1199 173.72 94.98 173.72 93.7999L174.88 36.5099C174.88 35.3 173.41 34.7 172.56 35.5699Z"   fill="#53ECF4" >
</path>
<path d="M171.62 166.67L118.29 112.98C114.95 117.32 107.54 121.54 101.93 121.54C96.3199 121.54 93.38 120.93 88.9699 118.22L70.7 139.06L100.35 167.71C101.2 168.53 102.34 168.99 103.52 168.99L170.68 168.99C171.89 168.99 172.49 167.51 171.62 166.67Z"   fill="#E56A77" >
</path>
<path d="M81.0401 96.0102C81.0401 90.4803 83.2501 85.4701 86.82 81.8002L69.41 64.8701L36.12 99.4502C35.3001 100.3 34.8401 101.44 34.8401 102.62L34.12 160.17C34.12 161.38 35.6001 161.98 36.4401 161.11L87.0501 110.47C86.9311 110.352 86.8137 110.233 86.6979 110.112C86.5821 109.991 86.4677 109.869 86.355 109.745C86.2421 109.621 86.1307 109.496 86.021 109.37C85.911 109.244 85.8028 109.116 85.6964 108.987C85.5897 108.857 85.4846 108.727 85.3813 108.595C85.278 108.463 85.1762 108.331 85.076 108.196C84.9759 108.062 84.8774 107.927 84.7807 107.79C84.6839 107.654 84.5887 107.516 84.4954 107.377C84.402 107.238 84.3104 107.097 84.2206 106.956C84.1305 106.815 84.0425 106.673 83.9561 106.529C83.8696 106.386 83.785 106.241 83.7022 106.096C83.6194 105.95 83.5384 105.804 83.4593 105.656C83.3801 105.509 83.3026 105.36 83.227 105.211C83.1514 105.061 83.0778 104.911 83.0061 104.76C82.9342 104.608 82.8643 104.456 82.7962 104.303C82.7282 104.15 82.662 103.996 82.5977 103.842C82.5335 103.687 82.471 103.532 82.4106 103.376C82.3503 103.219 82.2917 103.062 82.2352 102.905C82.1788 102.747 82.1241 102.589 82.0714 102.43C82.0188 102.271 81.968 102.112 81.9194 101.951C81.8708 101.791 81.8239 101.63 81.7792 101.469C81.7345 101.308 81.6919 101.146 81.651 100.983C81.6102 100.821 81.5716 100.658 81.5348 100.495C81.4981 100.331 81.4634 100.167 81.4307 100.003C81.3981 99.8389 81.3677 99.6744 81.3389 99.5094C81.3102 99.3443 81.2837 99.1791 81.2593 99.0133C81.2348 98.8477 81.2124 98.6818 81.1919 98.5156C81.1714 98.3494 81.153 98.183 81.1368 98.0164C81.1206 97.8498 81.1063 97.6828 81.094 97.5158C81.0817 97.3488 81.0716 97.1818 81.0636 97.0145C81.0555 96.8473 81.0495 96.6799 81.0456 96.5125C81.0417 96.3451 81.0399 96.1775 81.0401 96.0102Z"   fill="#FCEF7F" >
</path>
<path d="M176.72 26.64C176.72 24.86 175.65 23.28 174.01 22.61C172.37 21.94 170.51 22.33 169.27 23.59L137.08 55.94L103.39 23.38C103.195 23.1914 102.994 23.0164 102.78 22.85C102.566 22.6837 102.341 22.5221 102.11 22.38C101.879 22.2379 101.635 22.1162 101.39 22C101.145 21.8839 100.896 21.7789 100.64 21.69C99.85 21.41 99.0099 21.26 98.14 21.26L30.97 21.26C29.1901 21.26 27.6099 22.33 26.94 23.97C26.9196 24.0198 26.8985 24.0695 26.88 24.12C26.8614 24.1705 26.8467 24.2189 26.83 24.27C26.8133 24.3212 26.7947 24.3783 26.78 24.43C26.7653 24.4817 26.7528 24.5278 26.74 24.58C26.7272 24.6323 26.7109 24.6873 26.7 24.74C26.6892 24.7927 26.68 24.8469 26.68 24.9C26.68 24.9531 26.65 25.0067 26.65 25.06C26.65 25.1134 26.63 25.1664 26.63 25.22C26.63 25.2736 26.62 25.3263 26.62 25.38C26.62 25.4337 26.62 25.4862 26.62 25.54C26.62 25.5938 26.62 25.6462 26.62 25.7C26.62 25.7538 26.62 25.8063 26.62 25.86C26.62 25.9137 26.64 25.9765 26.64 26.03C26.64 26.0836 26.65 26.1367 26.65 26.19C26.65 26.2433 26.68 26.297 26.68 26.35C26.68 26.403 26.6989 26.4474 26.71 26.5C26.7211 26.5527 26.7271 26.6078 26.74 26.66C26.753 26.7122 26.775 26.7683 26.79 26.82C26.805 26.8717 26.8131 26.9189 26.83 26.97C26.8468 27.0211 26.8713 27.0696 26.89 27.12C26.9087 27.1704 26.9293 27.2203 26.95 27.27C26.9706 27.3197 26.9875 27.3711 27.01 27.42C27.0324 27.4689 27.0558 27.522 27.08 27.57C27.1043 27.618 27.134 27.6629 27.16 27.71C27.186 27.7571 27.2123 27.8039 27.24 27.85C27.2677 27.8961 27.2904 27.945 27.32 27.99C27.3494 28.035 27.3789 28.0761 27.41 28.12C27.4411 28.1639 27.4772 28.2073 27.51 28.25C27.5427 28.2927 27.5756 28.3386 27.61 28.38C27.6443 28.4215 27.6842 28.4599 27.72 28.5C27.7558 28.5401 27.7926 28.5812 27.83 28.62C27.8672 28.6588 27.9012 28.6926 27.94 28.73L60.13 60.03L27.05 94.19C26.91 94.34 26.7699 94.4901 26.65 94.65C26.14 95.1301 25.8198 95.46 25.73 95.56C25.0198 96.3301 24.7901 97.37 25.02 98.32C24.97 98.6901 24.93 99.0599 24.93 99.44L24.93 166.6C24.93 166.671 24.93 166.739 24.93 166.81C24.93 166.881 24.95 166.959 24.95 167.03C24.95 167.101 24.9697 167.169 24.98 167.24C24.9904 167.311 24.9962 167.38 25.01 167.45C25.0238 167.52 25.0427 167.591 25.06 167.66C25.0772 167.729 25.0993 167.802 25.12 167.87C25.1407 167.938 25.156 168.003 25.18 168.07C25.204 168.137 25.2328 168.204 25.26 168.27C25.2873 168.336 25.3195 168.395 25.35 168.46C25.3805 168.524 25.4064 168.597 25.44 168.66C25.4737 168.723 25.5134 168.779 25.55 168.84C25.5867 168.901 25.6204 168.961 25.66 169.02C25.6997 169.079 25.7474 169.143 25.79 169.2C25.8324 169.257 25.8747 169.315 25.92 169.37C25.9653 169.425 26.0121 169.477 26.06 169.53C26.108 169.583 26.1496 169.63 26.2 169.68C26.2505 169.73 26.307 169.782 26.36 169.83C26.4129 169.878 26.4648 169.925 26.52 169.97C26.5752 170.015 26.6326 170.058 26.69 170.1C26.7473 170.142 26.8105 170.18 26.87 170.22C26.9294 170.259 26.9888 170.303 27.05 170.34C27.1113 170.376 27.167 170.406 27.23 170.44C27.2929 170.474 27.3554 170.51 27.42 170.54C27.4846 170.57 27.554 170.593 27.62 170.62C27.686 170.647 27.7528 170.676 27.82 170.7C27.8872 170.724 27.9516 170.749 28.02 170.77C28.0884 170.791 28.1607 170.803 28.23 170.82C28.2993 170.837 28.3701 170.856 28.44 170.87C28.5101 170.884 28.5794 170.9 28.65 170.91C28.7206 170.92 28.7889 170.93 28.86 170.93C28.931 170.93 29.0086 170.95 29.08 170.95C29.1512 170.95 29.2186 170.95 29.29 170.95C30.44 170.95 31.5501 170.5 32.37 169.65L64.57 137.29L98.26 169.85C98.3901 169.98 98.5302 170.09 98.67 170.21L98.9999 170.5C99.9999 171.5 100.5 171.5 102 171.98C103.66 171.98 102.5 171.98 103.5 171.98L104.67 171.98L170.67 171.98C172.45 171.98 174.03 170.91 174.7 169.27C174.72 169.221 174.742 169.17 174.76 169.12C174.778 169.07 174.793 169.021 174.81 168.97C174.827 168.919 174.845 168.871 174.86 168.82C174.875 168.769 174.887 168.712 174.9 168.66C174.913 168.608 174.919 168.562 174.93 168.51C174.941 168.458 174.96 168.403 174.96 168.35C174.96 168.297 174.99 168.243 174.99 168.19C174.99 168.137 175 168.083 175 168.03C175 167.977 175.02 167.923 175.02 167.87C175.02 167.817 175.02 167.763 175.02 167.71C175.02 167.657 175.02 167.603 175.02 167.55C175.02 167.497 175.02 167.443 175.02 167.39C175.02 167.337 175.01 167.283 175.01 167.23C175.01 167.177 174.99 167.123 174.99 167.07C174.99 167.017 174.96 166.963 174.96 166.91C174.96 166.857 174.951 166.812 174.94 166.76C174.929 166.708 174.913 166.652 174.9 166.6C174.887 166.548 174.874 166.501 174.86 166.45C174.845 166.399 174.826 166.341 174.81 166.29C174.794 166.239 174.778 166.19 174.76 166.14C174.742 166.09 174.72 166.039 174.7 165.99C174.68 165.94 174.662 165.898 174.64 165.85C174.618 165.801 174.594 165.748 174.57 165.7C174.546 165.652 174.526 165.607 174.5 165.56C174.474 165.513 174.447 165.466 174.42 165.42C174.393 165.374 174.359 165.325 174.33 165.28C174.301 165.235 174.28 165.194 174.25 165.15C174.219 165.106 174.182 165.063 174.15 165.02C174.118 164.977 174.084 164.931 174.05 164.89C174.016 164.849 173.985 164.81 173.95 164.77C173.915 164.73 173.877 164.689 173.84 164.65C173.803 164.611 173.768 164.577 173.73 164.54L142.2 132.79L174.6 99.05C174.69 98.96 174.77 98.86 174.85 98.77C175.49 98.16 175.86 97.75 175.96 97.64C176.65 96.8699 176.86 95.8501 176.63 94.92C176.68 94.5501 176.72 94.1801 176.72 93.8L176.72 26.64ZM170.72 30.63L170.72 93.8C170.72 94.11 170.63 94.41 170.45 94.67C166.35 98.4901 150.4 110.92 123.9 102.51C124.5 100.42 124.83 98.2401 124.83 96.01C124.83 90.75 123.11 85.7599 119.93 81.68L170.72 30.63ZM101.43 113.41C96.7999 113.41 92.45 111.61 89.16 108.35C89.0584 108.25 88.959 108.153 88.86 108.05C88.761 107.947 88.6665 107.835 88.57 107.73C88.4735 107.625 88.3739 107.518 88.28 107.41C88.1861 107.302 88.0912 107.2 88 107.09C87.9088 106.98 87.8185 106.862 87.73 106.75C87.6417 106.638 87.5557 106.524 87.47 106.41C87.3844 106.296 87.3026 106.186 87.22 106.07C87.1372 105.954 87.0597 105.838 86.98 105.72C86.9001 105.601 86.8167 105.48 86.74 105.36C86.663 105.24 86.5838 105.112 86.51 104.99C86.4362 104.868 86.3707 104.744 86.3 104.62C86.2291 104.496 86.1576 104.376 86.09 104.25C86.0224 104.124 85.9546 103.997 85.89 103.87C85.8255 103.743 85.7613 103.609 85.7 103.48C85.6385 103.351 85.578 103.22 85.52 103.09C85.462 102.96 85.4049 102.832 85.35 102.7C85.2951 102.568 85.2516 102.433 85.2 102.3C85.1484 102.167 85.0982 102.034 85.05 101.9C85.0018 101.765 84.9549 101.636 84.91 101.5C84.8651 101.364 84.8216 101.227 84.78 101.09C84.7386 100.953 84.6981 100.818 84.66 100.68C84.6219 100.542 84.5848 100.398 84.55 100.26C84.5154 100.121 84.4812 99.9895 84.45 99.85C84.4187 99.7106 84.3877 99.57 84.36 99.43C84.3321 99.2898 84.3042 99.1508 84.28 99.01C84.2556 98.8692 84.2309 98.7212 84.21 98.58C84.1893 98.4386 84.1774 98.3018 84.16 98.16C84.1426 98.0182 84.1239 97.8722 84.11 97.73C84.0963 97.5878 84.0803 97.4424 84.07 97.3C84.0598 97.1574 84.05 97.0226 84.05 96.88C84.05 96.7372 84.03 96.5928 84.03 96.45C84.03 96.307 84.03 96.1628 84.03 96.02C84.03 91.4802 85.7801 87.1699 88.96 83.9C92.27 80.5 96.6999 78.62 101.42 78.62C106.05 78.62 110.4 80.4199 113.69 83.68C117 86.9699 118.82 91.3501 118.82 96.01C118.82 100.68 116.99 105.06 113.68 108.35C110.41 111.62 106.06 113.41 101.43 113.41ZM115.67 77.44C114.77 76.75 113.82 76.14 112.84 75.59C117.35 61.6599 116.46 50.3301 113.76 41.75L132.84 60.18L115.67 77.44ZM98.13 27.26C98.19 27.26 98.2501 27.28 98.32 27.28C101.06 29.8301 116.11 45.45 107.27 73.35C105.39 72.8699 103.43 72.62 101.44 72.62C96.09 72.62 91.0199 74.4 86.9 77.69L66.46 57.81L35.03 27.26L98.13 27.26ZM64.43 64.21L78.97 78.35L82.71 81.99C81.9401 83.0099 81.2599 84.0901 80.68 85.21C66.0099 80.46 54.01 81.46 45.02 84.26L64.43 64.21ZM30.93 162.61L30.93 99.44C30.93 99.1699 30.9999 98.9199 31.13 98.69C35.2499 95.0199 51.9999 82.35 78.63 90.84C78.2499 92.5199 78.04 94.25 78.04 96C78.04 101.26 79.7599 106.25 82.94 110.33L30.93 162.61ZM87.2 114.58C87.89 115.11 88.61 115.58 89.35 116.03C84.5 130.79 85.46 142.83 88.26 151.85L68.81 133.06L87.2 114.58ZM103.51 165.99C103.24 165.99 102.98 165.91 102.74 165.78C99.0599 161.68 86.39 145.05 94.85 118.46C96.96 119.08 99.1698 119.41 101.43 119.41C106.64 119.41 111.59 117.72 115.66 114.59L135.88 134.94L135.89 134.94L166.72 165.98L103.51 165.98L103.51 165.99ZM137.97 128.53L119.92 110.36C120.5 109.62 121.02 108.83 121.5 108.03C128.85 110.43 135.5 111.39 141.42 111.39C147.17 111.39 152.22 110.49 156.58 109.16L137.97 128.53Z"   fill="#333333" >
</path>
<path d="M87.37 98.18C87.37 98.4619 87.377 98.7437 87.3909 99.0253C87.4047 99.307 87.4254 99.5881 87.453 99.8687C87.4806 100.149 87.5151 100.429 87.5565 100.708C87.5979 100.987 87.6461 101.265 87.701 101.541C87.7561 101.818 87.8179 102.093 87.8864 102.367C87.9549 102.64 88.0301 102.912 88.112 103.182C88.1939 103.451 88.2823 103.719 88.3772 103.985C88.4723 104.25 88.5738 104.513 88.6817 104.774C88.7895 105.034 88.9037 105.292 89.0243 105.547C89.1449 105.802 89.2716 106.053 89.4046 106.302C89.5375 106.551 89.6764 106.796 89.8214 107.038C89.9664 107.28 90.1173 107.518 90.2739 107.752C90.4305 107.987 90.5928 108.217 90.7608 108.444C90.9288 108.67 91.1022 108.893 91.2811 109.11C91.46 109.328 91.6442 109.542 91.8335 109.751C92.0228 109.96 92.2172 110.164 92.4167 110.363C92.616 110.563 92.8202 110.757 93.0292 110.946C93.238 111.136 93.4514 111.32 93.6694 111.499C93.8874 111.678 94.1096 111.851 94.3362 112.019C94.5626 112.187 94.7931 112.35 95.0276 112.506C95.2621 112.663 95.5003 112.814 95.7421 112.959C95.984 113.104 96.2293 113.243 96.478 113.376C96.7266 113.508 96.9783 113.635 97.2333 113.756C97.4882 113.876 97.746 113.99 98.0065 114.098C98.2669 114.206 98.5299 114.308 98.7954 114.403C99.0609 114.498 99.3286 114.586 99.5985 114.668C99.8683 114.75 100.14 114.825 100.414 114.894C100.687 114.962 100.962 115.024 101.239 115.079C101.515 115.134 101.793 115.182 102.072 115.223C102.351 115.265 102.631 115.299 102.911 115.327C103.192 115.355 103.473 115.375 103.755 115.389C104.036 115.403 104.318 115.41 104.6 115.41C104.882 115.41 105.164 115.403 105.446 115.389C105.727 115.375 106.008 115.355 106.289 115.327C106.57 115.299 106.849 115.265 107.128 115.223C107.407 115.182 107.685 115.134 107.961 115.079C108.238 115.024 108.513 114.962 108.787 114.894C109.06 114.825 109.332 114.75 109.602 114.668C109.872 114.586 110.139 114.498 110.405 114.403C110.67 114.308 110.933 114.206 111.194 114.098C111.454 113.99 111.712 113.876 111.967 113.756C112.222 113.635 112.474 113.508 112.722 113.376C112.971 113.243 113.216 113.104 113.458 112.959C113.7 112.814 113.938 112.663 114.173 112.506C114.407 112.35 114.638 112.187 114.864 112.019C115.09 111.851 115.313 111.678 115.531 111.499C115.749 111.32 115.962 111.136 116.171 110.946C116.38 110.757 116.584 110.563 116.783 110.363C116.983 110.164 117.177 109.96 117.367 109.751C117.556 109.542 117.74 109.328 117.919 109.11C118.098 108.893 118.271 108.67 118.439 108.444C118.607 108.217 118.77 107.987 118.926 107.752C119.083 107.518 119.234 107.28 119.379 107.038C119.524 106.796 119.663 106.551 119.796 106.302C119.929 106.053 120.055 105.802 120.176 105.547C120.296 105.292 120.411 105.034 120.518 104.774C120.626 104.513 120.728 104.25 120.823 103.985C120.918 103.719 121.006 103.451 121.088 103.182C121.17 102.912 121.245 102.64 121.314 102.367C121.382 102.093 121.444 101.818 121.499 101.541C121.554 101.265 121.602 100.987 121.644 100.708C121.685 100.429 121.72 100.149 121.747 99.8687C121.775 99.5881 121.795 99.307 121.809 99.0253C121.823 98.7437 121.83 98.4619 121.83 98.18C121.83 97.898 121.823 97.6162 121.809 97.3345C121.795 97.0529 121.775 96.7718 121.747 96.4912C121.72 96.2106 121.685 95.9308 121.644 95.6517C121.602 95.3728 121.554 95.0951 121.499 94.8185C121.444 94.5419 121.382 94.2669 121.314 93.9933C121.245 93.7199 121.17 93.4482 121.088 93.1783C121.006 92.9085 120.918 92.6408 120.823 92.3753C120.728 92.1099 120.626 91.8468 120.518 91.5863C120.411 91.3257 120.296 91.0681 120.176 90.8132C120.055 90.5583 119.929 90.3065 119.796 90.0578C119.663 89.8091 119.524 89.5638 119.379 89.322C119.234 89.0801 119.083 88.8419 118.926 88.6076C118.77 88.3731 118.607 88.1425 118.439 87.916C118.271 87.6895 118.098 87.4673 117.919 87.2494C117.74 87.0314 117.556 86.8179 117.367 86.6089C117.177 86.4001 116.983 86.1959 116.783 85.9964C116.584 85.7971 116.38 85.6027 116.171 85.4134C115.962 85.224 115.749 85.0398 115.531 84.8609C115.313 84.6821 115.09 84.5087 114.864 84.3408C114.638 84.1727 114.407 84.0103 114.173 83.8537C113.938 83.697 113.7 83.5462 113.458 83.4013C113.216 83.2563 112.971 83.1173 112.722 82.9845C112.474 82.8516 112.222 82.7248 111.967 82.6042C111.712 82.4837 111.454 82.3694 111.194 82.2615C110.933 82.1535 110.67 82.0521 110.405 81.9572C110.139 81.8621 109.872 81.7737 109.602 81.6919C109.332 81.61 109.06 81.5348 108.787 81.4664C108.513 81.3979 108.238 81.3361 107.961 81.281C107.685 81.2261 107.407 81.1779 107.128 81.1365C106.849 81.0951 106.57 81.0606 106.289 81.033C106.008 81.0054 105.727 80.9846 105.446 80.9706C105.164 80.9569 104.882 80.95 104.6 80.95C104.318 80.95 104.036 80.9569 103.755 80.9706C103.473 80.9846 103.192 81.0054 102.911 81.033C102.631 81.0606 102.351 81.0951 102.072 81.1365C101.793 81.1779 101.515 81.2261 101.239 81.281C100.962 81.3361 100.687 81.3979 100.414 81.4664C100.14 81.5348 99.8683 81.61 99.5985 81.6919C99.3286 81.7737 99.0609 81.8621 98.7954 81.9572C98.5299 82.0521 98.2669 82.1535 98.0065 82.2615C97.746 82.3694 97.4882 82.4837 97.2333 82.6042C96.9783 82.7248 96.7266 82.8516 96.478 82.9845C96.2293 83.1173 95.984 83.2563 95.7421 83.4013C95.5003 83.5462 95.2621 83.697 95.0276 83.8537C94.7931 84.0103 94.5626 84.1727 94.3362 84.3408C94.1096 84.5087 93.8874 84.6821 93.6694 84.8609C93.4514 85.0398 93.238 85.224 93.0292 85.4134C92.8202 85.6027 92.616 85.7971 92.4167 85.9964C92.2172 86.1959 92.0228 86.4001 91.8335 86.6089C91.6442 86.8179 91.46 87.0314 91.2811 87.2494C91.1022 87.4673 90.9288 87.6895 90.7608 87.916C90.5928 88.1425 90.4305 88.3731 90.2739 88.6076C90.1173 88.8419 89.9664 89.0801 89.8214 89.322C89.6764 89.5638 89.5375 89.8091 89.4046 90.0578C89.2716 90.3065 89.1449 90.5583 89.0243 90.8132C88.9037 91.0681 88.7895 91.3257 88.6817 91.5863C88.5738 91.8468 88.4723 92.1099 88.3772 92.3753C88.2823 92.6408 88.1939 92.9085 88.112 93.1783C88.0301 93.4482 87.9549 93.7199 87.8864 93.9933C87.8179 94.2669 87.7561 94.5419 87.701 94.8185C87.6461 95.0951 87.5979 95.3728 87.5565 95.6517C87.5151 95.9308 87.4806 96.2106 87.453 96.4912C87.4254 96.7718 87.4047 97.0529 87.3909 97.3345C87.377 97.6162 87.37 97.898 87.37 98.18Z"   fill="#FFA750" >
</path>
<path d="M101.43 119.41C88.53 119.41 78.03 108.91 78.03 96.0101C78.03 83.1101 88.53 72.6101 101.43 72.6101C114.33 72.6101 124.83 83.1101 124.83 96.0101C124.83 108.91 114.34 119.41 101.43 119.41ZM101.43 78.6101C91.84 78.6101 84.03 86.4101 84.03 96.0101C84.03 105.61 91.83 113.41 101.43 113.41C111.03 113.41 118.83 105.6 118.83 96.0101C118.83 86.4201 111.03 78.6101 101.43 78.6101Z"   fill="#333333" >
</path>
</svg>
