<?xml version="1.0" standalone="no"?><!DOCTYPE svg PUBLIC "-//W3C//DTD SVG 1.1//EN" "http://www.w3.org/Graphics/SVG/1.1/DTD/svg11.dtd"><svg t="1711521637910" class="icon" viewBox="0 0 1024 1024" version="1.1" xmlns="http://www.w3.org/2000/svg" p-id="3402" xmlns:xlink="http://www.w3.org/1999/xlink" width="200" height="200"><path d="M862.68 351.44c-35.09-35.09-81.57-54.41-130.9-54.41h-28.99c-11.64-45.65-36.89-87.04-72.71-118.52-42.9-37.7-98.01-58.47-155.18-58.47-57.45 0-112.77 20.95-155.76 58.98-37.1 32.82-62.74 76.25-73.58 124-80.42 21-138.65 94.51-138.65 179.32 0 49.33 19.32 95.81 54.41 130.9 35.09 35.09 81.57 54.41 130.9 54.41h439.56c49.32 0 95.81-19.32 130.9-54.41s54.41-81.57 54.41-130.9c0-49.33-19.32-95.81-54.41-130.9zM388.84 824.76l-0.41-1.24a59.29 59.29 0 0 0-2.56-6.22c-1.27-2.65-2.56-5.3-3.75-7.99l-49.13-110.69c-0.71-1.6-2.99-1.6-3.7 0l-49.14 110.69c-1.19 2.69-2.48 5.34-3.75 7.99-0.96 2.01-1.82 4.09-2.56 6.22l-0.41 1.24a60.428 60.428 0 0 0-2.91 18.59c0 3.66 0.32 7.24 0.94 10.72 5.06 28.36 29.85 49.89 59.66 49.89 29.82 0 54.6-21.53 59.66-49.89 0.62-3.48 0.94-7.06 0.94-10.72 0.02-6.49-1-12.73-2.88-18.59zM750.59 824.76l-0.41-1.24a59.29 59.29 0 0 0-2.56-6.22c-1.27-2.65-2.56-5.3-3.75-7.99l-49.13-110.69c-0.71-1.6-2.99-1.6-3.7 0l-49.13 110.69c-1.19 2.69-2.48 5.34-3.75 7.99-0.96 2.01-1.82 4.09-2.56 6.22l-0.41 1.24a60.428 60.428 0 0 0-2.91 18.59c0 3.66 0.32 7.24 0.94 10.72 5.06 28.36 29.85 49.89 59.66 49.89 29.82 0 54.6-21.53 59.66-49.89 0.62-3.48 0.94-7.06 0.94-10.72 0.01-6.49-1.01-12.74-2.89-18.59z" fill="#67ABF5" p-id="3403"></path></svg>