<svg t="1709470441488" class="icon" viewBox="0 0 1024 1024" version="1.1" xmlns="http://www.w3.org/2000/svg" p-id="1352" width="200" height="200"><path d="M592.11 538.71m-183.57 0a183.57 183.57 0 1 0 367.14 0 183.57 183.57 0 1 0-367.14 0Z" fill="#F8D448" p-id="1353"></path><path d="M601.52 544.55h-21.26c-10.5-38.42-32.12-73.2-62.42-99.84-37.35-32.83-85.34-50.91-135.11-50.91-50.02 0-98.18 18.24-135.61 51.35-31.62 27.97-53.68 64.79-63.45 105.34-69.07 19.28-118.81 82.98-118.81 156.33 0 89.48 72.8 162.28 162.28 162.28h374.38c89.48 0 162.28-72.8 162.28-162.27 0-89.48-72.8-162.28-162.28-162.28z" fill="#76AAEE" p-id="1354"></path><path d="M602.04 310.7c-16.57 0-30-13.43-30-30v-95.8c0-16.57 13.43-30 30-30s30 13.43 30 30v95.81c0 16.56-13.43 29.99-30 29.99zM833.33 773.29c-7.68 0-15.35-2.93-21.21-8.79l-28.07-28.07c-11.72-11.72-11.72-30.71 0-42.43 11.72-11.71 30.71-11.72 42.43 0l28.07 28.07c11.72 11.72 11.72 30.71 0 42.43-5.86 5.86-13.54 8.79-21.22 8.79zM428.2 369.1c-7.76 0-15.51-2.99-21.39-8.96l-57.46-58.4c-11.62-11.81-11.47-30.8 0.34-42.42 11.81-11.62 30.8-11.47 42.43 0.34l57.46 58.4c11.62 11.81 11.47 30.8-0.34 42.42-5.84 5.75-13.44 8.62-21.04 8.62zM765.59 378.45c-7.68 0-15.35-2.93-21.21-8.79-11.72-11.72-11.72-30.71 0-42.43l67.75-67.74c11.71-11.72 30.71-11.72 42.43 0s11.72 30.71 0 42.43l-67.75 67.74a29.95 29.95 0 0 1-21.22 8.79zM929.14 542h-95.81c-16.57 0-30-13.43-30-30s13.43-30 30-30h95.81c16.57 0 30 13.43 30 30s-13.43 30-30 30z" fill="#F8D448" p-id="1355"></path></svg>