<?xml version="1.0" standalone="no"?><!DOCTYPE svg PUBLIC "-//W3C//DTD SVG 1.1//EN" "http://www.w3.org/Graphics/SVG/1.1/DTD/svg11.dtd"><svg t="1711521612293" class="icon" viewBox="0 0 1024 1024" version="1.1" xmlns="http://www.w3.org/2000/svg" p-id="2901" xmlns:xlink="http://www.w3.org/1999/xlink" width="200" height="200"><path d="M862.68 297.47c-35.09-35.09-81.57-54.41-130.9-54.41h-28.99c-11.64-45.65-36.89-87.04-72.71-118.52-42.9-37.7-98.01-58.47-155.18-58.47-57.45 0-112.77 20.95-155.76 58.98-37.1 32.82-62.74 76.25-73.58 124-80.42 21-138.65 94.51-138.65 179.32 0 49.33 19.32 95.81 54.41 130.9 35.09 35.09 81.57 54.41 130.9 54.41h439.56c49.32 0 95.81-19.32 130.9-54.41 35.09-35.09 54.41-81.57 54.41-130.9 0-49.33-19.32-95.82-54.41-130.9zM822.64 774.98l-37.22-22.47 37.21-22.47c9.45-5.71 12.49-18 6.78-27.46-5.71-9.45-18-12.49-27.46-6.78l-35.21 21.26v-41.12c0-11.05-8.95-20-20-20s-20 8.95-20 20v41.13l-35.21-21.26c-9.45-5.71-21.75-2.68-27.46 6.78-5.71 9.46-2.68 21.75 6.78 27.46l37.19 22.46-37.2 22.46c-9.45 5.71-12.49 18-6.78 27.46 3.76 6.23 10.37 9.67 17.14 9.67 3.52 0 7.09-0.93 10.32-2.89l35.22-21.27v41.16c0 11.05 8.95 20 20 20s20-8.96 20-20v-41.15l35.22 21.27c3.23 1.95 6.8 2.88 10.32 2.88 6.77 0 13.38-3.44 17.14-9.66 5.71-9.46 2.68-21.74-6.78-27.46zM587.9 883.81l-37.22-22.47 37.21-22.47c9.45-5.71 12.49-18 6.78-27.46-5.71-9.45-18-12.49-27.46-6.78L532 825.9v-41.12c0-11.05-8.95-20-20-20s-20 8.95-20 20v41.13l-35.21-21.26c-9.46-5.71-21.75-2.67-27.46 6.78-5.71 9.46-2.68 21.75 6.78 27.46l37.19 22.46-37.2 22.46c-9.45 5.71-12.49 18-6.78 27.46 3.76 6.23 10.37 9.67 17.14 9.67 3.52 0 7.09-0.93 10.32-2.89L492 896.78v41.16c0 11.05 8.95 20 20 20s20-8.96 20-20v-41.15l35.22 21.27c3.23 1.95 6.8 2.88 10.32 2.88 6.77 0 13.38-3.44 17.14-9.66 5.71-9.47 2.68-21.76-6.78-27.47zM353.16 801.67l-37.22-22.47 37.21-22.47c9.45-5.71 12.49-18 6.78-27.46-5.71-9.45-18-12.49-27.46-6.78l-35.21 21.26v-41.12c0-11.05-8.95-20-20-20s-20 8.95-20 20v41.13l-35.21-21.26c-9.46-5.71-21.75-2.67-27.46 6.78-5.71 9.46-2.68 21.75 6.78 27.46l37.19 22.46-37.2 22.46c-9.45 5.71-12.49 18-6.78 27.46 3.76 6.23 10.37 9.67 17.14 9.67 3.52 0 7.09-0.93 10.32-2.89l35.22-21.27v41.16c0 11.05 8.95 20 20 20 11.04 0 20-8.96 20-20v-41.15l35.22 21.27c3.23 1.95 6.8 2.88 10.32 2.88 6.77 0 13.38-3.44 17.14-9.66 5.71-9.46 2.68-21.74-6.78-27.46z" fill="#76AAEE" p-id="2902"></path></svg>