<?xml version="1.0" standalone="no"?><!DOCTYPE svg PUBLIC "-//W3C//DTD SVG 1.1//EN" "http://www.w3.org/Graphics/SVG/1.1/DTD/svg11.dtd"><svg t="1711521648973" class="icon" viewBox="0 0 1024 1024" version="1.1" xmlns="http://www.w3.org/2000/svg" p-id="3736" xmlns:xlink="http://www.w3.org/1999/xlink" width="200" height="200"><path d="M889.97 313.4c-37.82-37.82-87.92-58.64-141.08-58.64h-31.25c-12.55-49.2-39.76-93.81-78.37-127.74C593.03 86.39 533.63 64 472.01 64c-61.92 0-121.54 22.58-167.88 63.57-39.99 35.37-67.62 82.18-79.31 133.65-86.67 22.63-149.43 101.86-149.43 193.27 0 53.17 20.82 103.26 58.64 141.08 37.82 37.82 87.92 58.64 141.08 58.64h473.76c53.16 0 103.26-20.82 141.08-58.64 37.82-37.82 58.64-87.92 58.64-141.08 0.02-53.17-20.8-103.27-58.62-141.09zM593.8 832.52l-40.11-24.22 40.1-24.22c10.19-6.15 13.46-19.4 7.31-29.6-6.15-10.19-19.4-13.46-29.6-7.31l-37.95 22.92v-44.32c0-11.91-9.65-21.56-21.56-21.56-11.91 0-21.56 9.65-21.56 21.56v44.33l-37.95-22.92c-10.2-6.15-23.44-2.88-29.6 7.31-6.15 10.2-2.89 23.44 7.31 29.6l40.08 24.2-40.09 24.21c-10.19 6.15-13.46 19.4-7.31 29.6 4.05 6.71 11.18 10.42 18.47 10.42 3.79 0 7.64-1 11.12-3.11l37.96-22.92v44.36c0 11.91 9.65 21.56 21.56 21.56 11.91 0 21.56-9.66 21.56-21.56V846.5l37.96 22.92c3.48 2.1 7.33 3.1 11.12 3.1 7.3 0 14.42-3.71 18.47-10.41 6.18-10.19 2.91-23.43-7.29-29.59z" fill="#67ABF5" p-id="3737"></path></svg>