<svg t="1710820621449" class="icon" viewBox="0 0 1024 1024" version="1.1" xmlns="http://www.w3.org/2000/svg" p-id="10061" width="200" height="200"><path d="M862.68 329.28c-35.09-35.09-81.57-54.41-130.9-54.41h-28.99c-11.64-45.65-36.89-87.04-72.71-118.52-42.9-37.7-98.01-58.47-155.18-58.47-57.45 0-112.77 20.95-155.76 58.98-37.1 32.82-62.74 76.25-73.58 124-80.42 21-138.65 94.51-138.65 179.32 0 49.33 19.32 95.81 54.41 130.9 35.09 35.09 81.57 54.41 130.9 54.41h439.56c49.32 0 95.81-19.32 130.9-54.41s54.41-81.57 54.41-130.9c0-49.33-19.32-95.81-54.41-130.9zM645.16 785.8H175.34c-16.57 0-30-13.43-30-30s13.43-30 30-30h469.82c16.57 0 30 13.43 30 30s-13.43 30-30 30zM751.45 785.8c-0.49 0-0.98-0.01-1.48-0.03-0.48-0.03-0.98-0.07-1.47-0.12-0.48-0.04-0.98-0.11-1.46-0.18s-0.97-0.16-1.45-0.25c-0.48-0.1-0.96-0.21-1.43-0.33s-0.95-0.25-1.42-0.39c-0.46-0.15-0.93-0.3-1.39-0.47-0.46-0.16-0.92-0.34-1.37-0.52-0.45-0.19-0.9-0.39-1.34-0.6-0.44-0.21-0.89-0.43-1.32-0.66-0.43-0.23-0.86-0.47-1.28-0.72s-0.83-0.51-1.24-0.78c-0.41-0.27-0.81-0.56-1.2-0.85-0.4-0.29-0.79-0.59-1.17-0.9s-0.75-0.64-1.12-0.96c-0.36-0.33-0.72-0.68-1.07-1.02-0.35-0.35-0.69-0.71-1.02-1.08-0.33-0.36-0.65-0.73-0.96-1.11-0.31-0.38-0.61-0.77-0.91-1.17-0.28-0.39-0.57-0.8-0.84-1.2-0.27-0.41-0.53-0.83-0.78-1.25s-0.5-0.85-0.72-1.28c-0.23-0.43-0.46-0.87-0.66-1.31-0.21-0.44-0.41-0.89-0.6-1.34-0.18-0.45-0.36-0.91-0.53-1.37-0.16-0.46-0.32-0.93-0.46-1.4-0.14-0.46-0.27-0.94-0.39-1.41s-0.23-0.96-0.33-1.43c-0.1-0.48-0.18-0.97-0.25-1.45-0.08-0.49-0.14-0.98-0.19-1.47-0.05-0.48-0.08-0.98-0.11-1.47-0.02-0.49-0.04-0.99-0.04-1.48s0.02-0.99 0.04-1.48c0.03-0.48 0.06-0.98 0.11-1.47 0.05-0.48 0.11-0.98 0.19-1.46 0.07-0.48 0.15-0.97 0.25-1.45s0.21-0.96 0.33-1.43c0.11-0.48 0.25-0.95 0.39-1.42 0.14-0.46 0.3-0.93 0.46-1.39 0.17-0.46 0.34-0.92 0.53-1.37 0.19-0.45 0.39-0.9 0.6-1.34 0.2-0.44 0.42-0.89 0.65-1.32 0.23-0.43 0.48-0.86 0.73-1.28 0.25-0.41 0.51-0.83 0.78-1.24s0.55-0.81 0.84-1.2c0.3-0.4 0.6-0.79 0.91-1.17 0.31-0.38 0.63-0.75 0.96-1.12 0.33-0.36 0.67-0.72 1.02-1.07 0.35-0.35 0.71-0.69 1.07-1.02 0.37-0.33 0.74-0.65 1.12-0.96s0.77-0.61 1.17-0.91c0.39-0.28 0.79-0.57 1.2-0.84 0.41-0.27 0.82-0.53 1.24-0.78 0.42-0.25 0.85-0.5 1.28-0.73 0.43-0.22 0.88-0.45 1.32-0.65 0.44-0.21 0.89-0.41 1.34-0.6 0.45-0.18 0.91-0.36 1.37-0.53 0.46-0.16 0.93-0.32 1.39-0.46 0.47-0.14 0.95-0.27 1.42-0.39s0.95-0.23 1.43-0.33 0.97-0.18 1.45-0.25c0.48-0.08 0.98-0.14 1.46-0.19 0.49-0.05 0.99-0.08 1.47-0.11 0.99-0.05 1.98-0.05 2.96 0 0.49 0.03 0.99 0.06 1.47 0.11 0.49 0.05 0.98 0.11 1.47 0.19 0.48 0.07 0.97 0.15 1.44 0.25a32.517 32.517 0 0 1 2.85 0.72c0.47 0.14 0.94 0.3 1.4 0.46 0.46 0.17 0.92 0.35 1.37 0.53 0.45 0.19 0.9 0.39 1.34 0.6 0.44 0.2 0.88 0.43 1.31 0.65 0.43 0.23 0.86 0.48 1.28 0.73 0.42 0.25 0.84 0.51 1.25 0.78 0.4 0.27 0.81 0.56 1.2 0.84 0.4 0.3 0.79 0.6 1.17 0.91 0.37 0.31 0.75 0.63 1.11 0.96 0.37 0.33 0.73 0.67 1.08 1.02 0.34 0.35 0.69 0.71 1.02 1.07 0.32 0.37 0.65 0.74 0.96 1.12 0.31 0.38 0.61 0.77 0.9 1.17 0.29 0.39 0.58 0.79 0.85 1.2 0.27 0.41 0.53 0.83 0.78 1.24 0.25 0.42 0.49 0.85 0.72 1.28 0.23 0.43 0.45 0.88 0.66 1.32 0.21 0.44 0.41 0.89 0.59 1.34 0.19 0.45 0.37 0.91 0.53 1.37 0.17 0.46 0.32 0.93 0.47 1.39 0.14 0.47 0.27 0.94 0.39 1.42 0.12 0.47 0.23 0.95 0.33 1.43 0.09 0.48 0.18 0.97 0.25 1.45s0.14 0.98 0.18 1.46c0.05 0.49 0.09 0.99 0.12 1.47a36.533 36.533 0 0 1 0 2.96c-0.03 0.49-0.07 0.99-0.12 1.47-0.04 0.49-0.11 0.98-0.18 1.47-0.07 0.48-0.16 0.97-0.25 1.45-0.1 0.47-0.21 0.96-0.33 1.43s-0.25 0.95-0.39 1.41c-0.15 0.47-0.3 0.94-0.47 1.4-0.16 0.46-0.34 0.92-0.53 1.37-0.18 0.45-0.38 0.9-0.59 1.34a32.08 32.08 0 0 1-1.38 2.59c-0.25 0.42-0.52 0.84-0.78 1.25-0.28 0.4-0.56 0.81-0.85 1.2-0.29 0.4-0.59 0.79-0.9 1.17-0.31 0.38-0.64 0.75-0.97 1.11-0.33 0.37-0.67 0.73-1.02 1.08-0.34 0.34-0.7 0.69-1.07 1.02-0.36 0.32-0.74 0.65-1.12 0.96-0.37 0.31-0.77 0.61-1.16 0.9-0.39 0.29-0.8 0.58-1.21 0.85-0.4 0.27-0.82 0.53-1.24 0.78a32.194 32.194 0 0 1-3.93 1.98c-0.45 0.18-0.91 0.36-1.37 0.52-0.46 0.17-0.93 0.32-1.4 0.47a32.517 32.517 0 0 1-2.85 0.72c-0.47 0.09-0.96 0.18-1.44 0.25-0.49 0.07-0.98 0.14-1.47 0.18-0.48 0.05-0.98 0.09-1.47 0.12-0.49 0.02-0.99 0.03-1.48 0.03z" fill="#76AAEE" p-id="10062"></path><path d="M742.37 926.11H272.55c-16.57 0-30-13.43-30-30s13.43-30 30-30h469.82c16.57 0 30 13.43 30 30s-13.43 30-30 30zM848.66 926.12c-0.49 0-0.99-0.02-1.48-0.04-0.49-0.03-0.98-0.06-1.47-0.11s-0.98-0.11-1.46-0.19c-0.49-0.07-0.97-0.15-1.45-0.25s-0.96-0.21-1.44-0.33c-0.47-0.12-0.95-0.25-1.41-0.39-0.47-0.14-0.94-0.3-1.4-0.46-0.46-0.17-0.92-0.35-1.37-0.53a32.167 32.167 0 0 1-3.93-1.98c-0.42-0.25-0.84-0.51-1.24-0.78-0.41-0.27-0.82-0.56-1.21-0.85s-0.79-0.59-1.16-0.9c-0.38-0.31-0.76-0.63-1.12-0.96-0.37-0.33-0.73-0.68-1.08-1.02-0.34-0.35-0.69-0.71-1.01-1.07-0.33-0.37-0.66-0.74-0.97-1.12-0.31-0.38-0.61-0.77-0.9-1.17-0.29-0.39-0.58-0.79-0.85-1.2-0.27-0.41-0.53-0.83-0.78-1.25-0.25-0.41-0.49-0.84-0.72-1.28-0.23-0.43-0.45-0.87-0.66-1.31s-0.41-0.89-0.59-1.34c-0.19-0.45-0.37-0.91-0.53-1.37-0.17-0.46-0.32-0.93-0.47-1.39-0.14-0.47-0.27-0.95-0.39-1.42s-0.23-0.95-0.33-1.43c-0.09-0.48-0.18-0.97-0.25-1.45-0.07-0.49-0.14-0.98-0.18-1.46-0.05-0.49-0.09-0.99-0.12-1.47a36.906 36.906 0 0 1 0-2.96c0.03-0.49 0.07-0.99 0.12-1.47 0.04-0.49 0.11-0.98 0.18-1.47 0.07-0.48 0.16-0.97 0.25-1.45 0.1-0.48 0.21-0.96 0.33-1.43s0.25-0.95 0.39-1.42c0.15-0.46 0.3-0.93 0.47-1.39 0.16-0.46 0.34-0.92 0.53-1.37 0.18-0.45 0.38-0.9 0.59-1.34 0.21-0.44 0.43-0.88 0.66-1.32 0.23-0.43 0.47-0.86 0.72-1.27 0.25-0.42 0.51-0.84 0.78-1.25s0.56-0.81 0.85-1.2c0.29-0.4 0.59-0.79 0.9-1.17 0.31-0.38 0.64-0.75 0.97-1.12 0.32-0.36 0.67-0.72 1.01-1.07 0.35-0.34 0.71-0.69 1.08-1.02 0.36-0.32 0.74-0.65 1.12-0.96 0.37-0.31 0.76-0.61 1.16-0.9 0.39-0.29 0.8-0.58 1.2-0.85a32.51 32.51 0 0 1 3.84-2.16c0.44-0.21 0.89-0.41 1.34-0.6 0.45-0.18 0.91-0.36 1.37-0.53 0.46-0.16 0.93-0.32 1.4-0.46a32.517 32.517 0 0 1 2.85-0.72c0.47-0.1 0.96-0.18 1.45-0.25 0.48-0.08 0.97-0.14 1.46-0.19 0.49-0.05 0.98-0.08 1.47-0.11 0.98-0.05 1.97-0.05 2.96 0 0.49 0.03 0.98 0.06 1.47 0.11s0.98 0.11 1.46 0.19c0.48 0.07 0.97 0.15 1.45 0.25s0.96 0.21 1.43 0.33c0.48 0.12 0.95 0.25 1.42 0.39 0.46 0.14 0.93 0.3 1.39 0.46 0.46 0.17 0.92 0.35 1.37 0.53 0.45 0.19 0.9 0.39 1.35 0.6a32.08 32.08 0 0 1 2.59 1.38c0.42 0.25 0.83 0.51 1.24 0.78 0.41 0.27 0.81 0.56 1.21 0.85 0.39 0.29 0.78 0.59 1.16 0.9 0.38 0.31 0.76 0.64 1.12 0.96 0.36 0.33 0.72 0.68 1.07 1.02 0.35 0.35 0.69 0.71 1.02 1.07 0.33 0.37 0.65 0.74 0.96 1.12 0.31 0.38 0.62 0.77 0.91 1.17 0.29 0.39 0.57 0.79 0.84 1.2 0.27 0.41 0.53 0.83 0.78 1.25 0.25 0.41 0.5 0.84 0.73 1.27 0.23 0.44 0.45 0.88 0.66 1.32 0.2 0.44 0.4 0.89 0.59 1.34 0.19 0.45 0.36 0.91 0.53 1.37 0.16 0.46 0.32 0.93 0.46 1.39 0.14 0.47 0.28 0.95 0.4 1.42 0.11 0.47 0.22 0.95 0.32 1.43s0.18 0.97 0.26 1.45c0.07 0.49 0.13 0.98 0.18 1.47 0.05 0.48 0.09 0.98 0.11 1.47 0.03 0.49 0.04 0.99 0.04 1.48s-0.01 0.98-0.04 1.48c-0.02 0.48-0.06 0.98-0.11 1.47-0.05 0.48-0.11 0.97-0.18 1.46-0.08 0.48-0.16 0.97-0.26 1.45s-0.21 0.96-0.33 1.43c-0.11 0.47-0.25 0.95-0.39 1.42-0.14 0.46-0.3 0.93-0.46 1.39-0.17 0.46-0.34 0.92-0.53 1.37-0.19 0.45-0.39 0.9-0.6 1.34-0.2 0.44-0.43 0.88-0.65 1.31-0.23 0.44-0.48 0.87-0.73 1.28-0.25 0.42-0.51 0.84-0.78 1.25s-0.55 0.81-0.84 1.2c-0.29 0.4-0.6 0.79-0.91 1.17-0.31 0.38-0.63 0.75-0.96 1.12-0.33 0.36-0.67 0.72-1.02 1.07-0.35 0.34-0.71 0.69-1.07 1.02s-0.74 0.65-1.12 0.96-0.77 0.61-1.16 0.9c-0.4 0.29-0.8 0.58-1.21 0.85-0.41 0.27-0.82 0.53-1.24 0.78-0.42 0.25-0.85 0.49-1.28 0.72-0.43 0.23-0.87 0.45-1.32 0.66-0.44 0.21-0.89 0.41-1.34 0.6-0.45 0.18-0.91 0.36-1.37 0.53-0.46 0.16-0.93 0.32-1.39 0.46-0.47 0.14-0.94 0.27-1.42 0.39-0.47 0.12-0.95 0.23-1.43 0.33s-0.97 0.18-1.45 0.25c-0.48 0.08-0.98 0.14-1.46 0.19-0.49 0.05-0.98 0.08-1.47 0.11-0.49 0.02-0.99 0.04-1.48 0.04z" fill="#76AAEE" p-id="10063"></path></svg>