<svg t="1709470381524" class="icon" viewBox="0 0 1024 1024" version="1.1" xmlns="http://www.w3.org/2000/svg" p-id="1052" width="200" height="200"><path d="M900.12 467.07c-38.45-38.45-89.39-59.63-143.45-59.63h-34.78c-12.52-51.14-40.55-97.57-80.56-132.74-47.17-41.46-107.77-64.29-170.63-64.29-63.17 0-123.99 23.02-171.27 64.85-41.29 36.53-69.67 85.01-81.33 138.27-89.11 22.34-153.85 103.39-153.85 197 0 54.04 21.18 104.99 59.63 143.45 38.44 38.45 89.39 59.63 143.45 59.63h489.35c54.04 0 104.99-21.17 143.45-59.63 38.45-38.44 59.63-89.39 59.63-143.45-0.01-54.06-21.18-105-59.64-143.46z" fill="#67ABF5" p-id="1053"></path></svg>