<svg t="1709470412177" class="icon" viewBox="0 0 1024 1024" version="1.1" xmlns="http://www.w3.org/2000/svg" p-id="1200" width="200" height="200"><path d="M731.78 272.49h-53.64C664.4 172.52 578.65 95.5 474.9 95.5c-104.24 0-190.31 77.73-203.43 178.39-75.7 10.22-134.55 75.52-134.55 153.91 0 85.42 69.89 155.31 155.31 155.31h439.55c85.42 0 155.31-69.89 155.31-155.31-0.01-85.42-69.9-155.31-155.31-155.31z" fill="#76AAEE" p-id="1201"></path><path d="M731.78 613.11H292.22c-49.33 0-95.81-19.32-130.9-54.41-35.09-35.09-54.41-81.57-54.41-130.9 0-84.81 58.23-158.32 138.65-179.32 10.84-47.75 36.48-91.18 73.58-124C362.13 86.45 417.45 65.5 474.9 65.5c57.17 0 112.28 20.77 155.18 58.47 35.82 31.48 61.07 72.87 72.71 118.52h28.99c49.33 0 95.81 19.32 130.9 54.41 35.09 35.09 54.41 81.57 54.41 130.9s-19.32 95.81-54.41 130.9c-35.09 35.09-81.58 54.41-130.9 54.41zM474.9 125.5c-42.8 0-83.99 15.6-116 43.92-31.75 28.09-52.23 66.57-57.68 108.35l-2.97 22.78-22.76 3.07c-61.9 8.36-108.57 61.74-108.57 124.18 0 33.3 13.08 64.72 36.83 88.47s55.17 36.83 88.47 36.83h439.55c33.3 0 64.72-13.08 88.47-36.83s36.83-55.17 36.83-88.47-13.08-64.72-36.83-88.47-55.17-36.83-88.47-36.83h-79.8l-3.56-25.92c-5.7-41.51-26.28-79.71-57.95-107.54-31.93-28.07-72.97-43.54-115.56-43.54z" fill="#76AAEE" p-id="1202"></path><path d="M356.77 793.59l-0.41-1.24a59.29 59.29 0 0 0-2.56-6.22c-1.27-2.65-2.56-5.3-3.75-7.99l-49.13-110.69c-0.71-1.6-2.99-1.6-3.7 0l-49.13 110.69c-1.19 2.69-2.48 5.34-3.75 7.99-0.96 2.01-1.82 4.09-2.56 6.22l-0.41 1.24a60.428 60.428 0 0 0-2.91 18.59c0 3.66 0.32 7.24 0.94 10.72 5.06 28.36 29.85 49.89 59.66 49.89 29.82 0 54.6-21.53 59.66-49.89 0.62-3.48 0.94-7.06 0.94-10.72a60.12 60.12 0 0 0-2.89-18.59zM597.45 879.3l-0.41-1.24a59.29 59.29 0 0 0-2.56-6.22c-1.27-2.65-2.56-5.3-3.75-7.99L541.6 753.16c-0.71-1.6-2.99-1.6-3.7 0l-49.13 110.69c-1.19 2.69-2.48 5.34-3.75 7.99-0.96 2.01-1.82 4.09-2.56 6.22l-0.41 1.24a60.428 60.428 0 0 0-2.91 18.59c0 3.66 0.32 7.24 0.94 10.72 5.06 28.36 29.85 49.89 59.66 49.89 29.82 0 54.6-21.53 59.66-49.89 0.62-3.48 0.94-7.06 0.94-10.72 0.02-6.49-1-12.74-2.89-18.59zM719.99 848.53c-11.05 0-20-8.95-20-20V675.37c0-11.05 8.95-20 20-20s20 8.95 20 20v153.16c0 11.05-8.96 20-20 20z" fill="#76AAEE" p-id="1203"></path><path d="M654.45 811.54c-6.77 0-13.38-3.44-17.14-9.67-5.71-9.46-2.67-21.75 6.78-27.46l131.11-79.17c9.45-5.71 21.75-2.67 27.46 6.78 5.71 9.46 2.67 21.75-6.78 27.46l-131.11 79.17c-3.24 1.96-6.8 2.89-10.32 2.89z" fill="#76AAEE" p-id="1204"></path><path d="M785.52 811.54c-3.52 0-7.09-0.93-10.32-2.88l-131.11-79.17c-9.46-5.71-12.49-18-6.78-27.46s18.01-12.49 27.46-6.78l131.11 79.17c9.46 5.71 12.49 18 6.78 27.46-3.75 6.22-10.36 9.66-17.14 9.66z" fill="#76AAEE" p-id="1205"></path></svg>