<?xml version="1.0" standalone="no"?><!DOCTYPE svg PUBLIC "-//W3C//DTD SVG 1.1//EN" "http://www.w3.org/Graphics/SVG/1.1/DTD/svg11.dtd"><svg t="1711521641178" class="icon" viewBox="0 0 1024 1024" version="1.1" xmlns="http://www.w3.org/2000/svg" p-id="3568" xmlns:xlink="http://www.w3.org/1999/xlink" width="200" height="200"><path d="M862.68 313.2c-35.09-35.09-81.57-54.41-130.9-54.41h-28.99c-11.64-45.65-36.89-87.04-72.71-118.52-42.9-37.7-98.01-58.47-155.18-58.47-57.45 0-112.77 20.95-155.76 58.98-37.1 32.82-62.74 76.25-73.58 124-80.42 21-138.65 94.51-138.65 179.32 0 49.33 19.32 95.81 54.41 130.9 35.09 35.09 81.57 54.41 130.9 54.41h439.56c49.32 0 95.81-19.32 130.9-54.41 35.09-35.09 54.41-81.57 54.41-130.9 0-49.33-19.32-95.81-54.41-130.9zM698.31 732.03H228.49c-16.57 0-30-13.43-30-30s13.43-30 30-30h469.82c16.57 0 30 13.43 30 30 0 16.56-13.43 30-30 30zM698.31 942.2H228.49c-16.57 0-30-13.43-30-30s13.43-30 30-30h469.82c16.57 0 30 13.43 30 30 0 16.58-13.43 30-30 30zM795.51 834.64H325.69c-16.57 0-30-13.43-30-30s13.43-30 30-30h469.82c16.57 0 30 13.43 30 30 0 16.56-13.43 30-30 30z" fill="#76AAEE" p-id="3569"></path></svg>