<svg t="1711520115964" class="icon" viewBox="0 0 1024 1024" version="1.1" xmlns="http://www.w3.org/2000/svg" p-id="3133" width="200" height="200"><path d="M511.24 511.51c0 101.42-129.17 184.13-230.59 184.13S97 613.42 97 512s82.22-183.65 183.65-183.65 230.59 81.74 230.59 183.16z" fill="#76AAEE" p-id="3134"></path><path d="M280.65 725.65c-57.07 0-110.72-22.22-151.07-62.58C89.23 622.72 67 569.07 67 512s22.22-110.72 62.58-151.07c40.35-40.35 94-62.58 151.07-62.58 56.64 0 120.61 22.2 171.12 59.39 26.58 19.57 47.83 41.93 63.15 66.47 17.47 27.97 26.32 57.34 26.32 87.3 0 29.95-8.85 59.35-26.29 87.4-15.32 24.63-36.55 47.1-63.1 66.79-50.6 37.54-114.6 59.95-171.2 59.95z m0-367.3C195.93 358.35 127 427.28 127 512s68.93 153.65 153.65 153.65c43.53 0 95.44-18.44 135.46-48.13 41.39-30.7 65.13-69.34 65.13-106.01 0-81.04-112.17-153.16-200.59-153.16z" fill="#76AAEE" p-id="3135"></path><path d="M512.76 511.51c0 101.42 129.17 184.13 230.59 184.13S927 613.42 927 512s-82.22-183.65-183.65-183.65-230.59 81.74-230.59 183.16z" fill="#76AAEE" p-id="3136"></path><path d="M743.35 725.65c-56.6 0-120.6-22.41-171.2-59.94-26.55-19.69-47.78-42.17-63.1-66.79-17.45-28.05-26.29-57.46-26.29-87.4 0-29.96 8.86-59.33 26.32-87.3 15.33-24.54 36.57-46.9 63.15-66.47 50.5-37.19 114.47-59.39 171.12-59.39 57.07 0 110.72 22.22 151.07 62.58 40.35 40.35 62.58 94 62.58 151.07s-22.22 110.72-62.58 151.07-94 62.57-151.07 62.57z m0-367.3c-88.42 0-200.59 72.11-200.59 153.16 0 36.67 23.74 75.3 65.13 106.01 40.02 29.69 91.93 48.13 135.46 48.13C828.07 665.65 897 596.73 897 512c0-84.72-68.93-153.65-153.65-153.65z" fill="#76AAEE" p-id="3137"></path><path d="M175.39 243.98c-0.49 0-0.99-0.01-1.48-0.03a36.38 36.38 0 0 1-2.93-0.3c-0.49-0.07-0.97-0.16-1.45-0.26-0.48-0.09-0.96-0.2-1.44-0.32-0.47-0.12-0.95-0.25-1.41-0.39-0.47-0.15-0.94-0.3-1.4-0.47-0.45-0.16-0.92-0.34-1.37-0.53-0.45-0.18-0.9-0.38-1.34-0.59s-0.88-0.43-1.31-0.66-0.86-0.47-1.28-0.72-0.84-0.51-1.24-0.78c-0.41-0.27-0.82-0.56-1.21-0.85s-0.78-0.59-1.16-0.9-0.76-0.64-1.12-0.96c-0.37-0.33-0.73-0.68-1.07-1.02-0.35-0.35-0.69-0.71-1.02-1.08-0.33-0.36-0.66-0.74-0.97-1.12-0.3-0.37-0.61-0.77-0.9-1.16a32.338 32.338 0 0 1-1.63-2.45 32.194 32.194 0 0 1-1.38-2.59 22.7 22.7 0 0 1-0.59-1.34c-0.19-0.45-0.37-0.91-0.53-1.37-0.17-0.46-0.32-0.93-0.46-1.4-0.15-0.46-0.28-0.94-0.4-1.41s-0.23-0.96-0.32-1.43c-0.1-0.48-0.19-0.97-0.26-1.45-0.07-0.49-0.13-0.98-0.18-1.47-0.05-0.48-0.09-0.98-0.11-1.47-0.03-0.49-0.04-0.99-0.04-1.48s0.01-0.98 0.04-1.48c0.02-0.48 0.06-0.98 0.11-1.47 0.05-0.48 0.11-0.98 0.18-1.46 0.07-0.48 0.16-0.97 0.26-1.45 0.09-0.48 0.2-0.96 0.32-1.43 0.12-0.48 0.25-0.95 0.4-1.42 0.14-0.46 0.29-0.93 0.46-1.39 0.16-0.46 0.34-0.92 0.53-1.37 0.18-0.45 0.38-0.9 0.59-1.34 0.21-0.45 0.43-0.89 0.66-1.32 0.23-0.43 0.47-0.86 0.72-1.28s0.52-0.83 0.79-1.24 0.55-0.81 0.84-1.21c0.29-0.39 0.6-0.78 0.9-1.16 0.31-0.38 0.64-0.76 0.97-1.12s0.67-0.72 1.02-1.07c0.34-0.35 0.7-0.69 1.07-1.02 0.36-0.33 0.74-0.65 1.12-0.96 0.38-0.31 0.77-0.62 1.16-0.91s0.8-0.57 1.21-0.84c0.4-0.27 0.82-0.53 1.24-0.78s0.85-0.5 1.28-0.73c0.43-0.22 0.87-0.45 1.31-0.65 0.44-0.21 0.89-0.41 1.34-0.6 0.45-0.18 0.92-0.36 1.37-0.53 0.46-0.16 0.93-0.32 1.4-0.46 0.46-0.14 0.94-0.28 1.41-0.39 0.48-0.12 0.96-0.23 1.44-0.33s0.96-0.18 1.45-0.26c0.48-0.07 0.97-0.13 1.46-0.18 0.49-0.05 0.98-0.09 1.47-0.11 0.98-0.05 1.98-0.05 2.96 0 0.49 0.02 0.98 0.06 1.47 0.11 0.48 0.05 0.98 0.11 1.46 0.18 0.48 0.08 0.97 0.16 1.45 0.26s0.96 0.21 1.43 0.33c0.48 0.11 0.95 0.25 1.42 0.39 0.46 0.14 0.93 0.3 1.39 0.46 0.46 0.17 0.92 0.35 1.37 0.53 0.45 0.19 0.9 0.39 1.35 0.6 0.44 0.2 0.88 0.43 1.31 0.65 0.43 0.23 0.86 0.48 1.28 0.73s0.84 0.51 1.24 0.78c0.41 0.27 0.81 0.55 1.21 0.84 0.39 0.29 0.78 0.6 1.16 0.91s0.76 0.63 1.12 0.96c0.37 0.33 0.73 0.67 1.07 1.02 0.35 0.35 0.69 0.71 1.02 1.07s0.65 0.74 0.96 1.12c0.31 0.38 0.62 0.77 0.91 1.16 0.29 0.4 0.57 0.8 0.84 1.21 0.27 0.41 0.54 0.82 0.79 1.24 0.24 0.42 0.49 0.85 0.72 1.28s0.45 0.87 0.66 1.32c0.2 0.44 0.4 0.89 0.59 1.34s0.36 0.91 0.53 1.37a33.036 33.036 0 0 1 0.86 2.81c0.12 0.47 0.23 0.95 0.32 1.43 0.1 0.48 0.18 0.97 0.26 1.45 0.07 0.48 0.13 0.98 0.18 1.46 0.05 0.49 0.09 0.99 0.11 1.47 0.03 0.5 0.04 0.99 0.04 1.48s-0.01 0.99-0.04 1.48c-0.02 0.49-0.06 0.99-0.11 1.47-0.05 0.49-0.11 0.98-0.18 1.47-0.08 0.48-0.16 0.97-0.26 1.45-0.09 0.47-0.2 0.96-0.32 1.43s-0.26 0.95-0.4 1.41c-0.14 0.47-0.3 0.94-0.46 1.4-0.17 0.46-0.34 0.92-0.53 1.37s-0.39 0.9-0.59 1.34c-0.21 0.44-0.43 0.88-0.66 1.31-0.23 0.43-0.48 0.86-0.72 1.28a32.338 32.338 0 0 1-1.63 2.45c-0.29 0.39-0.6 0.79-0.91 1.16-0.31 0.38-0.63 0.76-0.96 1.12-0.33 0.37-0.67 0.73-1.02 1.08-0.34 0.34-0.7 0.69-1.07 1.02-0.36 0.32-0.74 0.65-1.12 0.96-0.38 0.31-0.77 0.61-1.16 0.9-0.4 0.29-0.8 0.58-1.21 0.85-0.4 0.27-0.82 0.53-1.24 0.78s-0.85 0.49-1.28 0.72-0.87 0.45-1.31 0.66c-0.45 0.21-0.9 0.41-1.35 0.59-0.45 0.19-0.91 0.37-1.37 0.53-0.46 0.17-0.93 0.32-1.39 0.47-0.47 0.14-0.94 0.27-1.42 0.39-0.47 0.12-0.95 0.23-1.43 0.32-0.48 0.1-0.97 0.19-1.45 0.26a36.343 36.343 0 0 1-2.93 0.3c-0.49 0.02-0.99 0.03-1.48 0.03z" fill="#76AAEE" p-id="3138"></path><path d="M512 243.98c-0.49 0-0.99-0.01-1.48-0.03-0.49-0.03-0.98-0.07-1.47-0.11-0.49-0.05-0.98-0.12-1.46-0.19-0.49-0.07-0.97-0.16-1.45-0.25-0.48-0.1-0.96-0.21-1.44-0.33-0.47-0.12-0.94-0.25-1.41-0.39-0.47-0.15-0.94-0.3-1.39-0.47-0.46-0.16-0.92-0.34-1.37-0.53-0.45-0.18-0.91-0.38-1.35-0.59a32.08 32.08 0 0 1-2.59-1.38c-0.42-0.25-0.84-0.51-1.24-0.78-0.41-0.27-0.82-0.56-1.21-0.85-0.39-0.29-0.78-0.59-1.16-0.9s-0.76-0.64-1.12-0.96c-0.37-0.33-0.73-0.68-1.07-1.02-0.35-0.35-0.69-0.71-1.02-1.08-0.33-0.36-0.65-0.74-0.96-1.12-0.31-0.37-0.62-0.77-0.91-1.16a32.338 32.338 0 0 1-1.63-2.45 32.194 32.194 0 0 1-1.38-2.59 22.7 22.7 0 0 1-0.59-1.34c-0.19-0.45-0.37-0.91-0.53-1.37-0.17-0.46-0.32-0.93-0.46-1.4-0.15-0.46-0.28-0.94-0.4-1.41-0.12-0.48-0.23-0.96-0.32-1.44-0.1-0.48-0.19-0.96-0.26-1.45-0.07-0.48-0.13-0.97-0.18-1.46s-0.09-0.98-0.11-1.47c-0.03-0.49-0.04-0.99-0.04-1.48s0.01-0.99 0.04-1.48c0.02-0.49 0.06-0.98 0.11-1.47 0.05-0.48 0.11-0.98 0.18-1.46 0.07-0.48 0.16-0.97 0.26-1.45 0.09-0.48 0.2-0.96 0.32-1.43 0.12-0.48 0.25-0.95 0.4-1.42 0.14-0.46 0.29-0.93 0.46-1.39 0.16-0.46 0.34-0.92 0.53-1.37 0.18-0.45 0.38-0.9 0.59-1.34 0.21-0.45 0.43-0.89 0.66-1.32 0.23-0.43 0.47-0.86 0.72-1.28s0.52-0.83 0.79-1.24c0.27-0.41 0.55-0.81 0.84-1.21 0.29-0.39 0.6-0.78 0.91-1.16s0.63-0.76 0.96-1.12 0.67-0.72 1.02-1.07c0.34-0.35 0.7-0.69 1.07-1.02 0.36-0.33 0.74-0.65 1.12-0.96 0.38-0.31 0.77-0.61 1.16-0.91 0.39-0.29 0.8-0.57 1.21-0.84 0.4-0.27 0.82-0.53 1.24-0.78s0.85-0.5 1.28-0.73c0.43-0.22 0.87-0.45 1.31-0.65 0.44-0.21 0.9-0.41 1.35-0.6s0.91-0.36 1.37-0.53c0.45-0.16 0.92-0.32 1.39-0.46s0.94-0.28 1.41-0.39c0.48-0.12 0.96-0.23 1.44-0.33s0.96-0.18 1.45-0.26c0.48-0.07 0.97-0.13 1.46-0.18 0.49-0.05 0.98-0.09 1.47-0.11 0.98-0.05 1.98-0.05 2.96 0 0.49 0.02 0.98 0.06 1.47 0.11s0.98 0.11 1.46 0.18c0.49 0.08 0.97 0.16 1.45 0.26s0.96 0.21 1.44 0.33c0.47 0.11 0.94 0.25 1.41 0.39s0.94 0.3 1.39 0.46c0.46 0.17 0.92 0.34 1.37 0.53s0.91 0.39 1.35 0.6c0.44 0.2 0.88 0.43 1.31 0.65 0.43 0.23 0.86 0.48 1.28 0.73s0.84 0.51 1.24 0.78c0.41 0.27 0.81 0.55 1.21 0.84 0.39 0.3 0.78 0.6 1.16 0.91s0.76 0.63 1.12 0.96c0.37 0.33 0.73 0.67 1.07 1.02 0.35 0.35 0.69 0.71 1.02 1.07s0.65 0.74 0.96 1.12c0.31 0.38 0.62 0.77 0.91 1.16 0.29 0.4 0.57 0.8 0.84 1.21s0.54 0.82 0.79 1.24 0.49 0.85 0.72 1.28 0.45 0.87 0.66 1.32c0.2 0.44 0.41 0.89 0.59 1.34 0.19 0.45 0.37 0.91 0.53 1.37 0.17 0.46 0.32 0.93 0.46 1.39 0.15 0.47 0.28 0.94 0.4 1.42 0.12 0.47 0.23 0.95 0.32 1.43 0.1 0.48 0.19 0.97 0.26 1.45s0.13 0.98 0.18 1.46c0.05 0.49 0.09 0.98 0.11 1.47 0.03 0.49 0.04 0.99 0.04 1.48s-0.01 0.99-0.04 1.48c-0.02 0.49-0.06 0.98-0.11 1.47s-0.11 0.98-0.18 1.46c-0.07 0.49-0.16 0.97-0.26 1.45-0.09 0.48-0.2 0.96-0.32 1.44-0.12 0.47-0.25 0.95-0.4 1.41-0.14 0.47-0.29 0.94-0.46 1.4-0.16 0.46-0.34 0.92-0.53 1.37-0.18 0.45-0.39 0.9-0.59 1.34a32.08 32.08 0 0 1-1.38 2.59 32.338 32.338 0 0 1-1.63 2.45c-0.29 0.39-0.6 0.79-0.91 1.16-0.31 0.38-0.63 0.76-0.96 1.12-0.33 0.37-0.67 0.73-1.02 1.08-0.34 0.34-0.7 0.69-1.07 1.02-0.36 0.32-0.74 0.65-1.12 0.96s-0.77 0.61-1.16 0.9c-0.4 0.29-0.8 0.58-1.21 0.85-0.4 0.27-0.82 0.53-1.24 0.78s-0.85 0.49-1.28 0.72-0.87 0.45-1.31 0.66-0.9 0.41-1.35 0.59c-0.45 0.19-0.91 0.37-1.37 0.53-0.45 0.17-0.92 0.32-1.39 0.47-0.47 0.14-0.94 0.27-1.41 0.39-0.48 0.12-0.96 0.23-1.44 0.33-0.48 0.09-0.96 0.18-1.45 0.25-0.48 0.07-0.97 0.14-1.46 0.19-0.49 0.04-0.98 0.08-1.47 0.11-0.49 0.02-0.99 0.03-1.48 0.03z" fill="#76AAEE" p-id="3139"></path><path d="M848.61 243.98c-0.49 0-0.99-0.01-1.48-0.03-0.49-0.03-0.98-0.07-1.47-0.11a36.62 36.62 0 0 1-2.91-0.44c-0.48-0.1-0.96-0.21-1.44-0.33-0.47-0.12-0.94-0.25-1.41-0.39-0.47-0.15-0.93-0.3-1.39-0.47-0.46-0.16-0.92-0.34-1.37-0.53-0.45-0.18-0.91-0.38-1.35-0.59a32.08 32.08 0 0 1-2.59-1.38c-0.42-0.25-0.84-0.51-1.24-0.78-0.41-0.28-0.81-0.56-1.21-0.85-0.39-0.29-0.78-0.59-1.16-0.9s-0.76-0.64-1.12-0.97a26.023 26.023 0 0 1-2.09-2.09c-0.33-0.36-0.65-0.74-0.96-1.12-0.31-0.37-0.62-0.77-0.91-1.16a32.338 32.338 0 0 1-1.63-2.45 32.194 32.194 0 0 1-1.38-2.59c-0.2-0.44-0.4-0.89-0.59-1.34s-0.37-0.91-0.53-1.37-0.32-0.93-0.46-1.4c-0.15-0.46-0.28-0.94-0.4-1.41s-0.23-0.96-0.32-1.43c-0.1-0.48-0.18-0.97-0.26-1.45-0.07-0.49-0.13-0.98-0.18-1.47-0.05-0.48-0.09-0.98-0.11-1.47-0.03-0.49-0.04-0.99-0.04-1.48s0.01-0.99 0.04-1.48c0.02-0.48 0.06-0.98 0.11-1.47 0.05-0.48 0.11-0.98 0.18-1.46 0.08-0.48 0.16-0.97 0.26-1.45 0.09-0.48 0.2-0.96 0.32-1.43s0.25-0.95 0.4-1.42c0.14-0.46 0.3-0.93 0.46-1.39s0.34-0.92 0.53-1.37 0.39-0.9 0.59-1.34c0.21-0.44 0.43-0.89 0.66-1.32 0.23-0.43 0.47-0.86 0.72-1.28s0.52-0.83 0.79-1.24c0.27-0.41 0.55-0.81 0.84-1.21 0.29-0.39 0.6-0.78 0.91-1.16s0.63-0.76 0.96-1.12 0.67-0.72 1.02-1.07c0.34-0.35 0.7-0.69 1.07-1.02 0.36-0.33 0.74-0.65 1.12-0.96s0.77-0.61 1.16-0.91a32.682 32.682 0 0 1 3.73-2.35c0.43-0.22 0.87-0.45 1.31-0.65 0.44-0.21 0.9-0.41 1.35-0.6 0.45-0.18 0.91-0.36 1.37-0.53 0.46-0.16 0.92-0.32 1.39-0.46 0.47-0.14 0.94-0.27 1.41-0.39 0.48-0.12 0.96-0.23 1.44-0.33s0.97-0.18 1.45-0.25c0.48-0.08 0.97-0.14 1.46-0.19 0.49-0.05 0.98-0.08 1.47-0.11 0.98-0.05 1.98-0.05 2.96 0 0.49 0.03 0.98 0.06 1.47 0.11s0.98 0.11 1.46 0.19c0.49 0.07 0.97 0.15 1.45 0.25s0.96 0.21 1.44 0.33c0.47 0.12 0.94 0.25 1.41 0.39s0.94 0.3 1.4 0.46c0.45 0.17 0.92 0.35 1.37 0.53 0.45 0.19 0.9 0.39 1.34 0.6 0.44 0.2 0.88 0.43 1.31 0.65 0.43 0.23 0.86 0.48 1.28 0.73s0.84 0.51 1.24 0.78c0.41 0.27 0.82 0.55 1.21 0.84 0.39 0.3 0.78 0.6 1.16 0.91s0.76 0.63 1.12 0.96c0.37 0.33 0.73 0.67 1.07 1.02 0.35 0.35 0.69 0.71 1.02 1.07s0.65 0.74 0.97 1.12c0.3 0.38 0.61 0.77 0.9 1.16 0.29 0.4 0.57 0.8 0.84 1.21s0.54 0.82 0.79 1.24 0.49 0.85 0.72 1.28 0.45 0.88 0.66 1.32 0.41 0.89 0.59 1.34c0.19 0.45 0.37 0.91 0.53 1.37 0.17 0.46 0.32 0.93 0.46 1.39 0.15 0.47 0.28 0.95 0.4 1.42s0.23 0.95 0.32 1.43c0.1 0.48 0.19 0.97 0.26 1.45s0.13 0.98 0.18 1.46c0.05 0.49 0.09 0.99 0.11 1.47 0.03 0.49 0.04 0.99 0.04 1.48s-0.01 0.99-0.04 1.48c-0.02 0.49-0.06 0.99-0.11 1.47-0.05 0.49-0.11 0.98-0.18 1.47-0.07 0.48-0.16 0.97-0.26 1.45-0.09 0.47-0.2 0.96-0.32 1.43s-0.25 0.95-0.4 1.41c-0.14 0.47-0.29 0.94-0.46 1.4-0.16 0.46-0.34 0.92-0.53 1.37-0.18 0.45-0.38 0.9-0.59 1.34s-0.43 0.88-0.66 1.31-0.47 0.86-0.72 1.28-0.52 0.84-0.79 1.25c-0.27 0.4-0.55 0.81-0.84 1.2-0.29 0.39-0.6 0.79-0.9 1.16-0.32 0.38-0.64 0.76-0.97 1.12a26.023 26.023 0 0 1-2.09 2.09c-0.36 0.33-0.74 0.66-1.12 0.97s-0.77 0.61-1.16 0.9-0.8 0.57-1.21 0.85c-0.4 0.27-0.82 0.53-1.24 0.78a32.194 32.194 0 0 1-2.59 1.38c-0.44 0.21-0.89 0.41-1.34 0.59a32.835 32.835 0 0 1-2.77 1c-0.47 0.14-0.94 0.27-1.41 0.39-0.48 0.12-0.96 0.23-1.44 0.33-0.48 0.09-0.96 0.18-1.45 0.25-0.48 0.07-0.97 0.14-1.46 0.19-0.49 0.04-0.98 0.08-1.47 0.11-0.49 0.02-0.99 0.03-1.48 0.03z" fill="#76AAEE" p-id="3140"></path><path d="M175.39 840.01c-0.49 0-0.99-0.01-1.48-0.04-0.49-0.02-0.98-0.06-1.47-0.11s-0.98-0.11-1.46-0.18c-0.49-0.07-0.97-0.16-1.45-0.25-0.48-0.1-0.96-0.21-1.44-0.33-0.47-0.12-0.94-0.25-1.41-0.39-0.47-0.15-0.94-0.3-1.4-0.47-0.45-0.16-0.92-0.34-1.37-0.53-0.45-0.18-0.9-0.38-1.34-0.59s-0.88-0.43-1.31-0.66-0.86-0.47-1.28-0.72-0.84-0.52-1.24-0.78c-0.41-0.28-0.82-0.56-1.21-0.85s-0.78-0.59-1.16-0.9-0.76-0.64-1.12-0.97c-0.37-0.32-0.73-0.67-1.07-1.02-0.35-0.34-0.69-0.7-1.02-1.07-0.33-0.36-0.65-0.74-0.97-1.12-0.3-0.37-0.61-0.77-0.9-1.16a32.338 32.338 0 0 1-1.63-2.45 32.194 32.194 0 0 1-1.38-2.59 22.7 22.7 0 0 1-0.59-1.34c-0.19-0.45-0.37-0.91-0.53-1.37-0.17-0.46-0.32-0.93-0.46-1.4-0.15-0.46-0.28-0.94-0.4-1.41-0.12-0.48-0.23-0.96-0.32-1.44-0.1-0.48-0.19-0.96-0.26-1.44-0.07-0.49-0.13-0.98-0.18-1.47-0.05-0.49-0.09-0.98-0.11-1.47-0.03-0.49-0.04-0.99-0.04-1.48s0.01-0.99 0.04-1.48c0.02-0.48 0.06-0.98 0.11-1.47 0.05-0.48 0.11-0.98 0.18-1.46 0.07-0.48 0.16-0.97 0.26-1.45 0.09-0.48 0.2-0.96 0.32-1.43 0.12-0.48 0.25-0.95 0.4-1.42 0.14-0.46 0.29-0.93 0.46-1.39 0.16-0.46 0.34-0.92 0.53-1.37 0.18-0.45 0.38-0.9 0.59-1.34 0.21-0.44 0.43-0.89 0.66-1.32s0.47-0.86 0.72-1.28 0.52-0.83 0.79-1.24c0.27-0.41 0.55-0.81 0.84-1.21 0.29-0.39 0.59-0.78 0.9-1.16s0.64-0.76 0.97-1.12c0.32-0.36 0.67-0.72 1.01-1.07 0.35-0.35 0.71-0.69 1.08-1.02 0.36-0.33 0.74-0.65 1.12-0.96 0.37-0.31 0.77-0.62 1.16-0.91s0.8-0.57 1.2-0.84c0.41-0.27 0.83-0.53 1.25-0.78s0.85-0.5 1.28-0.73c0.43-0.22 0.87-0.45 1.31-0.65 0.44-0.21 0.89-0.41 1.34-0.6s0.91-0.36 1.37-0.53c0.46-0.16 0.93-0.32 1.4-0.46 0.46-0.14 0.94-0.28 1.41-0.39 0.48-0.12 0.96-0.23 1.44-0.33s0.96-0.18 1.45-0.25c0.48-0.08 0.97-0.14 1.46-0.19s0.98-0.09 1.47-0.11c0.98-0.05 1.98-0.05 2.96 0 0.49 0.02 0.98 0.06 1.47 0.11s0.98 0.11 1.46 0.19c0.48 0.07 0.97 0.15 1.45 0.25s0.96 0.21 1.43 0.33c0.48 0.11 0.95 0.25 1.42 0.39s0.93 0.3 1.39 0.46c0.46 0.17 0.92 0.34 1.37 0.53s0.91 0.39 1.35 0.6c0.44 0.2 0.88 0.43 1.31 0.65 0.43 0.23 0.86 0.48 1.28 0.73s0.84 0.51 1.24 0.78c0.41 0.27 0.81 0.55 1.21 0.84 0.39 0.29 0.78 0.6 1.16 0.91s0.76 0.63 1.12 0.96c0.37 0.33 0.73 0.67 1.07 1.02 0.35 0.35 0.69 0.71 1.02 1.07s0.65 0.74 0.96 1.12c0.31 0.38 0.62 0.77 0.91 1.16 0.29 0.4 0.57 0.8 0.84 1.21 0.27 0.41 0.54 0.82 0.79 1.24s0.49 0.85 0.72 1.28 0.45 0.88 0.66 1.32c0.2 0.44 0.4 0.89 0.59 1.34s0.37 0.91 0.53 1.37 0.32 0.93 0.46 1.39c0.14 0.47 0.28 0.94 0.4 1.42 0.12 0.47 0.23 0.95 0.32 1.43 0.1 0.48 0.18 0.97 0.26 1.45 0.07 0.48 0.13 0.98 0.18 1.46 0.05 0.49 0.09 0.99 0.11 1.47 0.03 0.49 0.04 0.99 0.04 1.48s-0.01 0.99-0.04 1.48c-0.02 0.49-0.06 0.98-0.11 1.47s-0.11 0.98-0.18 1.47c-0.08 0.48-0.16 0.96-0.26 1.44a24.773 24.773 0 0 1-0.72 2.85c-0.14 0.47-0.3 0.94-0.46 1.4-0.17 0.46-0.34 0.92-0.53 1.37s-0.39 0.9-0.59 1.34c-0.21 0.44-0.43 0.88-0.66 1.31-0.23 0.43-0.48 0.86-0.72 1.28-0.26 0.42-0.52 0.84-0.79 1.25-0.27 0.4-0.55 0.81-0.84 1.2s-0.6 0.79-0.91 1.16c-0.31 0.38-0.63 0.76-0.96 1.12-0.33 0.37-0.67 0.73-1.02 1.07-0.34 0.35-0.7 0.7-1.07 1.02-0.36 0.33-0.74 0.66-1.12 0.97-0.38 0.31-0.77 0.61-1.16 0.9-0.4 0.29-0.8 0.57-1.21 0.85-0.4 0.26-0.82 0.53-1.24 0.78s-0.85 0.49-1.28 0.72-0.87 0.45-1.31 0.66-0.9 0.41-1.35 0.59c-0.45 0.19-0.91 0.37-1.37 0.53-0.46 0.17-0.92 0.32-1.39 0.47-0.47 0.14-0.94 0.27-1.42 0.39-0.47 0.12-0.95 0.23-1.43 0.33-0.48 0.09-0.97 0.18-1.45 0.25s-0.97 0.13-1.46 0.18-0.98 0.09-1.47 0.11c-0.49 0.03-0.99 0.04-1.48 0.04z" fill="#76AAEE" p-id="3141"></path><path d="M512 840.01c-0.49 0-0.99-0.01-1.48-0.04-0.49-0.02-0.98-0.06-1.47-0.11s-0.98-0.11-1.46-0.18c-0.49-0.07-0.97-0.16-1.45-0.25-0.48-0.1-0.96-0.21-1.44-0.33-0.47-0.12-0.94-0.25-1.41-0.39-0.47-0.15-0.94-0.3-1.39-0.47-0.46-0.16-0.92-0.34-1.37-0.53-0.45-0.18-0.91-0.38-1.35-0.59s-0.88-0.43-1.31-0.66-0.86-0.47-1.28-0.72-0.84-0.52-1.24-0.78c-0.41-0.28-0.82-0.56-1.21-0.85-0.39-0.29-0.78-0.59-1.16-0.9s-0.76-0.64-1.12-0.97c-0.37-0.32-0.73-0.67-1.07-1.02-0.35-0.34-0.69-0.7-1.02-1.07-0.33-0.36-0.65-0.74-0.96-1.12-0.31-0.37-0.62-0.77-0.91-1.16a32.338 32.338 0 0 1-1.63-2.45 32.194 32.194 0 0 1-1.38-2.59 22.7 22.7 0 0 1-0.59-1.34c-0.19-0.45-0.37-0.91-0.53-1.37-0.17-0.46-0.32-0.93-0.46-1.4-0.15-0.46-0.28-0.94-0.4-1.41-0.12-0.48-0.23-0.96-0.32-1.44-0.1-0.48-0.19-0.96-0.26-1.44-0.07-0.49-0.13-0.98-0.18-1.47s-0.09-0.98-0.11-1.47c-0.03-0.49-0.04-0.99-0.04-1.48s0.01-0.99 0.04-1.48c0.02-0.48 0.06-0.98 0.11-1.47 0.05-0.48 0.11-0.98 0.18-1.46 0.07-0.48 0.16-0.97 0.26-1.45 0.09-0.48 0.2-0.96 0.32-1.43 0.12-0.48 0.25-0.95 0.4-1.42 0.14-0.46 0.29-0.93 0.46-1.39 0.16-0.46 0.34-0.92 0.53-1.37 0.18-0.45 0.38-0.9 0.59-1.34s0.43-0.89 0.66-1.32 0.47-0.86 0.72-1.28 0.52-0.83 0.79-1.24c0.27-0.41 0.55-0.81 0.84-1.21 0.29-0.39 0.6-0.78 0.91-1.16 0.31-0.38 0.63-0.76 0.96-1.12s0.67-0.72 1.02-1.07c0.34-0.35 0.7-0.69 1.07-1.02 0.36-0.33 0.74-0.65 1.12-0.96s0.77-0.62 1.16-0.91 0.8-0.57 1.21-0.84c0.4-0.27 0.82-0.53 1.24-0.78s0.85-0.5 1.28-0.73c0.43-0.22 0.87-0.45 1.31-0.65 0.44-0.21 0.9-0.41 1.35-0.6s0.91-0.36 1.37-0.53c0.45-0.16 0.92-0.32 1.39-0.46s0.94-0.28 1.41-0.39c0.48-0.12 0.96-0.23 1.44-0.33s0.96-0.18 1.45-0.25c0.48-0.08 0.97-0.14 1.46-0.19s0.98-0.09 1.47-0.11c0.98-0.05 1.98-0.05 2.96 0 0.49 0.02 0.98 0.06 1.47 0.11s0.98 0.11 1.46 0.19c0.48 0.07 0.97 0.15 1.45 0.25s0.96 0.21 1.44 0.33c0.47 0.11 0.94 0.25 1.41 0.39s0.94 0.3 1.39 0.46c0.46 0.17 0.92 0.34 1.37 0.53s0.91 0.39 1.35 0.6c0.44 0.2 0.88 0.43 1.31 0.65 0.43 0.23 0.86 0.48 1.28 0.73s0.84 0.51 1.24 0.78c0.41 0.27 0.82 0.55 1.21 0.84 0.39 0.29 0.78 0.6 1.16 0.91 0.38 0.31 0.76 0.63 1.12 0.96 0.37 0.33 0.73 0.67 1.07 1.02 0.35 0.35 0.69 0.71 1.02 1.07s0.65 0.74 0.96 1.12 0.62 0.77 0.91 1.16c0.29 0.4 0.57 0.8 0.84 1.21 0.27 0.41 0.54 0.82 0.79 1.24s0.49 0.85 0.72 1.28c0.23 0.43 0.45 0.88 0.66 1.32 0.2 0.44 0.4 0.89 0.59 1.34s0.37 0.91 0.53 1.37a33.036 33.036 0 0 1 0.86 2.81c0.12 0.47 0.23 0.95 0.32 1.43 0.1 0.48 0.19 0.97 0.26 1.45s0.13 0.98 0.18 1.46c0.05 0.49 0.09 0.99 0.11 1.47 0.03 0.49 0.04 0.99 0.04 1.48s-0.01 0.99-0.04 1.48c-0.02 0.49-0.06 0.98-0.11 1.47s-0.11 0.98-0.18 1.47c-0.07 0.48-0.16 0.96-0.26 1.44a24.773 24.773 0 0 1-0.72 2.85c-0.14 0.47-0.29 0.94-0.46 1.4-0.16 0.46-0.34 0.92-0.53 1.37s-0.39 0.9-0.59 1.34a32.08 32.08 0 0 1-1.38 2.59 32.338 32.338 0 0 1-1.63 2.45c-0.29 0.39-0.6 0.79-0.91 1.16-0.31 0.38-0.63 0.76-0.96 1.12-0.33 0.37-0.67 0.73-1.02 1.07-0.34 0.35-0.7 0.7-1.07 1.02-0.36 0.33-0.74 0.66-1.12 0.97s-0.77 0.61-1.16 0.9c-0.4 0.29-0.8 0.57-1.21 0.85-0.4 0.26-0.82 0.53-1.24 0.78a32.194 32.194 0 0 1-2.59 1.38c-0.44 0.21-0.9 0.41-1.35 0.59-0.45 0.19-0.91 0.37-1.37 0.53-0.45 0.17-0.92 0.32-1.39 0.47-0.47 0.14-0.94 0.27-1.42 0.39-0.47 0.12-0.95 0.23-1.43 0.33-0.48 0.09-0.97 0.18-1.45 0.25s-0.97 0.13-1.46 0.18c-0.49 0.05-0.98 0.09-1.47 0.11-0.49 0.03-0.99 0.04-1.48 0.04z" fill="#76AAEE" p-id="3142"></path><path d="M848.61 840.01c-0.49 0-0.99-0.01-1.48-0.04-0.49-0.02-0.98-0.06-1.47-0.11s-0.98-0.11-1.46-0.18c-0.48-0.07-0.97-0.16-1.45-0.26a24.773 24.773 0 0 1-2.85-0.72c-0.47-0.14-0.93-0.29-1.39-0.46-0.46-0.16-0.92-0.34-1.37-0.53-0.45-0.18-0.91-0.38-1.35-0.59s-0.88-0.43-1.31-0.66-0.86-0.47-1.28-0.72-0.84-0.52-1.24-0.79c-0.41-0.27-0.81-0.55-1.21-0.84-0.39-0.29-0.78-0.59-1.16-0.9s-0.76-0.64-1.12-0.97c-0.37-0.32-0.73-0.67-1.07-1.02-0.35-0.34-0.69-0.7-1.02-1.07-0.33-0.36-0.65-0.74-0.96-1.12-0.31-0.37-0.62-0.77-0.91-1.16s-0.57-0.8-0.84-1.2c-0.27-0.41-0.53-0.83-0.78-1.25s-0.5-0.85-0.73-1.28c-0.23-0.43-0.45-0.87-0.66-1.31-0.2-0.44-0.4-0.89-0.59-1.34s-0.36-0.91-0.53-1.37c-0.16-0.46-0.32-0.93-0.46-1.4a24.773 24.773 0 0 1-0.72-2.85c-0.1-0.48-0.18-0.96-0.26-1.45-0.07-0.48-0.13-0.97-0.18-1.46s-0.09-0.98-0.11-1.47c-0.03-0.49-0.04-0.99-0.04-1.48s0.01-0.99 0.04-1.48c0.02-0.48 0.06-0.98 0.11-1.47 0.05-0.48 0.11-0.98 0.18-1.46 0.08-0.48 0.16-0.97 0.26-1.45 0.09-0.48 0.2-0.96 0.32-1.43 0.12-0.48 0.25-0.95 0.4-1.42 0.14-0.46 0.3-0.93 0.46-1.39s0.34-0.92 0.53-1.37 0.39-0.9 0.59-1.34c0.21-0.44 0.43-0.89 0.66-1.32s0.47-0.86 0.72-1.28 0.52-0.83 0.79-1.24c0.27-0.41 0.55-0.81 0.84-1.21 0.29-0.39 0.6-0.78 0.91-1.16 0.31-0.38 0.63-0.76 0.96-1.12s0.67-0.72 1.02-1.07c0.34-0.35 0.7-0.69 1.07-1.02 0.36-0.33 0.74-0.65 1.12-0.96s0.77-0.61 1.16-0.91a32.682 32.682 0 0 1 3.73-2.35c0.43-0.22 0.87-0.45 1.31-0.65 0.44-0.21 0.9-0.41 1.35-0.6 0.45-0.18 0.91-0.36 1.37-0.53 0.46-0.16 0.92-0.32 1.39-0.46 0.47-0.14 0.94-0.27 1.41-0.39 0.48-0.12 0.96-0.23 1.44-0.33s0.97-0.18 1.45-0.25c0.48-0.08 0.97-0.14 1.46-0.19 0.49-0.05 0.98-0.08 1.47-0.11 0.98-0.05 1.98-0.05 2.96 0 0.49 0.03 0.98 0.06 1.47 0.11s0.98 0.11 1.46 0.19c0.49 0.07 0.97 0.15 1.45 0.25s0.96 0.21 1.44 0.33c0.47 0.12 0.95 0.25 1.41 0.39 0.47 0.14 0.94 0.3 1.4 0.46 0.46 0.17 0.92 0.35 1.37 0.53 0.45 0.19 0.9 0.39 1.34 0.6 0.44 0.2 0.88 0.43 1.31 0.65 0.43 0.23 0.86 0.48 1.28 0.73s0.84 0.51 1.25 0.78c0.4 0.27 0.81 0.55 1.2 0.84 0.39 0.3 0.79 0.6 1.16 0.91 0.38 0.31 0.76 0.63 1.12 0.96 0.37 0.33 0.73 0.67 1.07 1.02 0.35 0.35 0.7 0.71 1.02 1.07 0.33 0.36 0.66 0.74 0.97 1.12s0.61 0.77 0.9 1.16c0.29 0.4 0.57 0.8 0.84 1.21 0.27 0.41 0.54 0.82 0.79 1.24s0.49 0.85 0.72 1.28c0.23 0.43 0.45 0.88 0.66 1.32 0.21 0.44 0.41 0.89 0.59 1.34 0.19 0.45 0.37 0.91 0.53 1.37 0.17 0.46 0.32 0.93 0.46 1.39 0.15 0.47 0.28 0.94 0.4 1.42 0.12 0.47 0.23 0.95 0.32 1.43 0.1 0.48 0.19 0.97 0.26 1.45s0.13 0.98 0.18 1.46c0.05 0.49 0.09 0.99 0.11 1.47 0.03 0.49 0.04 0.99 0.04 1.48s-0.01 0.99-0.04 1.48c-0.02 0.49-0.06 0.98-0.11 1.47s-0.11 0.98-0.18 1.46c-0.07 0.49-0.16 0.97-0.26 1.45-0.09 0.48-0.2 0.96-0.32 1.44-0.12 0.47-0.25 0.95-0.4 1.41-0.14 0.47-0.29 0.94-0.46 1.4-0.16 0.46-0.34 0.92-0.53 1.37-0.18 0.45-0.38 0.9-0.59 1.34s-0.43 0.88-0.66 1.31-0.47 0.86-0.72 1.28-0.52 0.84-0.79 1.25c-0.27 0.4-0.55 0.81-0.84 1.2s-0.6 0.79-0.91 1.16c-0.31 0.38-0.63 0.76-0.96 1.12-0.33 0.37-0.67 0.73-1.02 1.07-0.34 0.35-0.7 0.7-1.07 1.02-0.36 0.33-0.74 0.66-1.12 0.97s-0.77 0.61-1.16 0.9-0.8 0.57-1.21 0.84a26.1 26.1 0 0 1-2.52 1.51c-0.43 0.23-0.87 0.45-1.31 0.66-0.44 0.21-0.89 0.41-1.34 0.59-0.45 0.19-0.92 0.37-1.37 0.53-0.46 0.17-0.93 0.32-1.4 0.46a24.815 24.815 0 0 1-2.85 0.72c-0.48 0.1-0.96 0.19-1.45 0.26-0.48 0.07-0.97 0.13-1.46 0.18-0.49 0.05-0.98 0.09-1.47 0.11-0.49 0.03-0.99 0.04-1.48 0.04z" fill="#76AAEE" p-id="3143"></path></svg>