<?xml version="1.0" standalone="no"?><!DOCTYPE svg PUBLIC "-//W3C//DTD SVG 1.1//EN" "http://www.w3.org/Graphics/SVG/1.1/DTD/svg11.dtd"><svg t="1711521623067" class="icon" viewBox="0 0 1024 1024" version="1.1" xmlns="http://www.w3.org/2000/svg" p-id="3237" xmlns:xlink="http://www.w3.org/1999/xlink" width="200" height="200"><path d="M656.27 636.26H96.33c-16.57 0-30 13.43-30 30s13.43 30 30 30h559.94c45.8 0 83.06 37.26 83.06 83.06s-37.26 83.06-83.06 83.06-83.06-37.26-83.06-83.06c0-16.57-13.43-30-30-30s-30 13.43-30 30c0 78.88 64.18 143.06 143.06 143.06 78.89 0 143.06-64.17 143.06-143.06s-64.18-143.06-143.06-143.06zM791.97 211.8c-91.37 0-165.7 74.33-165.7 165.7 0 16.57 13.43 30 30 30s30-13.43 30-30c0-58.28 47.42-105.7 105.7-105.7s105.7 47.42 105.7 105.7-47.42 105.7-105.7 105.7H96.33c-16.57 0-30 13.43-30 30s13.43 30 30 30h695.64c91.37 0 165.7-74.33 165.7-165.7s-74.33-165.7-165.7-165.7z" fill="#76AAEE" p-id="3238"></path><path d="M96.33 387.74h344.83c78.88 0 143.06-64.18 143.06-143.06s-64.18-143.06-143.06-143.06S298.1 165.8 298.1 244.68c0 16.57 13.43 30 30 30s30-13.43 30-30c0-45.8 37.26-83.06 83.06-83.06s83.06 37.26 83.06 83.06-37.26 83.06-83.06 83.06H96.33c-16.57 0-30 13.43-30 30s13.43 30 30 30z" fill="#76AAEE" p-id="3239"></path></svg>