<svg t="1716462747894" class="icon" viewBox="0 0 1024 1024" version="1.1" xmlns="http://www.w3.org/2000/svg" p-id="1672" width="200" height="200"><path d="M838.4 32C922.88 32 992 101.27157875 992 185.9031575v498.29052656s-30.72-3.86526281-168.96-50.02105218c-38.4-13.46526281-90.24-32.71578937-147.84-53.88631594 34.56-59.62105219 61.44-128.89263188 80.64-201.97894781h-190.08v-67.35157875h232.32V272.48h-232.32V158.97263187h-94.08c-17.28 0-17.28 17.30526281-17.28 17.30526282v98.12210531H220.16v38.47578937h234.24v65.43157876H260.48v38.45052656H636.8c-13.44 48.10105219-32.64 92.36210531-53.76 132.75789468-120.96-40.42105219-251.52-73.11157875-334.08-51.94105218-51.84 13.46526281-86.4 36.55578938-105.6 59.62105219-90.24 109.66736812-24.96 277.03578937 165.12 277.03578937 113.28 0 222.72-63.48631594 307.2-167.36842125C742.4 728.42947344 992 832.3368425 992 832.3368425v5.76C992 922.72842125 922.88 992 838.4 992H185.6C101.12 992 32 922.75368406 32 838.0968425V185.9031575C32 101.27157875 101.12 32 185.6 32h652.8zM283.36842125 550.55157875c87.23368406-9.72631594 168.80842125 25.28842125 265.56631594 73.94526375-70.20631594 89.53263188-155.57052656 145.97052656-240.90947438 145.97052563-147.96631594 0-191.59578938-118.7368425-117.62526281-184.87578938 24.6568425-21.4231575 68.28631594-33.09473719 92.96842125-35.04z" fill="#00A0EA" p-id="1673"></path></svg>