<svg t="1721373276974" class="icon" viewBox="0 0 1024 1024" version="1.1" xmlns="http://www.w3.org/2000/svg" p-id="2552" width="200" height="200"><path d="M614.675968 605.184a495.616 495.616 0 0 0 51.2-111.104 496.128 496.128 0 0 0 31.232-114.688H486.163968V307.2h256V256h-256V135.68H362.259968v114.688H120.083968v51.2L358.675968 300.032v77.824H167.699968v40.448H563.475968a358.4 358.4 0 0 1-18.432 73.728L512.275968 568.32c-10.752 25.088-184.832-64.512-283.136-64.512s-216.576 40.448-227.328 153.6a174.08 174.08 0 0 0 149.504 197.632 374.784 374.784 0 0 0 256-36.864 596.48 596.48 0 0 0 150.016-120.32l392.192 190.464s24.064-36.864 42.496-72.192A776.704 776.704 0 0 0 1024.275968 742.4l-409.6-136.704z m-402.432 186.88c-138.752 0-166.4-68.096-166.4-116.224s29.696-102.4 145.92-109.056 275.456 83.456 275.456 83.456-116.736 142.336-256 142.336z m0 0" p-id="2553"></path></svg>