<svg t="1718329310840" class="icon" viewBox="0 0 1024 1024" version="1.1" xmlns="http://www.w3.org/2000/svg" p-id="1833" width="200" height="200"><path d="M413.03493631 141.21142578H199.27097809C167.60114384 141.21142578 141.21142578 167.60186803 141.21142578 199.27025389v213.76468242c0 31.66911007 26.39044225 58.05955231 58.05882811 58.0595523h213.76468242c31.66911007 0 58.05955231-26.39044225 58.0595523-58.05882811V199.27025389C471.09448862 167.60114384 444.70404637 141.21142578 413.0356605 141.21142578z m18.47425103 245.43306828c0 23.75147045-18.47425103 42.22499728-42.22572147 42.22499728H228.30039215c-23.75147045 0-42.22499728-18.47352683-42.22499728-42.22499728V225.66142034c0-23.75147045 18.47425103-42.22499728 42.22499729-42.22499728h160.98307371c23.75147045 0 42.22499728 18.47352683 42.22499728 42.22499728v160.98307372zM824.72974611 141.21142578H610.9643395c-31.66911007 0-58.05955231 26.39044225-58.05955232 58.05882811v213.76468242c0 31.66911007 26.39044225 58.05955231 58.05882812 58.0595523H824.72974611c31.66911007 0 58.05955231-26.39044225 58.05955231-58.05882811V199.27025389C882.78857422 167.60114384 856.39813197 141.21142578 824.72974611 141.21142578z m15.83383083 245.43306828c0 23.75147045-18.47352683 42.22499728-42.22499727 42.22499728H637.35550594c-23.75147045 0-42.22499728-18.47352683-42.22499728-42.22499728V225.66142034c0-23.75147045 18.47352683-42.22499728 42.22499728-42.22499728h160.98307373c23.75147045 0 42.22499728 18.47352683 42.22499727 42.22499728v160.98307372zM824.72974611 552.90551138H610.9643395c-31.66911007 0-58.05955231 26.39044225-58.05955232 58.05882812V824.72974611c0 31.66911007 26.39044225 58.05955231 58.05882812 58.05955231H824.72974611c31.66911007 0 58.05955231-26.39044225 58.05955231-58.05882812V610.9643395c0-34.30808187-26.39044225-58.05955231-58.05882812-58.05955232z m15.83383083 242.79409646c0 23.75147045-18.47352683 42.22499728-42.22499727 42.22499729H637.35550594c-23.75147045 0-42.22499728-18.47425103-42.22499728-42.22499729V634.71653414c0-23.75147045 18.47352683-42.22499728 42.22499728-42.22499729h160.98307373c23.75147045 0 42.22499728 18.47352683 42.22499727 42.22499729v160.9830737zM415.67463231 552.90551138H201.90922571c-31.66911007 0-58.05882811 26.39044225-58.05882813 58.05882812V824.72974611c0 31.66911007 26.38971806 58.05955231 58.05882813 58.05955231h213.7639582c31.66911007 0 58.05955231-26.39044225 58.05955232-58.05882812V610.9643395c-2.6389718-34.30808187-26.39044225-58.05955231-58.05882812-58.05955232z m15.83383084 242.79409646c0 23.75147045-18.47352683 42.22499728-42.22499729 42.22499729H228.30039215c-23.75147045 0-42.22499728-18.47425103-42.22499728-42.22499729V634.71653414c0-23.75147045 18.47425103-42.22499728 42.22499729-42.22499729h160.98307371c23.75147045 0 42.22499728 18.47352683 42.22499728 42.22499729v160.9830737z" fill="" p-id="1834"></path></svg>