<svg t="1720689322525" class="icon" viewBox="0 0 1024 1024" version="1.1" xmlns="http://www.w3.org/2000/svg" p-id="1172" width="200" height="200"><path d="M901.026909 95.52678834h-144.896v-44.590546a34.909091 34.909091 0 0 0-69.818182 0v44.590546H335.965091v-44.590546a34.909091 34.909091 0 0 0-69.818182 0v44.590546H122.973091C80.802909 95.52678834 46.545455 129.83078834 46.545455 171.95442434v674.350545c0 42.077091 34.257455 76.381091 76.427636 76.381091h778.100364c42.123636 0 76.427636-34.257455 76.427636-76.381091V171.95442434a76.567273 76.567273 0 0 0-76.474182-76.427636z m-778.053818 69.818181h778.100364c3.630545 0 6.609455 2.978909 6.609454 6.609455v115.525818h-791.272727V171.95442434a6.516364 6.516364 0 0 1 6.562909-6.609455z m778.053818 687.476364H122.973091a6.609455 6.609455 0 0 1-6.609455-6.562909V357.29842434h791.272728v489.006545a6.516364 6.516364 0 0 1-6.609455 6.516364z m-279.319273-409.413818v63.953454a23.272727 23.272727 0 0 1-23.272727 23.272728h-63.953454a23.272727 23.272727 0 0 1-23.272728-23.272728v-63.953454a23.272727 23.272727 0 0 1 23.272728-23.272727h63.953454a23.272727 23.272727 0 0 1 23.272727 23.272727z m176.360728 0v63.953454a23.272727 23.272727 0 0 1-23.272728 23.272728h-64a23.272727 23.272727 0 0 1-23.272727-23.272728v-63.953454a23.272727 23.272727 0 0 1 23.272727-23.272727h64a23.272727 23.272727 0 0 1 23.272728 23.272727z m-461.637819 167.703273v63.953454a23.272727 23.272727 0 0 1-23.272727 23.272727H249.204364a23.272727 23.272727 0 0 1-23.272728-23.272727v-63.953454a23.272727 23.272727 0 0 1 23.272728-23.272728h63.953454a23.272727 23.272727 0 0 1 23.272727 23.272728z m176.360728 0v63.953454a23.272727 23.272727 0 0 1-23.272728 23.272727H425.565091a23.272727 23.272727 0 0 1-23.272727-23.272727v-63.953454a23.272727 23.272727 0 0 1 23.272727-23.272728h63.953454a23.272727 23.272727 0 0 1 23.272728 23.272728z" fill="currentColor" p-id="1173"></path></svg>