<svg t="1716462179662" class="icon" viewBox="0 0 1024 1024" version="1.1" xmlns="http://www.w3.org/2000/svg" p-id="1837" width="200" height="200"><path d="M158.8 384.1V202.9c0-48.8 39.5-88.3 88.3-88.3H777c48.8 0 88.3 39.5 88.3 88.3V384" fill="#5FE0A3" p-id="1838"></path><path d="M927.1 821.1c0 48.8-39.5 88.3-88.3 88.3H185.3c-48.8 0-88.3-39.5-88.3-88.3V467.8c0-48.8 39.5-88.3 88.3-88.3h653.5c48.8 0 88.3 39.5 88.3 88.3v353.3z" fill="#FFE91F" p-id="1839"></path><path d="M924.2 701.9c0 9.8-7.9 17.7-17.7 17.7H703.4c-9.8 0-17.7-7.9-17.7-17.7V587.1c0-9.8 7.9-17.7 17.7-17.7h203.1c9.8 0 17.7 7.9 17.7 17.7v114.8z" fill="#5FE0A3" p-id="1840"></path><path d="M886.2 369.4V202.9c0-60.3-49-109.3-109.3-109.3H247.1c-60.3 0-109.3 49-109.3 109.3v166.5C101.2 387.1 76 424.6 76 467.8V821c0 60.3 49 109.3 109.3 109.3h653.5c60.3 0 109.3-49 109.3-109.3V467.8c0-43.2-25.3-80.7-61.9-98.4zM179.8 202.9c0-37.1 30.2-67.3 67.3-67.3H777c37.1 0 67.3 30.2 67.3 67.3v155.8c-1.8-0.1-3.6-0.1-5.5-0.1H533v-23.1h65.8c11.6 0 21-9.4 21-21s-9.4-21-21-21h-48.4l47.1-73.2c6.3-9.8 3.5-22.7-6.3-29-9.8-6.3-22.7-3.5-29 6.3l-50.2 78-50.2-78.1c-6.3-9.8-19.3-12.6-29-6.3-9.8 6.3-12.6 19.3-6.3 29l47.1 73.2h-48.3c-11.6 0-21 9.4-21 21s9.4 21 21 21H491v23.1H185.3c-1.8 0-3.7 0-5.5 0.1V202.9z m658.9 685.5H185.3c-37.1 0-67.3-30.2-67.3-67.3V467.8c0-28.8 18.2-53.4 43.6-63 2.5-0.3 4.8-1.1 7-2.2 5.3-1.4 10.9-2.1 16.7-2.1h653.5c5.8 0 11.4 0.7 16.7 2.1 2.1 1.1 4.5 1.9 7 2.2 25.5 9.6 43.6 34.2 43.6 63v80.6H706.3c-21.3 0-38.7 17.3-38.7 38.7v114.8c0 21.3 17.3 38.7 38.7 38.7h199.8v80.5c0 37.1-30.2 67.3-67.4 67.3z m67.4-189.9h-106V590.4H906v108.1z m-196.5 0V590.4h48.5v108.1h-48.5z" fill="#333333" p-id="1841"></path></svg>