<svg t="1721373128239" class="icon" viewBox="0 0 1024 1024" version="1.1" xmlns="http://www.w3.org/2000/svg" p-id="2072" width="200" height="200"><path d="M510.622 101.587c-226.646 0-410.369 183.616-410.369 410.261s183.723 410.476 410.369 410.476c226.645 0 410.371-183.83 410.371-410.476s-183.728-410.261-410.371-410.261v0zM713.94 439.636v52.828h-105.658l-33.44 55.811v8.094h139.098v55.598h-139.094v128.019h-130.579v-128.019h-139.094v-55.598h139.097v-11.075l-30.672-52.827h-108.423v-52.828h74.98l-97.241-155.712h111.299l119.499 205.982 122.483-205.982h102.779l-97.243 155.71 72.211-0.001z" p-id="2073"></path><path d="M423.82 83.295v0l-10.741-52.211 48.737-7.439 50.188-2.533 50.186 2.533-5.446 53.020-44.738-2.259-44.737 2.259-43.445 6.629zM267.363 149.131l36.077-21.917 38.247-18.426 40.202-14.714-15.85-50.896-45.097 16.506-42.908 20.67-40.47 24.586 29.799 44.191zM149.179 267.316l25.188-33.685 28.24-31.073 31.073-28.24-33.902-41.124-34.857 31.68-31.68 34.855-28.257 37.789 44.196 29.796zM31.127 610.879l52.212-10.74-6.629-43.446-2.259-44.737 2.259-44.737-53.022-5.45-2.533 50.188 2.533 50.188 7.439 48.737zM267.363 874.782l-33.684-25.188-31.073-28.24-28.24-31.073-41.129 33.9 31.681 34.857 34.857 31.681 37.787 28.257 29.798-44.195zM423.82 940.62l-41.932-10.782-40.202-14.714-38.247-18.425-25.406 46.861 42.908 20.67 45.097 16.507 47.040 12.094 10.741-52.211zM600.185 940.62l-43.445 6.629-44.738 2.259-44.737-2.259-5.45 53.020 50.188 2.533 50.186-2.533 48.739-7.439-10.741-52.211zM756.644 874.782l-36.076 21.918-38.25 18.425-40.202 14.714 15.847 50.898 45.098-16.507 42.907-20.67 40.47-24.587-29.796-44.19zM874.831 756.597l-25.191 33.684-28.24 31.073-31.073 28.24 33.9 41.125 34.857-31.681 31.681-34.857 28.257-37.787-44.191-29.795zM745.969 80.353l-42.907-20.67-45.098-16.506-47.038-12.096-24.099 49.718 13.358 2.493 41.933 10.782 40.202 14.714 38.25 18.426 25.401-46.862zM890.765 199.732l-31.681-34.857-34.857-31.68-37.787-28.257-29.796 44.191 33.684 25.188 31.073 28.24 28.24 31.073 41.126-33.899zM980.784 365.994l-16.507-45.097-20.67-42.907-24.589-40.47-44.19 29.796 21.915 36.076 18.426 38.25 14.715 40.202 50.9-15.849zM992.878 413.034l-52.21 10.741 6.629 43.445 2.257 44.737-2.257 44.737 53.019 5.45 2.535-50.188-2.535-50.188-7.439-48.737zM940.668 600.139l-10.782 41.933-14.715 40.202-18.426 38.247 46.863 25.403 20.67-42.908 16.507-45.097 12.093-47.040-52.21-10.74zM149.179 756.597l-21.918-36.077-18.425-38.247-14.714-40.202-50.9 15.847 16.507 45.097 20.67 42.908 24.587 40.47 44.193-29.796zM83.342 423.776l10.782-41.933 14.714-40.202 18.425-38.25-46.863-25.401-20.67 42.907-16.507 45.097-12.094 47.040 52.213 10.741z" p-id="2074"></path></svg>