<svg t="1718246796355" class="icon" viewBox="0 0 1024 1024" version="1.1" xmlns="http://www.w3.org/2000/svg" p-id="1803" width="200" height="200"><path d="M428.656877 0.49141c6.879739-0.294846 13.759478-0.49141 20.737499-0.49141s13.85776 0.196564 20.737498 0.49141c-6.879739-0.294846-13.759478-0.49141-20.737498-0.49141s-13.85776 0.196564-20.737499 0.49141zM244.279873 53.858528c1.179384-0.687974 2.260486-1.277666 3.43987-1.96564-1.179384 0.687974-2.358768 1.375948-3.43987 1.96564zM259.611863 45.602841c1.769076-0.884538 3.538151-1.867358 5.405509-2.751896-1.867358 0.884538-3.636433 1.867358-5.405509 2.751896zM276.221518 37.642c2.162204-0.98282 4.324407-1.96564 6.584893-2.948459-2.162204 0.884538-4.422689 1.867358-6.584893 2.948459zM293.61743 30.172569c2.45705-0.98282 5.012381-1.96564 7.567713-2.948459-2.555332 0.884538-5.110663 1.867358-7.567713 2.948459zM311.603033 23.391112c2.751896-0.98282 5.503791-1.867358 8.353969-2.850177-2.850178 0.884538-5.602073 1.867358-8.353969 2.850177zM330.080046 17.395911c3.046742-0.884538 6.093483-1.769076 9.041943-2.555331-3.046742 0.786256-6.093483 1.670794-9.041943 2.555331zM349.048469 12.186966c3.243305-0.786256 6.486611-1.572512 9.828199-2.260486-3.341587 0.786256-6.584893 1.47423-9.828199 2.260486zM368.41002 7.862559c3.538151-0.687974 7.076303-1.277666 10.614455-1.867358-3.538151 0.589692-7.174585 1.179384-10.614455 1.867358zM388.066417 4.520971c3.832997-0.589692 7.764277-0.98282 11.695556-1.474229-3.931279 0.393128-7.764277 0.884538-11.695556 1.474229zM408.214224 2.063922c4.422689-0.393128 8.943661-0.687974 13.36635-0.98282-4.422689 0.196564-8.943661 0.49141-13.36635 0.98282zM654.410596 53.858528c-1.179384-0.687974-2.260486-1.277666-3.439869-1.96564 1.179384 0.687974 2.358768 1.375948 3.439869 1.96564zM639.078606 45.602841c-1.769076-0.884538-3.538151-1.867358-5.405509-2.751896 1.867358 0.884538 3.636433 1.867358 5.405509 2.751896zM622.468951 37.642c-2.162204-0.98282-4.324407-1.96564-6.584893-2.948459 2.162204 0.884538 4.422689 1.867358 6.584893 2.948459zM605.07304 30.172569c-2.45705-0.98282-5.012381-1.96564-7.567713-2.948459 2.555332 0.884538 5.110663 1.867358 7.567713 2.948459zM587.087436 23.391112c-2.751896-0.98282-5.503791-1.867358-8.353968-2.850177 2.850178 0.884538 5.602073 1.867358 8.353968 2.850177zM568.610423 17.395911c-3.046742-0.884538-6.093483-1.769076-9.041942-2.555331 3.046742 0.786256 6.093483 1.670794 9.041942 2.555331zM549.642 12.186966c-3.243305-0.786256-6.486611-1.572512-9.828198-2.260486 3.341587 0.786256 6.584893 1.47423 9.828198 2.260486zM530.280449 7.862559c-3.538151-0.687974-7.076303-1.277666-10.614454-1.867358 3.538151 0.589692 7.174585 1.179384 10.614454 1.867358zM510.624052 4.520971c-3.832997-0.589692-7.764277-0.98282-11.695556-1.474229 3.931279 0.393128 7.764277 0.884538 11.695556 1.474229zM490.476245 2.063922c-4.422689-0.393128-8.943661-0.687974-13.36635-0.98282 4.422689 0.196564 8.943661 0.49141 13.36635 0.98282z" fill="#D30505" p-id="1804"></path><path d="M807.63221 312.43843l-21.130626 21.130627-282.953835 282.75727-98.773394-98.773395-51.892888 51.892888 148.995489 148.995489 1.670793 1.867358 1.670794-1.867358 296.61503-296.61503 4.619254 7.665995c32.334773 53.661964 49.435838 114.989922 49.435838 177.202418 0 189.684231-154.302716 343.888665-343.888665 343.888665s-343.888665-154.302716-343.888665-343.888665c0-97.692293 41.868126-191.158461 114.89164-256.417698l10.614455-11.40071L563.401478 68.993953 512 17.592475 234.156829 295.435646l-0.098282 0.098282c-88.552068 79.21528-139.363854 192.63269-139.363855 311.160764C94.694692 836.772819 281.921874 1024 512 1024c230.078126 0 417.305308-187.227181 417.305308-417.305308 0-111.255207-43.145791-215.532393-121.673098-294.256262z" p-id="1805"></path></svg>