<svg xmlns="http://www.w3.org/2000/svg" fill="none" viewBox="0 0 48 48"><path stroke-linejoin="round" stroke-width="4" stroke="currentColor" d="M4 13h40v24H4V13Z" data-follow-stroke="currentColor"/><path stroke-linejoin="round" stroke-linecap="round" stroke-width="4" stroke="currentColor" d="M4 21a8 8 0 0 0 8-8H4v8ZM4 29a8 8 0 0 1 8 8H4v-8ZM44 29v8h-8a8 8 0 0 1 8-8ZM44 21a8 8 0 0 1-8-8h8v8Z" clip-rule="evenodd" data-follow-stroke="currentColor"/><path stroke-linejoin="round" stroke-width="4" stroke="currentColor" d="M24 31c2.761 0 5-2.686 5-6s-2.239-6-5-6-5 2.686-5 6 2.239 6 5 6Z" data-follow-stroke="currentColor"/></svg>