<svg id="visual" viewBox="0 0 900 600" width="900" height="600" xmlns="http://www.w3.org/2000/svg" xmlns:xlink="http://www.w3.org/1999/xlink" version="1.1"><path d="M0 115L82 121L164 85L245 121L327 115L409 133L491 115L573 151L655 115L736 61L818 55L900 103L900 0L818 0L736 0L655 0L573 0L491 0L409 0L327 0L245 0L164 0L82 0L0 0Z" fill="#4a9cee"></path><path d="M0 229L82 271L164 211L245 253L327 223L409 265L491 295L573 385L655 265L736 307L818 175L900 229L900 101L818 53L736 59L655 113L573 149L491 113L409 131L327 113L245 119L164 83L82 119L0 113Z" fill="#3f98f1"></path><path d="M0 331L82 379L164 319L245 331L327 271L409 361L491 391L573 439L655 337L736 367L818 271L900 307L900 227L818 173L736 305L655 263L573 383L491 293L409 263L327 221L245 251L164 209L82 269L0 227Z" fill="#3393f4"></path><path d="M0 421L82 439L164 373L245 385L327 361L409 439L491 469L573 481L655 433L736 457L818 343L900 391L900 305L818 269L736 365L655 335L573 437L491 389L409 359L327 269L245 329L164 317L82 377L0 329Z" fill="#268ef7"></path><path d="M0 601L82 601L164 601L245 601L327 601L409 601L491 601L573 601L655 601L736 601L818 601L900 601L900 389L818 341L736 455L655 431L573 479L491 467L409 437L327 359L245 383L164 371L82 437L0 419Z" fill="#1989fa"></path></svg>